SplineFontDB: 3.2
FontName: NeoSpleen
FullName: NeoSpleen
FamilyName: NeoSpleen
Weight: Medium
Copyright: "Copyright (c) 2018-2024, Frederic Cambus, Matthew Wilding"
Version: "1.0.0"
ItalicAngle: 0
UnderlinePosition: -100
UnderlineWidth: 40
Ascent: 832
Descent: 192
InvalidEm: 0
sfntRevision: 0x00010000
LayerCount: 2
Layer: 0 0 "Back" 1
Layer: 1 0 "Fore" 0
XUID: [1021 808 1848366223 37733]
StyleMap: 0x0000
FSType: 0
OS2Version: 1
OS2_WeightWidthSlopeOnly: 0
OS2_UseTypoMetrics: 0
CreationTime: 1703523052
ModificationTime: 1711314731
PfmFamily: 33
TTFWeight: 500
TTFWidth: 5
LineGap: 72
VLineGap: 0
Panose: 2 0 6 4 0 0 0 0 0 0
OS2TypoAscent: 832
OS2TypoAOffset: 0
OS2TypoDescent: -192
OS2TypoDOffset: 0
OS2TypoLinegap: 0
OS2WinAscent: 832
OS2WinAOffset: 0
OS2WinDescent: 192
OS2WinDOffset: 0
HheadAscent: 832
HheadAOffset: 0
HheadDescent: -192
HheadDOffset: 0
OS2SubXSize: 665
OS2SubYSize: 716
OS2SubXOff: 0
OS2SubYOff: 143
OS2SupXSize: 665
OS2SupYSize: 716
OS2SupXOff: 0
OS2SupYOff: 491
OS2StrikeYSize: 51
OS2StrikeYPos: 265
OS2CapHeight: 640
OS2XHeight: 448
OS2Vendor: 'PfEd'
OS2CodePages: 40000093.cdd40000
OS2UnicodeRanges: 800000af.100078e3.00040000.00000000
MarkAttachClasses: 1
DEI: 91125
LangName: 1033 "" "" "" "" "" "Version +ACIA-1.0.0+ACIA"
Encoding: UnicodeBmp
UnicodeInterp: none
NameList: AGL For New Fonts
DisplaySize: -48
AntiAlias: 1
FitToEm: 0
WinInfo: 38 38 12
BeginPrivate: 7
BlueValues 21 [0 0 448 448 640 640]
OtherBlues 11 [-192 -192]
BlueShift 1 0
StdHW 5 [128]
StdVW 5 [320]
StemSnapH 27 [64 96 128 160 192 256 320]
StemSnapV 28 [64 128 192 240 256 288 320]
EndPrivate
TeXData: 1 0 0 524288 262144 174762 458752 1048576 174762 783286 444596 497025 792723 393216 433062 380633 303038 157286 324010 404750 52429 2506097 1059062 262144
BeginChars: 65537 894

StartChar: .notdef
Encoding: 65536 -1 0
Width: 512
GlyphClass: 1
Flags: W
HStem: 0 51<102 410> 503 51<102 410>
VStem: 51 51<51 503> 410 51<51 503>
LayerCount: 2
Fore
SplineSet
51 0 m 1
 51 554 l 1
 461 554 l 1
 461 0 l 1
 51 0 l 1
102 51 m 1
 410 51 l 1
 410 503 l 1
 102 503 l 1
 102 51 l 1
EndSplineSet
Validated: 1
EndChar

StartChar: EXCLAMATION
Encoding: 33 33 2
Width: 512
GlyphClass: 1
Flags: W
HStem: 620 20G<224 288>
VStem: 224 64<-64 128 236 640>
LayerCount: 2
Fore
SplineSet
288 -64 m 1
 224 -64 l 1
 224 128 l 1
 288 128 l 1
 288 -64 l 1
224 236 m 5
 224 640 l 1
 288 640 l 1
 288 236 l 5
 224 236 l 5
EndSplineSet
EndChar

StartChar: QUOTATION
Encoding: 34 34 3
Width: 512
GlyphClass: 1
Flags: W
HStem: 448 256<96 160 352 416>
VStem: 96 64<448 704> 352 64<448 704>
LayerCount: 2
Fore
SplineSet
352 448 m 1
 352 704 l 1
 416 704 l 1
 416 448 l 1
 352 448 l 1
96 448 m 1
 96 704 l 1
 160 704 l 1
 160 448 l 1
 96 448 l 1
EndSplineSet
Validated: 1
EndChar

StartChar: NUMBER
Encoding: 35 35 4
Width: 512
GlyphClass: 1
Flags: W
HStem: 0 21G<96 160 352 416> 128 64<32 96 160 352 416 480> 448 64<32 96 160 352 416 480> 620 20G<96 160 352 416>
VStem: 96 64<0 128 192 448 512 640> 352 64<0 128 192 448 512 640>
LayerCount: 2
Fore
SplineSet
352 0 m 1
 352 128 l 1
 160 128 l 1
 160 0 l 1
 96 0 l 1
 96 128 l 1
 32 128 l 1
 32 192 l 1
 96 192 l 1
 96 448 l 1
 32 448 l 1
 32 512 l 1
 96 512 l 1
 96 640 l 1
 160 640 l 1
 160 512 l 1
 352 512 l 1
 352 640 l 1
 416 640 l 1
 416 512 l 1
 480 512 l 1
 480 448 l 1
 416 448 l 1
 416 192 l 1
 480 192 l 1
 480 128 l 1
 416 128 l 1
 416 0 l 1
 352 0 l 1
352 192 m 1
 352 448 l 5
 160 448 l 5
 160 192 l 1
 352 192 l 1
EndSplineSet
Validated: 1
EndChar

StartChar: DOLLAR
Encoding: 36 36 5
Width: 512
GlyphClass: 1
Flags: W
HStem: 0 64<64 224 288 356.136> 320 64<149.523 224 288 355.032> 576 64<150.25 224 288 448>
VStem: 50 66<415.994 539.851> 224 64<-64 0 64 320 384 576 640 704> 398 68<112.86 275.648>
LayerCount: 2
Fore
SplineSet
224 -64 m 1
 224 0 l 1
 64 0 l 1
 64 64 l 1
 224 64 l 1
 224 320 l 1
 102 320 50 396 50 474 c 0
 50 556 109 641 205 641 c 0
 211 641 217 641 224 640 c 1
 224 704 l 1
 288 704 l 1
 288 640 l 1
 448 640 l 1
 448 576 l 1
 288 576 l 1
 288 384 l 1
 412 384 466 293 466 199 c 0
 466 100 406 -1 309 -1 c 0
 302 -1 295 -1 288 0 c 1
 288 -64 l 1
 224 -64 l 1
288 64 m 1
 293 63 298 63 303 63 c 4
 361 63 398 131 398 198 c 0
 398 260 366 320 288 320 c 1
 288 64 l 1
224 384 m 1
 224 576 l 1
 218 577 213 578 207 578 c 0
 153 578 116 525 116 474 c 0
 116 428 147 384 224 384 c 1
EndSplineSet
Validated: 1
EndChar

StartChar: PERCENT
Encoding: 37 37 6
Width: 512
GlyphClass: 1
Flags: W
HStem: 0.0996094 36.8008<364.5 404.82> 147.3 36.7998<364.5 404.82> 456.1 36.8008<104.5 144.82> 603.3 36.7998<104.5 144.82>
VStem: 23.8604 80.6396<492.9 603.3> 144.82 80.6396<492.9 603.3> 283.86 80.6396<36.9004 147.3> 404.82 80.6396<36.9004 147.3>
LayerCount: 2
Fore
SplineSet
445.139648438 184.099609375 m 5
 467.8203125 184.099609375 485.459960938 168 485.459960938 147.299804688 c 5
 485.459960938 36.900390625 l 5
 485.459960938 16.2001953125 467.8203125 0.099609375 445.139648438 0.099609375 c 5
 324.1796875 0.099609375 l 5
 301.5 0.099609375 283.860351562 16.2001953125 283.860351562 36.900390625 c 5
 283.860351562 147.299804688 l 5
 283.860351562 168 301.5 184.099609375 324.1796875 184.099609375 c 5
 445.139648438 184.099609375 l 5
404.8203125 36.900390625 m 5
 404.8203125 147.299804688 l 5
 364.5 147.299804688 l 5
 364.5 36.900390625 l 5
 404.8203125 36.900390625 l 5
492 576 m 1
 84 0 l 1
 20 0 l 1
 20 64 l 1
 428 640 l 1
 492 640 l 1
 492 576 l 1
185.139648438 640.099609375 m 1
 207.8203125 640.099609375 225.459960938 624 225.459960938 603.299804688 c 1
 225.459960938 492.900390625 l 1
 225.459960938 472.200195312 207.8203125 456.099609375 185.139648438 456.099609375 c 1
 64.1796875 456.099609375 l 1
 41.5 456.099609375 23.8603515625 472.200195312 23.8603515625 492.900390625 c 1
 23.8603515625 603.299804688 l 1
 23.8603515625 624 41.5 640.099609375 64.1796875 640.099609375 c 1
 185.139648438 640.099609375 l 1
144.8203125 492.900390625 m 1
 144.8203125 603.299804688 l 1
 104.5 603.299804688 l 1
 104.5 492.900390625 l 1
 144.8203125 492.900390625 l 1
EndSplineSet
Validated: 1
EndChar

StartChar: AMPERSAND
Encoding: 38 38 7
Width: 512
GlyphClass: 1
Flags: W
HStem: 0 64<97.8862 304> 256 64<97.8862 160> 320 64<288 350.114> 576 64<161.886 350.114>
VStem: 32 64<65.8862 254.114> 96 64<385.654 574.114> 320 64<128 160> 352 64<385.886 574.114>
LayerCount: 2
Fore
SplineSet
352 64 m 1xb1
 304 0 l 1
 112 0 l 1
 68 0 32 36 32 80 c 1
 32 240 l 1xb9
 32 284 68 320 112 320 c 1
 160 320 l 1xd4
 160 336 l 1
 144 336 l 1
 118 336 96 365 96 400 c 1
 96 560 l 1
 96 604 132 640 176 640 c 1
 336 640 l 1
 380 640 416 604 416 560 c 1
 416 400 l 1
 416 356 380 320 336 320 c 1
 288 320 l 1
 288 288 l 1
 352 224 l 1xb5
 400 295 l 1
 448 295 l 1
 448 247 l 1
 384 160 l 1
 384 128 l 1xb2
 480 48 l 5
 480 0 l 1
 432 0 l 1
 352 64 l 1xb1
288 64 m 1
 306 64 320 78 320 96 c 1
 320 192 l 1
 256 256 l 1
 128 256 l 1xda
 110 256 96 242 96 224 c 1
 96 96 l 1
 96 78 110 64 128 64 c 1
 288 64 l 1
320 384 m 1xb6
 338 384 352 398 352 416 c 1
 352 544 l 1xb1
 352 562 338 576 320 576 c 1
 192 576 l 1
 174 576 160 562 160 544 c 1
 160 416 l 1
 160 398 174 384 192 384 c 1
 320 384 l 1xb6
EndSplineSet
EndChar

StartChar: APOSTROPHE
Encoding: 39 39 8
Width: 512
GlyphClass: 1
Flags: W
HStem: 447 192<225 289>
VStem: 225 64<447 639>
LayerCount: 2
Fore
SplineSet
289 447 m 5
 225 447 l 5
 225 639 l 5
 289 639 l 5
 289 447 l 5
EndSplineSet
Validated: 1
EndChar

StartChar: LEFT
Encoding: 40 40 9
Width: 512
GlyphClass: 1
Flags: W
HStem: -128 64<281.381 448> 704 64<281.381 448>
VStem: 121 64<67.3281 572.672>
LayerCount: 2
Fore
SplineSet
320 -128 m 1
 188 -128 121 15 121 192 c 5
 121 448 l 5
 121 625 188 768 320 768 c 1
 448 768 l 1
 448 704 l 1
 352 704 l 1
 237 704 185 575 185 416 c 5
 185 224 l 5
 185 65 237 -64 352 -64 c 1
 448 -64 l 1
 448 -128 l 1
 320 -128 l 1
EndSplineSet
Validated: 1
EndChar

StartChar: RIGHT
Encoding: 41 41 10
Width: 512
GlyphClass: 1
Flags: W
HStem: -128 64<217 287.619> 704 64<217 287.619>
VStem: 384 64<67.3281 224 416 572.672>
LayerCount: 2
Fore
SplineSet
249 -128 m 1
 381 -128 448 15 448 192 c 5
 448 448 l 5
 448 625 381 768 249 768 c 1
 121 768 l 1
 121 704 l 1
 217 704 l 1
 332 704 384 575 384 416 c 5
 384 224 l 5
 384 65 332 -64 217 -64 c 1
 121 -64 l 1
 121 -128 l 1
 249 -128 l 1
EndSplineSet
Validated: 9
EndChar

StartChar: ASTERISK
Encoding: 42 42 11
Width: 512
GlyphClass: 1
Flags: W
HStem: 256 64<32 162 350 480>
VStem: 96 64<64 126 450 512> 352 64<64 126 450 512>
LayerCount: 2
Fore
SplineSet
352 126 m 1
 272 206 l 1
 240 206 l 1
 160 126 l 1
 160 64 l 1
 96 64 l 1
 96 128 l 1
 162 208 l 1
 162 256 l 1
 32 256 l 1
 32 320 l 1
 162 320 l 1
 162 368 l 1
 96 448 l 1
 96 512 l 1
 160 512 l 1
 160 450 l 1
 240 370 l 1
 272 370 l 1
 352 450 l 1
 352 512 l 1
 416 512 l 1
 416 448 l 1
 350 368 l 1
 350 320 l 1
 480 320 l 1
 480 256 l 1
 350 256 l 1
 350 208 l 1
 416 128 l 1
 416 64 l 1
 352 64 l 1
 352 126 l 1
EndSplineSet
EndChar

StartChar: PLUS
Encoding: 43 43 12
Width: 512
GlyphClass: 1
Flags: W
HStem: 256 64<96 224 288 416> 428 20G<224 288>
VStem: 224 64<128 256 320 448>
LayerCount: 2
Fore
SplineSet
224 128 m 1
 224 256 l 1
 96 256 l 1
 96 320 l 1
 224 320 l 1
 224 448 l 1
 288 448 l 1
 288 320 l 1
 416 320 l 1
 416 256 l 1
 288 256 l 1
 288 128 l 1
 224 128 l 1
EndSplineSet
Validated: 1
EndChar

StartChar: COMMA
Encoding: 44 44 13
Width: 512
GlyphClass: 1
Flags: W
HStem: -64 64<160 222.114>
VStem: 224 64<1.88625 128>
LayerCount: 2
Fore
SplineSet
288 16 m 5
 288 -28 252 -64 208 -64 c 5
 160 -64 l 5
 160 0 l 5
 192 0 l 5
 210 0 224 14 224 32 c 5
 224 128 l 5
 288 128 l 5
 288 16 l 5
EndSplineSet
Validated: 1
EndChar

StartChar: HYPHEN-MINUS
Encoding: 45 45 14
Width: 512
GlyphClass: 1
Flags: W
HStem: 256 64<64 448>
LayerCount: 2
Fore
SplineSet
64 256 m 1
 64 320 l 1
 448 320 l 1
 448 256 l 1
 64 256 l 1
EndSplineSet
Validated: 513
EndChar

StartChar: FULL
Encoding: 46 46 15
Width: 512
GlyphClass: 1
Flags: W
HStem: 0 128<224 288>
VStem: 224 64<0 128>
LayerCount: 2
Fore
SplineSet
288 0 m 5
 224 0 l 5
 224 128 l 1
 288 128 l 1
 288 0 l 5
EndSplineSet
EndChar

StartChar: SOLIDUS
Encoding: 47 47 16
Width: 512
GlyphClass: 1
Flags: W
LayerCount: 2
Fore
SplineSet
480 672 m 1
 96 -96 l 1
 32 -96 l 1
 32 -32 l 1
 416 736 l 1
 480 736 l 1
 480 672 l 1
EndSplineSet
Validated: 1
EndChar

StartChar: DIGIT
Encoding: 48 48 17
Width: 512
GlyphClass: 1
Flags: W
HStem: 0 64<129.886 382.114> 576 64<129.886 382.114>
VStem: 64 64<65.8862 160 256 574.114> 384 64<65.8862 400 496 574.114>
LayerCount: 2
Fore
SplineSet
64 560 m 1
 64 604 100 640 144 640 c 1
 368 640 l 1
 412 640 448 604 448 560 c 1
 448 80 l 1
 448 36 412 0 368 0 c 1
 144 0 l 1
 100 0 64 36 64 80 c 1
 64 560 l 1
352 64 m 1
 370 64 384 78 384 96 c 1
 384 400 l 1
 128 160 l 1
 128 96 l 1
 128 78 142 64 160 64 c 1
 352 64 l 1
384 544 m 1
 384 562 370 576 352 576 c 1
 160 576 l 1
 142 576 128 562 128 544 c 1
 128 256 l 1
 384 496 l 1
 384 544 l 1
EndSplineSet
Validated: 1
EndChar

StartChar: DIGIT
Encoding: 49 49 18
Width: 512
GlyphClass: 1
Flags: W
HStem: 0 64<96 224 288 416> 620 20G<172 288>
VStem: 224 64<64 576>
LayerCount: 2
Fore
SplineSet
208 576 m 1
 128 493 l 5
 96 493 l 5
 96 544 l 1
 192 640 l 1
 288 640 l 1
 288 64 l 1
 416 64 l 1
 416 0 l 1
 96 0 l 1
 96 64 l 1
 224 64 l 1
 224 576 l 1
 208 576 l 1
EndSplineSet
Validated: 1
EndChar

StartChar: DIGIT
Encoding: 50 50 19
Width: 512
GlyphClass: 1
Flags: W
HStem: 0 128<384 448> 0 64<128 384> 576 64<129.886 382.114>
VStem: 64 64<64 112 512 574.114> 384 64<64 128 432 574.114>
LayerCount: 2
Fore
SplineSet
384 544 m 1xb8
 384 562 370 576 352 576 c 1
 160 576 l 1
 142 576 128 562 128 544 c 1
 128 512 l 1
 64 512 l 1
 64 560 l 1
 64 604 100 640 144 640 c 1
 368 640 l 1
 412 640 448 604 448 560 c 1
 448 432 l 1
 448 422 442 410 432 400 c 1
 128 112 l 1
 128 64 l 1
 384 64 l 1x78
 384 128 l 1
 448 128 l 1
 448 0 l 1xb8
 64 0 l 1x78
 64 128 l 1
 384 432 l 1
 384 544 l 1xb8
EndSplineSet
Validated: 1
EndChar

StartChar: DIGIT
Encoding: 51 51 20
Width: 512
GlyphClass: 1
Flags: W
HStem: 0 64<129.886 382.114> 320 64<160 382.589> 576 64<129.886 382.114>
VStem: 64 64<65.8862 128 512 574.114> 384 64<65.8862 318.321 385.679 574.114>
LayerCount: 2
Fore
SplineSet
64 560 m 1
 64 604 100 640 144 640 c 1
 368 640 l 1
 412 640 448 604 448 560 c 1
 448 416 l 1
 448 390 426 368 400 368 c 1
 384 368 l 1
 384 336 l 1
 400 336 l 1
 426 336 448 314 448 288 c 1
 448 80 l 1
 448 36 412 0 368 0 c 1
 144 0 l 1
 100 0 64 36 64 80 c 1
 64 128 l 1
 128 128 l 1
 128 96 l 1
 128 78 142 64 160 64 c 1
 352 64 l 1
 370 64 384 78 384 96 c 1
 384 288 l 1
 384 306 370 320 352 320 c 1
 160 320 l 1
 160 384 l 1
 352 384 l 1
 370 384 384 398 384 416 c 1
 384 544 l 1
 384 562 370 576 352 576 c 1
 160 576 l 1
 142 576 128 562 128 544 c 1
 128 512 l 1
 64 512 l 1
 64 560 l 1
EndSplineSet
Validated: 1
EndChar

StartChar: DIGIT
Encoding: 52 52 21
Width: 512
GlyphClass: 1
Flags: W
HStem: 0 21G<320 384> 192 64<128 320 384 448> 620 20G<64 128>
VStem: 64 64<256 640> 320 64<0 192 256 512>
LayerCount: 2
Fore
SplineSet
320 0 m 1
 320 192 l 1
 64 192 l 1
 64 640 l 1
 128 640 l 1
 128 256 l 1
 320 256 l 1
 320 512 l 1
 384 512 l 1
 384 256 l 1
 448 256 l 1
 448 192 l 1
 384 192 l 1
 384 0 l 1
 320 0 l 1
EndSplineSet
Validated: 1
EndChar

StartChar: DIGIT
Encoding: 53 53 22
Width: 512
GlyphClass: 1
Flags: W
HStem: 0 64<129.886 382.114> 320 64<128 382.114> 512 128<384 448> 576 64<128 384>
VStem: 64 64<65.8862 128 384 576> 384 64<65.8862 318.114 512 576>
LayerCount: 2
Fore
SplineSet
128 96 m 1xdc
 128 78 142 64 160 64 c 1
 352 64 l 1
 370 64 384 78 384 96 c 1
 384 288 l 1
 384 306 370 320 352 320 c 1
 64 320 l 1
 64 640 l 1xdc
 448 640 l 1
 448 512 l 1
 384 512 l 1xec
 384 576 l 1
 128 576 l 1
 128 384 l 1
 368 384 l 1
 412 384 448 348 448 304 c 1
 448 80 l 1
 448 36 412 0 368 0 c 1
 144 0 l 1
 100 0 64 36 64 80 c 1
 64 128 l 1
 128 128 l 1
 128 96 l 1xdc
EndSplineSet
Validated: 1
EndChar

StartChar: DIGIT
Encoding: 54 54 23
Width: 512
GlyphClass: 1
Flags: W
HStem: 0 64<129.886 382.114> 320 64<128 382.114> 576 64<129.886 382.114>
VStem: 64 64<65.8862 320 384 574.114> 384 64<65.8862 318.114 512 574.114>
LayerCount: 2
Fore
SplineSet
144 0 m 1
 100 0 64 36 64 80 c 1
 64 560 l 1
 64 604 100 640 144 640 c 1
 368 640 l 1
 412 640 448 604 448 560 c 1
 448 512 l 1
 384 512 l 1
 384 544 l 1
 384 562 370 576 352 576 c 1
 160 576 l 1
 142 576 128 562 128 544 c 1
 128 384 l 1
 368 384 l 1
 412 384 448 348 448 304 c 1
 448 80 l 1
 448 36 412 0 368 0 c 1
 144 0 l 1
128 96 m 1
 128 78 142 64 160 64 c 1
 352 64 l 1
 370 64 384 78 384 96 c 1
 384 288 l 1
 384 306 370 320 352 320 c 1
 128 320 l 1
 128 96 l 1
EndSplineSet
Validated: 1
EndChar

StartChar: DIGIT
Encoding: 55 55 24
Width: 512
GlyphClass: 1
Flags: W
HStem: 1 21G<224 288> 576 64<63 382.155>
VStem: 224 64<1 256> 384 64<448 574.155>
LayerCount: 2
Fore
SplineSet
63 576 m 1
 63 640 l 1
 368 640 l 1
 412.16015625 640 448 604.16015625 448 560 c 1
 448 448 l 1
 288 256 l 1
 288 1 l 1
 224 1 l 1
 224 256 l 1
 384 448 l 1
 384 544 l 1
 384 561.6640625 369.6640625 576 352 576 c 1
 63 576 l 1
EndSplineSet
Validated: 1
EndChar

StartChar: DIGIT
Encoding: 56 56 25
Width: 512
GlyphClass: 1
Flags: W
HStem: 0 64<129.845 382.155> 320 64<129.439 382.561> 576 64<129.845 382.155>
VStem: 64 64<65.8446 318.527 385.473 574.155> 384 64<65.8446 318.527 385.473 574.155>
LayerCount: 2
Fore
SplineSet
368 640 m 5
 412.16015625 640 448 604.16015625 448 560 c 5
 448 416 l 1
 448 389.50390625 426.49609375 368 400 368 c 1
 384 368 l 1
 384 336 l 1
 400 336 l 1
 426.49609375 336 448 314.49609375 448 288 c 1
 448 80 l 1
 448 35.83984375 412.16015625 0 368 0 c 1
 144 0 l 1
 99.83984375 0 64 35.83984375 64 80 c 1
 64 288 l 1
 64 314.49609375 85.50390625 336 112 336 c 1
 128 336 l 1
 128 368 l 1
 112 368 l 1
 85.50390625 368 64 389.50390625 64 416 c 1
 64 560 l 1
 64 604.16015625 99.83984375 640 144 640 c 1
 368 640 l 5
384 288 m 1
 384 305.6640625 369.6640625 320 352 320 c 1
 160 320 l 1
 142.3359375 320 128 305.6640625 128 288 c 1
 128 96 l 1
 128 78.3359375 142.3359375 64 160 64 c 1
 352 64 l 1
 369.6640625 64 384 78.3359375 384 96 c 1
 384 288 l 1
128 416 m 1
 128 398.3359375 142.3359375 384 160 384 c 1
 352 384 l 1
 369.6640625 384 384 398.3359375 384 416 c 1
 384 544 l 1
 384 561.6640625 369.6640625 576 352 576 c 1
 160 576 l 1
 142.3359375 576 128 561.6640625 128 544 c 1
 128 416 l 1
EndSplineSet
Validated: 1
EndChar

StartChar: DIGIT
Encoding: 57 57 26
Width: 512
GlyphClass: 1
Flags: W
HStem: 0 64<129.886 382.114> 256 64<129.886 384> 576 64<129.886 382.114>
VStem: 64 64<65.8862 128 321.886 574.114> 384 64<65.8862 256 320 574.114>
LayerCount: 2
Fore
SplineSet
368 640 m 1
 412 640 448 604 448 560 c 1
 448 80 l 1
 448 36 412 0 368 0 c 1
 144 0 l 1
 100 0 64 36 64 80 c 1
 64 128 l 1
 128 128 l 1
 128 96 l 1
 128 78 142 64 160 64 c 1
 352 64 l 1
 370 64 384 78 384 96 c 1
 384 256 l 1
 144 256 l 1
 100 256 64 292 64 336 c 1
 64 560 l 1
 64 604 100 640 144 640 c 1
 368 640 l 1
384 544 m 1
 384 562 370 576 352 576 c 1
 160 576 l 1
 142 576 128 562 128 544 c 1
 128 352 l 1
 128 334 142 320 160 320 c 1
 384 320 l 1
 384 544 l 1
EndSplineSet
Validated: 1
EndChar

StartChar: COLON
Encoding: 58 58 27
Width: 512
GlyphClass: 1
Flags: W
HStem: 0 21G<224 288>
VStem: 224 64<0 192 337 529>
LayerCount: 2
Fore
SplineSet
289 337 m 5
 225 337 l 5
 225 529 l 5
 289 529 l 5
 289 337 l 5
288 0 m 1
 224 0 l 1
 224 192 l 1
 288 192 l 1
 288 0 l 1
EndSplineSet
EndChar

StartChar: SEMICOLON
Encoding: 59 59 28
Width: 512
GlyphClass: 1
Flags: W
HStem: -64 64<160 222.114>
VStem: 225 64<1.90509 128 337 529>
LayerCount: 2
Fore
SplineSet
289 337 m 5
 225 337 l 5
 225 529 l 5
 289 529 l 5
 289 337 l 5
288 16 m 1
 288 -28 252 -64 208 -64 c 1
 160 -64 l 1
 160 0 l 1
 192 0 l 1
 210 0 224 14 224 32 c 1
 224 128 l 1
 288 128 l 1
 288 16 l 1
EndSplineSet
EndChar

StartChar: LESS-THAN
Encoding: 60 60 29
Width: 512
GlyphClass: 1
Flags: W
HStem: 0 21G<332 448> 620 20G<332 448>
VStem: 64 96<288 352>
LayerCount: 2
Fore
SplineSet
160 288 m 1
 448 0 l 1
 352 0 l 1
 64 288 l 1
 64 352 l 1
 352 640 l 1
 448 640 l 1
 160 352 l 1
 160 288 l 1
EndSplineSet
Validated: 513
EndChar

StartChar: EQUALS
Encoding: 61 61 30
Width: 512
GlyphClass: 1
Flags: W
HStem: 192 64<64 448> 384 64<64 448>
LayerCount: 2
Fore
SplineSet
64 192 m 1
 64 256 l 1
 448 256 l 1
 448 192 l 1
 64 192 l 1
64 384 m 1
 64 448 l 1
 448 448 l 1
 448 384 l 1
 64 384 l 1
EndSplineSet
Validated: 1
EndChar

StartChar: GREATER-THAN
Encoding: 62 62 31
Width: 512
GlyphClass: 1
Flags: W
HStem: 0 21G<64 180> 620 20G<64 180>
VStem: 352 96<288 352>
LayerCount: 2
Fore
SplineSet
352 288 m 1
 352 352 l 1
 64 640 l 1
 160 640 l 1
 448 352 l 1
 448 288 l 1
 160 0 l 1
 64 0 l 1
 352 288 l 1
EndSplineSet
Validated: 513
EndChar

StartChar: QUESTION
Encoding: 63 63 32
Width: 512
GlyphClass: 1
Flags: W
HStem: 576 64<129.886 382.114>
VStem: 64 64<512 574.114> 224 64<-64 128 194 294> 384 64<448 574.114>
CounterMasks: 1 70
LayerCount: 2
Fore
SplineSet
288 -64 m 1
 224 -64 l 1
 224 128 l 1
 288 128 l 1
 288 -64 l 1
224 330 m 1
 384 448 l 1
 384 544 l 1
 384 562 370 576 352 576 c 1
 160 576 l 1
 142 576 128 562 128 544 c 1
 128 512 l 1
 64 512 l 1
 64 560 l 1
 64 604 100 640 144 640 c 1
 368 640 l 1
 412 640 448 604 448 560 c 1
 448 415 l 5
 288 294 l 1
 288 194 l 1
 224 194 l 1
 224 330 l 1
EndSplineSet
EndChar

StartChar: COMMERCIAL
Encoding: 64 64 33
Width: 512
GlyphClass: 1
Flags: W
HStem: 0 64<129.886 416> 160 64<292 384> 512 64<129.886 382.114>
VStem: 64 64<65.8862 510.114> 224 68<224 416> 384 64<224 510.114>
LayerCount: 2
Fore
SplineSet
144 0 m 5
 100 0 64 36 64 80 c 5
 64 496 l 5
 64 540 100 576 144 576 c 5
 368 576 l 5
 412 576 448 540 448 496 c 5
 448 160 l 5
 224 160 l 5
 224 416 l 5
 292 416 l 5
 292 224 l 5
 384 224 l 5
 384 480 l 5
 384 498 370 512 352 512 c 5
 160 512 l 5
 142 512 128 498 128 480 c 5
 128 96 l 5
 128 78 142 64 160 64 c 5
 416 64 l 5
 416 0 l 5
 144 0 l 5
EndSplineSet
Validated: 1
EndChar

StartChar: LATIN
Encoding: 65 65 34
Width: 512
GlyphClass: 1
Flags: W
HStem: 0 21G<64 128 384 448> 288 64<128 384> 576 64<129.886 382.114>
VStem: 64 64<0 288 352 574.114> 384 64<0 288 352 574.114>
LayerCount: 2
Fore
SplineSet
64 560 m 2
 64 604 100 640 144 640 c 2
 368 640 l 2
 412 640 448 604 448 560 c 2
 448 0 l 1
 384 0 l 1
 384 288 l 1
 128 288 l 1
 128 0 l 1
 64 0 l 1
 64 560 l 2
384 544 m 2
 384 562 370 576 352 576 c 2
 160 576 l 2
 142 576 128 562 128 544 c 2
 128 352 l 1
 384 352 l 1
 384 544 l 2
EndSplineSet
Validated: 1
EndChar

StartChar: LATIN
Encoding: 66 66 35
Width: 512
GlyphClass: 1
Flags: W
HStem: 0 64<128 382.155> 320 64<128 382.561> 576 64<128 382.155>
VStem: 64 64<64 320 384 576> 384 64<65.8446 318.527 385.473 574.155>
LayerCount: 2
Fore
SplineSet
448 80 m 1
 448 35.83984375 412.16015625 0 368 0 c 1
 64 0 l 1
 64 640 l 1
 368 640 l 1
 412.16015625 640 448 604.16015625 448 560 c 1
 448 416 l 1
 448 389.50390625 426.49609375 368 400 368 c 1
 384 368 l 1
 384 336 l 1
 400 336 l 1
 426.49609375 336 448 314.49609375 448 288 c 1
 448 80 l 1
352 64 m 1
 369.6640625 64 384 78.3359375 384 96 c 1
 384 288 l 1
 384 305.6640625 369.6640625 320 352 320 c 1
 128 320 l 1
 128 64 l 1
 352 64 l 1
352 384 m 1
 369.6640625 384 384 398.3359375 384 416 c 1
 384 544 l 1
 384 561.6640625 369.6640625 576 352 576 c 1
 128 576 l 1
 128 384 l 1
 352 384 l 1
EndSplineSet
Validated: 1
EndChar

StartChar: LATIN
Encoding: 67 67 36
Width: 512
GlyphClass: 1
Flags: W
HStem: 0 64<129.845 448> 576 64<129.845 448>
VStem: 64 64<65.8446 574.155>
LayerCount: 2
Fore
SplineSet
64 560 m 5
 64 604.16015625 99.83984375 640 144 640 c 5
 448 640 l 1
 448 576 l 1
 160 576 l 1
 142.3359375 576 128 561.6640625 128 544 c 1
 128 96 l 1
 128 78.3359375 142.3359375 64 160 64 c 1
 448 64 l 1
 448 0 l 1
 144 0 l 1
 99.83984375 0 64 35.83984375 64 80 c 1
 64 560 l 5
EndSplineSet
Validated: 1
EndChar

StartChar: LATIN
Encoding: 68 68 37
Width: 512
GlyphClass: 1
Flags: W
HStem: 0 64<128 382.155> 576 64<128 382.155>
VStem: 64 64<64 576> 384 64<65.8446 574.155>
LayerCount: 2
Fore
SplineSet
448 80 m 1
 448 35.83984375 412.16015625 0 368 0 c 1
 64 0 l 1
 64 640 l 1
 368 640 l 1
 412.16015625 640 448 604.16015625 448 560 c 1
 448 80 l 1
352 64 m 1
 369.6640625 64 384 78.3359375 384 96 c 1
 384 544 l 1
 384 561.6640625 369.6640625 576 352 576 c 1
 128 576 l 1
 128 64 l 1
 352 64 l 1
EndSplineSet
Validated: 1
EndChar

StartChar: LATIN
Encoding: 69 69 38
Width: 512
GlyphClass: 1
Flags: W
HStem: 0 64<129.845 448> 288 64<128 352> 576 64<129.845 448>
VStem: 64 64<65.8446 288 352 574.155>
CounterMasks: 1 e0
LayerCount: 2
Fore
SplineSet
144 0 m 5
 99.83984375 0 64 35.83984375 64 80 c 5
 64 560 l 1
 64 604.16015625 99.83984375 640 144 640 c 1
 448 640 l 1
 448 576 l 1
 160 576 l 1
 142.3359375 576 128 561.6640625 128 544 c 1
 128 352 l 1
 352 352 l 1
 352 288 l 1
 128 288 l 1
 128 96 l 1
 128 78.3359375 142.3359375 64 160 64 c 1
 448 64 l 1
 448 0 l 1
 144 0 l 5
EndSplineSet
Validated: 1
EndChar

StartChar: LATIN
Encoding: 70 70 39
Width: 512
GlyphClass: 1
Flags: W
HStem: 0 21G<64 128> 288 64<128 352> 576 64<129.845 448>
VStem: 64 64<0 288 352 574.155>
LayerCount: 2
Fore
SplineSet
64 560 m 5
 64 604.16015625 99.83984375 640 144 640 c 5
 448 640 l 1
 448 576 l 1
 160 576 l 1
 142.3359375 576 128 561.6640625 128 544 c 1
 128 352 l 1
 352 352 l 1
 352 288 l 1
 128 288 l 1
 128 0 l 1
 64 0 l 1
 64 560 l 5
EndSplineSet
Validated: 1
EndChar

StartChar: LATIN
Encoding: 71 71 40
Width: 512
GlyphClass: 1
Flags: W
HStem: 0 64<129.845 384> 288 64<256 384> 576 64<129.845 448>
VStem: 64 64<65.8446 574.155> 384 64<64 288>
CounterMasks: 1 e0
LayerCount: 2
Fore
SplineSet
144 0 m 5
 99.83984375 0 64 35.83984375 64 80 c 5
 64 560 l 1
 64 604.16015625 99.83984375 640 144 640 c 1
 448 640 l 1
 448 576 l 1
 160 576 l 1
 142.3359375 576 128 561.6640625 128 544 c 1
 128 96 l 1
 128 78.3359375 142.3359375 64 160 64 c 1
 384 64 l 1
 384 288 l 1
 256 288 l 1
 256 352 l 1
 448 352 l 1
 448 0 l 1
 144 0 l 5
EndSplineSet
Validated: 1
EndChar

StartChar: LATIN
Encoding: 72 72 41
Width: 512
GlyphClass: 1
Flags: W
HStem: 0 21G<64 128 384 448> 288 64<128 384> 620 20G<64 128 384 448>
VStem: 64 64<0 288 352 640> 384 64<0 288 352 640>
LayerCount: 2
Fore
SplineSet
384 0 m 1
 384 288 l 1
 128 288 l 1
 128 0 l 1
 64 0 l 1
 64 640 l 1
 128 640 l 1
 128 352 l 1
 384 352 l 1
 384 640 l 1
 448 640 l 1
 448 0 l 1
 384 0 l 1
EndSplineSet
Validated: 1
EndChar

StartChar: LATIN
Encoding: 73 73 42
Width: 512
GlyphClass: 1
Flags: W
HStem: 0 64<96 224 288 416> 576 64<96 224 288 416>
VStem: 224 64<64 576>
LayerCount: 2
Fore
SplineSet
96 0 m 1
 96 64 l 1
 224 64 l 1
 224 576 l 1
 96 576 l 1
 96 640 l 1
 416 640 l 1
 416 576 l 1
 288 576 l 1
 288 64 l 1
 416 64 l 1
 416 0 l 1
 96 0 l 1
EndSplineSet
Validated: 1
EndChar

StartChar: LATIN
Encoding: 74 74 43
Width: 512
GlyphClass: 1
Flags: W
HStem: 0 64<32 222.155> 576 64<96 224 288 416>
VStem: 224 64<65.8446 576>
LayerCount: 2
Fore
SplineSet
288 80 m 5
 288 35.83984375 252.16015625 0 208 0 c 5
 32 0 l 1
 32 64 l 1
 192 64 l 1
 209.6640625 64 224 78.3359375 224 96 c 1
 224 576 l 1
 96 576 l 1
 96 640 l 1
 416 640 l 1
 416 576 l 1
 288 576 l 1
 288 80 l 5
EndSplineSet
Validated: 1
EndChar

StartChar: LATIN
Encoding: 75 75 44
Width: 512
GlyphClass: 1
Flags: W
HStem: 0 21G<64 128 384 448> 288 64<128 304> 620 20G<64 128 384 448>
VStem: 64 64<0 288 352 640> 384 64<0 208 432 640>
LayerCount: 2
Fore
SplineSet
368 304 m 5
 448 224 l 5
 448 0 l 5
 384 0 l 5
 384 208 l 5
 304 288 l 5
 128 288 l 1
 128 0 l 1
 64 0 l 1
 64 640 l 1
 128 640 l 1
 128 352 l 1
 304 352 l 1
 384 432 l 1
 384 640 l 1
 448 640 l 1
 448 416 l 1
 368 336 l 1
 368 304 l 5
EndSplineSet
Validated: 1
EndChar

StartChar: LATIN
Encoding: 76 76 45
Width: 512
GlyphClass: 1
Flags: W
HStem: 0 64<129.845 448> 620 20G<64 128>
VStem: 64 64<65.8446 640>
LayerCount: 2
Fore
SplineSet
144 0 m 1
 99.83984375 0 64 35.83984375 64 80 c 1
 64 640 l 1
 128 640 l 1
 128 96 l 1
 128 78.3359375 142.3359375 64 160 64 c 1
 448 64 l 1
 448 0 l 1
 144 0 l 1
EndSplineSet
Validated: 1
EndChar

StartChar: LATIN
Encoding: 77 77 46
Width: 512
GlyphClass: 1
Flags: W
HStem: 0 21G<64 128 384 448> 620 20G<64 142.817 373.725 448>
VStem: 64 64<0 528> 384 64<0 528>
LayerCount: 2
Fore
SplineSet
240 296 m 1
 128 528 l 1
 128 0 l 1
 64 0 l 1
 64 640 l 1
 133 640 l 1
 240 422 l 5
 272 422 l 5
 384 640 l 1
 448 640 l 1
 448 0 l 1
 384 0 l 1
 384 528 l 1
 272 296 l 1
 240 296 l 1
EndSplineSet
Validated: 1
EndChar

StartChar: LATIN
Encoding: 78 78 47
Width: 512
GlyphClass: 1
Flags: W
HStem: 0 21G<64 128 374.303 448> 620 20G<64 142.508 384 448>
VStem: 64 64<0 528> 384 64<112 640>
LayerCount: 2
Fore
SplineSet
128 528 m 1
 128 0 l 1
 64 0 l 1
 64 640 l 1
 133 640 l 1
 384 112 l 1
 384 640 l 1
 448 640 l 1
 448 0 l 1
 384 0 l 1
 128 528 l 1
EndSplineSet
Validated: 1
EndChar

StartChar: LATIN
Encoding: 79 79 48
Width: 512
GlyphClass: 1
Flags: W
HStem: 0 64<129.845 382.155> 576 64<129.845 382.155>
VStem: 64 64<65.8446 574.155> 384 64<65.8446 574.155>
LayerCount: 2
Fore
SplineSet
64 560 m 1
 64 604.16015625 99.83984375 640 144 640 c 1
 368 640 l 1
 412.16015625 640 448 604.16015625 448 560 c 1
 448 80 l 1
 448 35.83984375 412.16015625 0 368 0 c 1
 144 0 l 1
 99.83984375 0 64 35.83984375 64 80 c 1
 64 560 l 1
128 96 m 1
 128 78.3359375 142.3359375 64 160 64 c 1
 352 64 l 1
 369.6640625 64 384 78.3359375 384 96 c 1
 384 544 l 1
 384 561.6640625 369.6640625 576 352 576 c 1
 160 576 l 1
 142.3359375 576 128 561.6640625 128 544 c 1
 128 96 l 1
EndSplineSet
Validated: 1
EndChar

StartChar: LATIN
Encoding: 80 80 49
Width: 512
GlyphClass: 1
Flags: W
HStem: 0 21G<64 128> 288 64<128 382.155> 576 64<128 382.155>
VStem: 64 64<0 288 352 576> 384 64<353.845 574.155>
LayerCount: 2
Fore
SplineSet
448 368 m 1
 448 323.83984375 412.16015625 288 368 288 c 1
 128 288 l 1
 128 0 l 1
 64 0 l 1
 64 640 l 1
 368 640 l 1
 412.16015625 640 448 604.16015625 448 560 c 1
 448 368 l 1
352 352 m 1
 369.6640625 352 384 366.3359375 384 384 c 1
 384 544 l 1
 384 561.6640625 369.6640625 576 352 576 c 1
 128 576 l 1
 128 352 l 1
 352 352 l 1
EndSplineSet
Validated: 1
EndChar

StartChar: LATIN
Encoding: 81 81 50
Width: 512
GlyphClass: 1
Flags: W
HStem: 0 64<129.845 256> 16 48<368 382.561> 576 64<129.845 382.155>
VStem: 64 64<65.8446 574.155> 384 64<65.5521 574.155>
LayerCount: 2
Fore
SplineSet
368 640 m 1xb8
 412.16015625 640 448 604.16015625 448 560 c 1
 448 80 l 1
 448 44.671875 426.49609375 16 400 16 c 1
 368 16 l 1x78
 416 -64 l 1
 416 -128 l 1
 352 -128 l 1
 289 0 l 1
 144 0 l 1
 99.83984375 0 64 35.83984375 64 80 c 1
 64 560 l 1
 64 604.16015625 99.83984375 640 144 640 c 1
 368 640 l 1xb8
288 192 m 1
 352 64 l 1x78
 369.6640625 64 384 78.3359375 384 96 c 1
 384 544 l 1
 384 561.6640625 369.6640625 576 352 576 c 1
 160 576 l 1
 142.3359375 576 128 561.6640625 128 544 c 1
 128 96 l 1
 128 78.3359375 142.3359375 64 160 64 c 1
 256 64 l 1xb8
 224 128 l 1
 224 192 l 1
 288 192 l 1
EndSplineSet
Validated: 1
EndChar

StartChar: LATIN
Encoding: 82 82 51
Width: 512
GlyphClass: 1
Flags: W
HStem: 0 21G<64 128 384 448> 288 64<128 304> 576 64<128 382.155>
VStem: 64 64<0 288 352 576> 384 64<0 208 353.347 574.155>
LayerCount: 2
Fore
SplineSet
384 288 m 1
 448 224 l 1
 448 0 l 1
 384 0 l 1
 384 208 l 1
 304 288 l 1
 128 288 l 1
 128 0 l 1
 64 0 l 1
 64 640 l 1
 368 640 l 1
 412.16015625 640 448 604.16015625 448 560 c 1
 448 368 l 1
 444.110001506 327.639793804 418.871559524 297.073577711 384 288 c 1
384 544 m 1
 384 561.6640625 369.6640625 576 352 576 c 1
 128 576 l 1
 128 352 l 1
 352 351 l 1
 369.6640625 351 384 368.3359375 384 386 c 1
 384 544 l 1
EndSplineSet
Validated: 1
EndChar

StartChar: LATIN
Encoding: 83 83 52
Width: 512
GlyphClass: 1
Flags: W
HStem: 0 64<64 382.155> 288 64<129.845 382.155> 576 64<129.845 448>
VStem: 64 64<353.845 574.155> 384 64<65.8446 286.155>
CounterMasks: 1 e0
LayerCount: 2
Fore
SplineSet
448 80 m 5
 448 35.83984375 412.16015625 0 368 0 c 5
 64 0 l 1
 64 64 l 1
 352 64 l 1
 369.6640625 64 384 78.3359375 384 96 c 1
 384 256 l 1
 384 273.6640625 369.6640625 288 352 288 c 1
 144 288 l 1
 99.83984375 288 64 323.83984375 64 368 c 1
 64 560 l 1
 64 604.16015625 99.83984375 640 144 640 c 1
 448 640 l 1
 448 576 l 1
 160 576 l 1
 142.3359375 576 128 561.6640625 128 544 c 1
 128 384 l 1
 128 366.3359375 142.3359375 352 160 352 c 1
 368 352 l 1
 412.16015625 352 448 316.16015625 448 272 c 1
 448 80 l 5
EndSplineSet
Validated: 1
EndChar

StartChar: LATIN
Encoding: 84 84 53
Width: 512
GlyphClass: 1
Flags: W
HStem: 0 21G<224 288> 576 64<32 224 288 480>
VStem: 224 64<0 576>
LayerCount: 2
Fore
SplineSet
224 0 m 1
 224 576 l 1
 32 576 l 1
 32 640 l 1
 480 640 l 1
 480 576 l 1
 288 576 l 1
 288 0 l 1
 224 0 l 1
EndSplineSet
Validated: 1
EndChar

StartChar: LATIN
Encoding: 85 85 54
Width: 512
GlyphClass: 1
Flags: W
HStem: 0 64<129.845 384> 620 20G<64 128 384 448>
VStem: 64 64<65.8446 640> 384 64<64 640>
LayerCount: 2
Fore
SplineSet
144 0 m 1
 99.83984375 0 64 35.83984375 64 80 c 1
 64 640 l 1
 128 640 l 1
 128 96 l 1
 128 78.3359375 142.3359375 64 160 64 c 1
 384 64 l 1
 384 640 l 1
 448 640 l 1
 448 0 l 1
 144 0 l 1
EndSplineSet
Validated: 1
EndChar

StartChar: LATIN
Encoding: 86 86 55
Width: 512
GlyphClass: 1
Flags: W
HStem: 0 80<240 272> 620 20G<64 128 384 448>
VStem: 64 64<192 640> 384 64<192 640>
LayerCount: 2
Fore
SplineSet
224 0 m 5
 64 160 l 5
 64 640 l 1
 128 640 l 1
 128 192 l 1
 240 80 l 1
 272 80 l 1
 384 192 l 1
 384 640 l 1
 448 640 l 1
 448 160 l 1
 288 0 l 1
 224 0 l 5
EndSplineSet
Validated: 1
EndChar

StartChar: LATIN
Encoding: 87 87 56
Width: 512
GlyphClass: 1
Flags: W
HStem: 0 21G<64 142.817 373.725 448> 620 20G<64 128 384 448>
VStem: 64 64<112 640> 384 64<112 640>
LayerCount: 2
Fore
SplineSet
240 344 m 1
 272 344 l 1
 384 112 l 1
 384 640 l 1
 448 640 l 1
 448 0 l 1
 384 0 l 1
 272 218 l 5
 240 218 l 5
 133 0 l 1
 64 0 l 1
 64 640 l 1
 128 640 l 1
 128 112 l 1
 240 344 l 1
EndSplineSet
Validated: 1
EndChar

StartChar: LATIN
Encoding: 88 88 57
Width: 512
GlyphClass: 1
Flags: W
HStem: 0 21G<64 128 384 448> 288 64<208 304> 620 20G<64 128 384 448>
VStem: 64 64<0 208 432 640> 384 64<0 208 432 640>
LayerCount: 2
Fore
SplineSet
208 288 m 1
 128 208 l 1
 128 0 l 1
 64 0 l 1
 64 240 l 1
 144 304 l 1
 144 336 l 1
 64 400 l 1
 64 640 l 1
 128 640 l 1
 128 432 l 1
 208 352 l 1
 304 352 l 1
 384 432 l 1
 384 640 l 1
 448 640 l 1
 448 400 l 1
 368 336 l 1
 368 304 l 1
 448 240 l 1
 448 0 l 1
 384 0 l 1
 384 208 l 1
 304 288 l 1
 208 288 l 1
EndSplineSet
Validated: 1
EndChar

StartChar: LATIN
Encoding: 89 89 58
Width: 512
GlyphClass: 1
Flags: W
HStem: 0 64<64 382.155> 288 64<129.845 384> 620 20G<64 128 384 448>
VStem: 64 64<353.845 640> 384 64<65.8446 288 352 640>
LayerCount: 2
Fore
SplineSet
448 80 m 5
 448 35.83984375 412.16015625 0 368 0 c 5
 64 0 l 1
 64 64 l 1
 352 64 l 1
 369.6640625 64 384 78.3359375 384 96 c 1
 384 288 l 1
 144 288 l 1
 99.83984375 288 64 323.83984375 64 368 c 1
 64 640 l 1
 128 640 l 1
 128 384 l 1
 128 366.3359375 142.3359375 352 160 352 c 1
 384 352 l 1
 384 640 l 1
 448 640 l 1
 448 80 l 5
EndSplineSet
Validated: 1
EndChar

StartChar: LATIN
Encoding: 90 90 59
Width: 512
GlyphClass: 1
Flags: W
HStem: 0 64<128 448> 576 64<64 384>
VStem: 64 64<64 144> 384 64<464 576>
LayerCount: 2
Fore
SplineSet
64 160 m 5
 384 464 l 5
 384 576 l 1
 64 576 l 1
 64 640 l 1
 448 640 l 1
 448 448 l 1
 128 144 l 1
 128 64 l 1
 448 64 l 1
 448 0 l 1
 64 0 l 1
 64 160 l 5
EndSplineSet
Validated: 1
EndChar

StartChar: LEFT
Encoding: 91 91 60
Width: 512
GlyphClass: 1
Flags: W
HStem: -128 64<192 448> 704 64<192 448>
VStem: 128 64<-64 704>
LayerCount: 2
Fore
SplineSet
128 -128 m 1
 128 768 l 1
 448 768 l 1
 448 704 l 1
 192 704 l 1
 192 -64 l 1
 448 -64 l 1
 448 -128 l 1
 128 -128 l 1
EndSplineSet
Validated: 1
EndChar

StartChar: REVERSE
Encoding: 92 92 61
Width: 512
GlyphClass: 1
Flags: W
LayerCount: 2
Fore
SplineSet
96 736 m 5
 480 -32 l 5
 480 -96 l 1
 416 -96 l 1
 32 672 l 1
 32 736 l 1
 96 736 l 5
EndSplineSet
Validated: 1
EndChar

StartChar: RIGHT
Encoding: 93 93 62
Width: 512
GlyphClass: 1
Flags: W
HStem: -128 64<64 320> 704 64<64 320>
VStem: 320 64<-64 704>
LayerCount: 2
Fore
SplineSet
64 -128 m 1
 64 -64 l 1
 320 -64 l 1
 320 704 l 1
 64 704 l 1
 64 768 l 1
 384 768 l 1
 384 -128 l 1
 64 -128 l 1
EndSplineSet
Validated: 1
EndChar

StartChar: CIRCUMFLEX
Encoding: 94 94 63
Width: 512
GlyphClass: 1
Flags: W
HStem: 448 21G<32 98 414 480> 608 96<224 288>
LayerCount: 2
Fore
SplineSet
32 512 m 5
 224 704 l 5
 288 704 l 1
 480 512 l 1
 480 448 l 1
 432 448 l 1
 288 608 l 1
 224 608 l 1
 80 448 l 1
 32 448 l 1
 32 512 l 5
EndSplineSet
Validated: 1
EndChar

StartChar: LOW
Encoding: 95 95 64
Width: 512
GlyphClass: 1
Flags: W
HStem: -128 64<32 480>
LayerCount: 2
Fore
SplineSet
32 -128 m 1
 32 -64 l 1
 480 -64 l 1
 480 -128 l 1
 32 -128 l 1
EndSplineSet
Validated: 1
EndChar

StartChar: GRAVE
Encoding: 96 96 65
Width: 512
GlyphClass: 1
Flags: W
HStem: 512 192
VStem: 160 192
LayerCount: 2
Fore
SplineSet
208 704 m 5
 352 560 l 5
 352 512 l 5
 288 512 l 5
 160 640 l 5
 160 704 l 5
 208 704 l 5
EndSplineSet
Validated: 1
EndChar

StartChar: LATIN
Encoding: 97 97 66
Width: 512
GlyphClass: 1
Flags: W
HStem: 0 64<129.845 384> 224 64<129.845 384> 384 64<64 382.155>
VStem: 64 64<65.8446 222.155> 384 64<64 224 288 382.155>
LayerCount: 2
Fore
SplineSet
144 0 m 1
 99.83984375 0 64 35.83984375 64 80 c 1
 64 208 l 1
 64 252.16015625 99.83984375 288 144 288 c 1
 384 288 l 1
 384 352 l 1
 384 369.6640625 369.6640625 384 352 384 c 1
 64 384 l 5
 64 448 l 5
 368 448 l 1
 412.16015625 448 448 412.16015625 448 368 c 1
 448 0 l 1
 144 0 l 1
128 96 m 1
 128 78.3359375 142.3359375 64 160 64 c 1
 384 64 l 1
 384 224 l 1
 160 224 l 1
 142.3359375 224 128 209.6640625 128 192 c 1
 128 96 l 1
EndSplineSet
Validated: 1
EndChar

StartChar: LATIN
Encoding: 98 98 67
Width: 512
GlyphClass: 1
Flags: W
HStem: 0 64<128 382.155> 384 64<128 382.155> 620 20G<64 128>
VStem: 64 64<64 384 448 640> 384 64<65.8446 382.155>
LayerCount: 2
Fore
SplineSet
448 80 m 1
 448 35.83984375 412.16015625 0 368 0 c 1
 64 0 l 1
 64 640 l 1
 128 640 l 1
 128 448 l 1
 368 448 l 1
 412.16015625 448 448 412.16015625 448 368 c 1
 448 80 l 1
352 64 m 1
 369.6640625 64 384 78.3359375 384 96 c 1
 384 352 l 1
 384 369.6640625 369.6640625 384 352 384 c 1
 128 384 l 1
 128 64 l 1
 352 64 l 1
EndSplineSet
Validated: 1
EndChar

StartChar: LATIN
Encoding: 99 99 68
Width: 512
GlyphClass: 1
Flags: W
HStem: 0 64<129.845 448> 384 64<129.845 448>
VStem: 64 64<65.8446 382.155>
LayerCount: 2
Fore
SplineSet
64 368 m 5
 64 412.16015625 99.83984375 448 144 448 c 5
 448 448 l 1
 448 384 l 1
 160 384 l 1
 142.3359375 384 128 369.6640625 128 352 c 1
 128 96 l 1
 128 78.3359375 142.3359375 64 160 64 c 1
 448 64 l 1
 448 0 l 1
 144 0 l 1
 99.83984375 0 64 35.83984375 64 80 c 1
 64 368 l 5
EndSplineSet
Validated: 1
EndChar

StartChar: LATIN
Encoding: 100 100 69
Width: 512
GlyphClass: 1
Flags: W
HStem: 0 64<129.845 384> 384 64<129.845 384> 620 20G<384 448>
VStem: 64 64<65.8446 382.155> 384 64<64 384 448 640>
LayerCount: 2
Fore
SplineSet
64 368 m 5
 64 412.16015625 99.83984375 448 144 448 c 5
 384 448 l 1
 384 640 l 1
 448 640 l 1
 448 0 l 1
 144 0 l 1
 99.83984375 0 64 35.83984375 64 80 c 1
 64 368 l 5
128 96 m 1
 128 78.3359375 142.3359375 64 160 64 c 1
 384 64 l 1
 384 384 l 1
 160 384 l 1
 142.3359375 384 128 369.6640625 128 352 c 1
 128 96 l 1
EndSplineSet
Validated: 1
EndChar

StartChar: LATIN
Encoding: 101 101 70
Width: 512
GlyphClass: 1
Flags: W
HStem: 0 64<129.845 448> 192 64<128 384> 384 64<129.845 384>
VStem: 64 64<65.8446 192 256 382.155> 384 64<256 384>
CounterMasks: 1 e0
LayerCount: 2
Fore
SplineSet
144 0 m 1
 99.83984375 0 64 35.83984375 64 80 c 1
 64 368 l 1
 64 412.16015625 99.83984375 448 144 448 c 1
 448 448 l 1
 448 192 l 1
 128 192 l 1
 128 96 l 1
 128 78.3359375 142.3359375 64 160 64 c 1
 448 64 l 1
 448 0 l 1
 144 0 l 1
160 384 m 1
 142.3359375 384 128 369.6640625 128 352 c 1
 128 256 l 1
 384 256 l 1
 384 384 l 1
 160 384 l 1
EndSplineSet
Validated: 1
EndChar

StartChar: LATIN
Encoding: 102 102 71
Width: 512
GlyphClass: 1
Flags: W
HStem: 0 21G<160 224> 320 64<96 160 224 352> 576 64<225.845 416>
VStem: 160 64<0 320 384 574.155>
LayerCount: 2
Fore
SplineSet
160 560 m 5
 160 604.16015625 195.83984375 640 240 640 c 5
 416 640 l 1
 416 576 l 1
 256 576 l 1
 238.3359375 576 224 561.6640625 224 544 c 1
 224 384 l 1
 352 384 l 1
 352 320 l 1
 224 320 l 1
 224 0 l 1
 160 0 l 1
 160 320 l 1
 96 320 l 1
 96 384 l 1
 160 384 l 1
 160 560 l 5
EndSplineSet
Validated: 1
EndChar

StartChar: LATIN
Encoding: 103 103 72
Width: 512
GlyphClass: 1
Flags: W
HStem: -192 64<64 382.155> 0 64<129.845 382.561> 384 64<129.845 384>
VStem: 64 64<65.8446 382.155> 384 64<-126.155 -1.43943 65.4394 384>
LayerCount: 2
Fore
SplineSet
448 -112 m 1
 448 -156.16015625 412.16015625 -192 368 -192 c 1
 64 -192 l 1
 64 -128 l 1
 352 -128 l 1
 369.6640625 -128 384 -113.6640625 384 -96 c 1
 384 -32 l 1
 384 -14.3359375 369.6640625 0 352 0 c 1
 144 0 l 1
 99.83984375 0 64 35.83984375 64 80 c 1
 64 368 l 1
 64 412.16015625 99.83984375 448 144 448 c 1
 448 448 l 1
 448 80 l 1
 448 -112 l 1
352 64 m 1
 369.6640625 64 384 78.3359375 384 96 c 1
 384 384 l 1
 160 384 l 1
 142.3359375 384 128 369.6640625 128 352 c 1
 128 96 l 1
 128 78.3359375 142.3359375 64 160 64 c 1
 352 64 l 1
EndSplineSet
EndChar

StartChar: LATIN
Encoding: 104 104 73
Width: 512
GlyphClass: 1
Flags: W
HStem: 0 21G<64 128 384 448> 384 64<128 382.155> 620 20G<64 128>
VStem: 64 64<0 384 448 640> 384 64<0 382.155>
LayerCount: 2
Fore
SplineSet
368 448 m 5
 412.16015625 448 448 412.16015625 448 368 c 5
 448 0 l 1
 384 0 l 1
 384 352 l 1
 384 369.6640625 369.6640625 384 352 384 c 1
 128 384 l 1
 128 0 l 1
 64 0 l 1
 64 640 l 1
 128 640 l 1
 128 448 l 1
 368 448 l 5
EndSplineSet
Validated: 1
EndChar

StartChar: LATIN
Encoding: 105 105 74
Width: 512
GlyphClass: 1
Flags: W
HStem: 0 21G<224 288> 428 20G<224 288> 544 96<224 288>
VStem: 224 64<0 448 544 640>
LayerCount: 2
Fore
SplineSet
224 0 m 1
 224 448 l 1
 288 448 l 1
 288 0 l 5
 224 0 l 1
224 544 m 1
 224 640 l 1
 288 640 l 1
 288 544 l 1
 224 544 l 1
EndSplineSet
EndChar

StartChar: LATIN
Encoding: 106 106 75
Width: 512
GlyphClass: 1
Flags: W
HStem: -192 64<36 222.155> 428 20G<224 288> 544 96<224 288>
VStem: 224 64<-126.155 448 544 640>
LayerCount: 2
Fore
SplineSet
288 -112 m 1
 288 -156.16015625 252.16015625 -192 208 -192 c 1
 36 -192 l 5
 36 -128 l 5
 192 -128 l 1
 209.6640625 -128 224 -113.6640625 224 -96 c 1
 224 448 l 1
 288 448 l 1
 288 -112 l 1
224 544 m 1
 224 640 l 1
 288 640 l 1
 288 544 l 1
 224 544 l 1
EndSplineSet
EndChar

StartChar: LATIN
Encoding: 107 107 76
Width: 512
GlyphClass: 1
Flags: W
HStem: 0 21G<96 160 381.429 448> 224 64<160 192> 428 20G<318 384> 620 20G<96 160>
VStem: 96 64<0 224 288 640>
LayerCount: 2
Fore
SplineSet
400 0 m 1
 192 224 l 1
 160 224 l 1
 160 0 l 1
 96 0 l 1
 96 640 l 1
 160 640 l 1
 160 288 l 1
 192 288 l 1
 336 448 l 1
 384 448 l 1
 384 400 l 1
 256 288 l 1
 256 224 l 1
 448 48 l 1
 448 0 l 1
 400 0 l 1
EndSplineSet
Validated: 1
EndChar

StartChar: LATIN
Encoding: 108 108 77
Width: 512
GlyphClass: 1
Flags: W
HStem: 0 64<225.845 416> 620 20G<160 224>
VStem: 160 64<65.8446 640>
LayerCount: 2
Fore
SplineSet
240 0 m 5
 195.83984375 0 160 35.83984375 160 80 c 5
 160 640 l 1
 224 640 l 1
 224 96 l 1
 224 78.3359375 238.3359375 64 256 64 c 1
 416 64 l 1
 416 0 l 1
 240 0 l 5
EndSplineSet
Validated: 1
EndChar

StartChar: LATIN
Encoding: 109 109 78
Width: 512
GlyphClass: 1
Flags: W
HStem: 0 21G<64 128 384 448> 384 64<128 221.865 288.258 382.155>
VStem: 64 64<0 384> 222 66<192 384> 384 64<0 382.155>
LayerCount: 2
Fore
SplineSet
352 384 m 1
 288.2578125 384 l 1
 288 192 l 5
 222 192 l 5
 221.865234375 384 l 1
 128 384 l 1
 128 0 l 1
 64 0 l 1
 64 448 l 1
 368 448 l 1
 412.16015625 448 448 412.16015625 448 368 c 1
 448 0 l 1
 384 0 l 1
 384 352 l 1
 384 369.6640625 369.6640625 384 352 384 c 1
EndSplineSet
EndChar

StartChar: LATIN
Encoding: 110 110 79
Width: 512
GlyphClass: 1
Flags: W
HStem: 0 21G<64 128 384 448> 384 64<128 382.155>
VStem: 64 64<0 384> 384 64<0 382.155>
LayerCount: 2
Fore
SplineSet
368 448 m 5
 412.16015625 448 448 412.16015625 448 368 c 5
 448 0 l 1
 384 0 l 1
 384 352 l 1
 384 369.6640625 369.6640625 384 352 384 c 1
 128 384 l 1
 128 0 l 1
 64 0 l 1
 64 448 l 1
 368 448 l 5
EndSplineSet
Validated: 1
EndChar

StartChar: LATIN
Encoding: 111 111 80
Width: 512
GlyphClass: 1
Flags: W
HStem: 0 64<129.845 382.155> 384 64<129.845 382.155>
VStem: 64 64<65.8446 382.155> 384 64<65.8446 382.155>
LayerCount: 2
Fore
SplineSet
64 368 m 5
 64 412.16015625 99.83984375 448 144 448 c 5
 368 448 l 1
 412.16015625 448 448 412.16015625 448 368 c 1
 448 80 l 1
 448 35.83984375 412.16015625 0 368 0 c 1
 144 0 l 1
 99.83984375 0 64 35.83984375 64 80 c 1
 64 368 l 5
352 64 m 1
 369.6640625 64 384 78.3359375 384 96 c 1
 384 352 l 1
 384 369.6640625 369.6640625 384 352 384 c 1
 160 384 l 1
 142.3359375 384 128 369.6640625 128 352 c 1
 128 96 l 1
 128 78.3359375 142.3359375 64 160 64 c 1
 352 64 l 1
EndSplineSet
Validated: 1
EndChar

StartChar: LATIN
Encoding: 112 112 81
Width: 512
GlyphClass: 1
Flags: W
HStem: -192 21G<64 128> 0 64<128 382.155> 384 64<128 382.155>
VStem: 64 64<-192 0 64 384> 384 64<65.8446 382.155>
LayerCount: 2
Fore
SplineSet
448 80 m 1
 448 35.83984375 412.16015625 0 368 0 c 1
 128 0 l 1
 128 -192 l 1
 64 -192 l 1
 64 448 l 1
 368 448 l 1
 412.16015625 448 448 412.16015625 448 368 c 1
 448 80 l 1
352 64 m 1
 369.6640625 64 384 78.3359375 384 96 c 1
 384 352 l 1
 384 369.6640625 369.6640625 384 352 384 c 1
 128 384 l 1
 128 64 l 1
 352 64 l 1
EndSplineSet
Validated: 1
EndChar

StartChar: LATIN
Encoding: 113 113 82
Width: 512
GlyphClass: 1
Flags: W
HStem: -192 21G<384 448> 0 64<129.845 384> 384 64<129.845 384>
VStem: 64 64<65.8446 382.155> 384 64<-192 0 64 384>
LayerCount: 2
Fore
SplineSet
64 80 m 1
 64 368 l 1
 64 412.16015625 99.83984375 448 144 448 c 1
 448 448 l 1
 448 -192 l 1
 384 -192 l 1
 384 0 l 1
 144 0 l 1
 99.83984375 0 64 35.83984375 64 80 c 1
160 64 m 1
 384 64 l 1
 384 384 l 1
 160 384 l 1
 142.3359375 384 128 369.6640625 128 352 c 1
 128 96 l 1
 128 78.3359375 142.3359375 64 160 64 c 1
EndSplineSet
Validated: 1
EndChar

StartChar: LATIN
Encoding: 114 114 83
Width: 512
GlyphClass: 1
Flags: W
HStem: 0 21G<64 128> 384 64<129.845 448>
VStem: 64 64<0 382.155>
LayerCount: 2
Fore
SplineSet
448 384 m 5
 160 384 l 1
 142.3359375 384 128 369.6640625 128 352 c 1
 128 0 l 1
 64 0 l 1
 64 368 l 1
 64 412.16015625 99.83984375 448 144 448 c 1
 448 448 l 1
 448 384 l 5
EndSplineSet
Validated: 1
EndChar

StartChar: LATIN
Encoding: 115 115 84
Width: 512
GlyphClass: 1
Flags: W
HStem: 0 64<64 382.155> 192 64<129.845 382.155> 384 64<129.845 448>
VStem: 64 64<257.845 382.155> 384 64<65.8446 190.155>
CounterMasks: 1 e0
LayerCount: 2
Fore
SplineSet
160 384 m 1
 142.3359375 384 128 369.6640625 128 352 c 1
 128 288 l 1
 128 270.3359375 142.3359375 256 160 256 c 1
 368 256 l 1
 412.16015625 256 448 220.16015625 448 176 c 1
 448 80 l 1
 448 35.83984375 412.16015625 0 368 0 c 1
 64 0 l 1
 64 64 l 1
 352 64 l 1
 369.6640625 64 384 78.3359375 384 96 c 1
 384 160 l 1
 384 177.6640625 369.6640625 192 352 192 c 1
 144 192 l 1
 99.83984375 192 64 227.83984375 64 272 c 1
 64 368 l 1
 64 412.16015625 99.83984375 448 144 448 c 1
 448 448 l 1
 448 384 l 1
 160 384 l 1
EndSplineSet
Validated: 1
EndChar

StartChar: LATIN
Encoding: 116 116 85
Width: 512
GlyphClass: 1
Flags: W
HStem: 0 64<225.845 416> 384 64<96 160 224 352> 620 20G<160 224>
VStem: 160 64<65.8446 384 448 640>
LayerCount: 2
Fore
SplineSet
240 0 m 5
 195.83984375 0 160 35.83984375 160 80 c 5
 160 384 l 1
 96 384 l 1
 96 448 l 1
 160 448 l 1
 160 640 l 1
 224 640 l 1
 224 448 l 1
 352 448 l 1
 352 384 l 1
 224 384 l 1
 224 96 l 1
 224 78.3359375 238.3359375 64 256 64 c 1
 416 64 l 1
 416 0 l 1
 240 0 l 5
EndSplineSet
Validated: 1
EndChar

StartChar: LATIN
Encoding: 117 117 86
Width: 512
GlyphClass: 1
Flags: W
HStem: 0 64<129.439 384> 428 20G<64 128 384 448>
VStem: 64 64<65.4394 448> 384 64<64 448>
LayerCount: 2
Fore
SplineSet
128 0 m 1
 92.671875 0 64 28.671875 64 64 c 1
 64 448 l 1
 128 448 l 1
 128 96 l 1
 128 78.3359375 142.3359375 64 160 64 c 1
 384 64 l 1
 384 448 l 1
 448 448 l 1
 448 0 l 1
 128 0 l 1
EndSplineSet
Validated: 1
EndChar

StartChar: LATIN
Encoding: 118 118 87
Width: 512
GlyphClass: 1
Flags: W
HStem: 0 64<240 272> 428 20G<64 128 384 448>
VStem: 64 64<176 448> 384 64<176 448>
LayerCount: 2
Fore
SplineSet
224 0 m 5
 64 160 l 5
 64 448 l 1
 128 448 l 1
 128 176 l 1
 240 64 l 1
 272 64 l 1
 384 176 l 1
 384 448 l 1
 448 448 l 1
 448 160 l 1
 288 0 l 1
 224 0 l 5
EndSplineSet
Validated: 1
EndChar

StartChar: LATIN
Encoding: 119 119 88
Width: 512
GlyphClass: 1
Flags: W
HStem: 0 64<129.845 223.742 290.135 384> 428 20G<64 128 384 448>
VStem: 64 64<65.8446 448> 223.742 66.3926<64 256> 384 64<64 448>
LayerCount: 2
Fore
SplineSet
160 64 m 1
 223.7421875 64 l 1
 224 256 l 5
 290 256 l 5
 290.134765625 64 l 1
 384 64 l 1
 384 448 l 1
 448 448 l 1
 448 0 l 1
 144 0 l 1
 99.83984375 0 64 35.83984375 64 80 c 1
 64 448 l 1
 128 448 l 1
 128 96 l 1
 128 78.3359375 142.3359375 64 160 64 c 1
EndSplineSet
EndChar

StartChar: LATIN
Encoding: 120 120 89
Width: 512
GlyphClass: 1
Flags: W
HStem: 0 21G<64 128 384 448> 208 74<240 272> 428 20G<64 128 384 448>
VStem: 64 64<0 95 400 448> 384 64<0 96 400 448>
LayerCount: 2
Fore
SplineSet
128 400 m 1
 240 282 l 5
 272 282 l 5
 384 400 l 1
 384 448 l 1
 448 448 l 1
 448 384 l 1
 340 262 l 1
 340 230 l 1
 448 96 l 1
 448 0 l 1
 384 0 l 1
 384 96 l 1
 272 208 l 1
 240 208 l 1
 128 95 l 1
 128 0 l 1
 64 0 l 1
 64 96 l 1
 172 230 l 1
 172 262 l 1
 64 384 l 1
 64 448 l 1
 128 448 l 1
 128 400 l 1
EndSplineSet
EndChar

StartChar: LATIN
Encoding: 121 121 90
Width: 512
GlyphClass: 1
Flags: W
HStem: -192 64<64 382.155> 0 64<129.845 384> 428 20G<64 128 384 448>
VStem: 64 64<65.8446 448> 384 64<-126.155 0 64 448>
LayerCount: 2
Fore
SplineSet
448 -112 m 5
 448 -156.16015625 412.16015625 -192 368 -192 c 5
 64 -192 l 1
 64 -128 l 1
 352 -128 l 1
 369.6640625 -128 384 -113.6640625 384 -96 c 1
 384 0 l 1
 144 0 l 1
 99.83984375 0 64 35.83984375 64 80 c 1
 64 448 l 1
 128 448 l 1
 128 96 l 1
 128 78.3359375 142.3359375 64 160 64 c 1
 384 64 l 1
 384 448 l 1
 448 448 l 1
 448 -112 l 5
EndSplineSet
Validated: 1
EndChar

StartChar: LATIN
Encoding: 122 122 91
Width: 512
GlyphClass: 1
Flags: W
HStem: 0 64<160 448> 384 64<64 384>
LayerCount: 2
Fore
SplineSet
448 352 m 1
 160 64 l 1
 448 64 l 1
 448 0 l 1
 64 0 l 1
 64 64 l 1
 384 384 l 1
 64 384 l 1
 64 448 l 1
 448 448 l 1
 448 352 l 1
EndSplineSet
Validated: 1
EndChar

StartChar: LEFT
Encoding: 123 123 92
Width: 512
GlyphClass: 1
Flags: W
HStem: -128 64<257.845 448> 256 128<64 184.435> 704 64<257.845 448>
VStem: 64 128<288 352> 192 64<-62.1554 248.435 391.565 702.155>
CounterMasks: 1 e0
LayerCount: 2
Fore
SplineSet
192 688 m 1xe8
 192 732.16015625 227.83984375 768 272 768 c 1
 448 768 l 1
 448 704 l 1
 288 704 l 1
 270.3359375 704 256 689.6640625 256 672 c 1
 256 400 l 1xe8
 256 373.50390625 234.49609375 352 208 352 c 1
 192 352 l 1
 192 288 l 1xf0
 208 288 l 1
 234.49609375 288 256 266.49609375 256 240 c 1
 256 -32 l 1
 256 -49.6640625 270.3359375 -64 288 -64 c 1
 448 -64 l 1
 448 -128 l 1
 272 -128 l 1
 227.83984375 -128 192 -92.16015625 192 -48 c 1
 192 208 l 1xe8
 192 234.49609375 170.49609375 256 144 256 c 1
 64 256 l 1
 64 384 l 1xf0
 144 384 l 1
 170.49609375 384 192 405.50390625 192 432 c 1
 192 688 l 1xe8
EndSplineSet
Validated: 1
EndChar

StartChar: VERTICAL
Encoding: 124 124 93
Width: 512
GlyphClass: 1
Flags: W
VStem: 224 64<-64 704>
LayerCount: 2
Fore
SplineSet
224 -64 m 1
 224 704 l 1
 288 704 l 1
 288 -64 l 1
 224 -64 l 1
EndSplineSet
Validated: 1
EndChar

StartChar: RIGHT
Encoding: 125 125 94
Width: 512
GlyphClass: 1
Flags: W
HStem: -128 64<64 254.155> 256 128<327.565 448> 704 64<64 254.155>
VStem: 256 64<-62.1554 248.435 391.565 702.155> 320 128<288 352>
CounterMasks: 1 e0
LayerCount: 2
Fore
SplineSet
320 688 m 1xf0
 320 432 l 1xf0
 320 405.50390625 341.50390625 384 368 384 c 1
 448 384 l 1
 448 256 l 1xe8
 368 256 l 1
 341.50390625 256 320 234.49609375 320 208 c 1
 320 -48 l 1
 320 -92.16015625 284.16015625 -128 240 -128 c 1
 64 -128 l 1
 64 -64 l 1
 224 -64 l 1
 241.6640625 -64 256 -49.6640625 256 -32 c 1
 256 240 l 1xf0
 256 266.49609375 277.50390625 288 304 288 c 1
 320 288 l 1
 320 352 l 1xe8
 304 352 l 1
 277.50390625 352 256 373.50390625 256 400 c 1
 256 672 l 1
 256 689.6640625 241.6640625 704 224 704 c 1
 64 704 l 1
 64 768 l 1
 240 768 l 1
 284.16015625 768 320 732.16015625 320 688 c 1xf0
EndSplineSet
Validated: 1
EndChar

StartChar: TILDE
Encoding: 126 126 95
Width: 512
GlyphClass: 1
Flags: W
HStem: 224 64<304 382.155> 320 64<129.845 192>
VStem: 64 64<224 318.561> 384 64<289.439 384>
LayerCount: 2
Fore
SplineSet
288 224 m 1
 192 320 l 1
 160 320 l 1
 142.3359375 320 128 305.6640625 128 288 c 1
 128 224 l 1
 64 224 l 1
 64 320 l 1
 64 355.328125 99.83984375 384 144 384 c 1
 208 384 l 25
 304 288 l 25
 352 288 l 1
 369.6640625 288 384 302.3359375 384 320 c 1
 384 384 l 1
 448 384 l 1
 448 288 l 1
 448 252.671875 412.16015625 224 368 224 c 1
 288 224 l 1
EndSplineSet
Validated: 1
EndChar

StartChar: INVERTED
Encoding: 161 161 98
Width: 512
GlyphClass: 1
Flags: W
HStem: 0 21G<224 288> 428 20G<224 288> 576 64<224 288>
VStem: 224 64<0 448 576 640>
LayerCount: 2
Fore
SplineSet
224 0 m 1
 224 448 l 1
 288 448 l 1
 288 0 l 1
 224 0 l 1
224 576 m 1
 224 640 l 1
 288 640 l 1
 288 576 l 1
 224 576 l 1
EndSplineSet
Validated: 1
EndChar

StartChar: CENT
Encoding: 162 162 99
Width: 512
GlyphClass: 1
Flags: W
HStem: 0 64<129.845 256 320 448> 384 64<129.845 256 320 448>
VStem: 64 64<65.8446 382.155> 256 64<-64 0 64 384 448 512>
LayerCount: 2
Fore
SplineSet
144 0 m 5
 99.83984375 0 64 35.83984375 64 80 c 5
 64 368 l 1
 64 412.16015625 99.83984375 448 144 448 c 1
 256 448 l 1
 256 512 l 1
 320 512 l 1
 320 448 l 1
 448 448 l 1
 448 384 l 1
 320 384 l 1
 320 64 l 1
 448 64 l 1
 448 0 l 1
 320 0 l 1
 320 -64 l 1
 256 -64 l 1
 256 0 l 1
 144 0 l 5
128 96 m 1
 128 78.3359375 142.3359375 64 160 64 c 1
 256 64 l 1
 256 384 l 1
 160 384 l 1
 142.3359375 384 128 369.6640625 128 352 c 1
 128 96 l 1
EndSplineSet
Validated: 1
EndChar

StartChar: POUND
Encoding: 163 163 100
Width: 512
GlyphClass: 1
Flags: W
HStem: 0 64<64 96 160 448> 288 64<64 128 192 384> 576 64<193.845 350.155>
VStem: 128 64<128 288 352 574.155> 352 64<512 574.155>
CounterMasks: 1 e0
LayerCount: 2
Fore
SplineSet
96 64 m 1
 128 128 l 1
 128 288 l 1
 64 288 l 1
 64 352 l 1
 128 352 l 1
 128 560 l 1
 128 604.16015625 163.83984375 640 208 640 c 1
 336 640 l 1
 380.16015625 640 416 604.16015625 416 560 c 1
 416 512 l 1
 352 512 l 1
 352 544 l 1
 352 561.6640625 337.6640625 576 320 576 c 1
 224 576 l 1
 206.3359375 576 192 561.6640625 192 544 c 1
 192 352 l 1
 384 352 l 1
 384 288 l 1
 192 288 l 1
 192 128 l 1
 160 64 l 1
 448 64 l 1
 448 0 l 1
 64 0 l 1
 64 64 l 1
 96 64 l 1
EndSplineSet
Validated: 1
EndChar

StartChar: CURRENCY
Encoding: 164 164 101
Width: 512
GlyphClass: 1
Flags: W
HStem: 96 64<144 160 352 368> 96 48<128 144 368 384> 96 32<112 128 384 400> 96 16<96 112 400 416> 144 80<224 240 272 288> 416 80<224 240 272 288> 480 64<144 160 352 368> 496 48<128 144 368 384> 512 32<112 128 384 400> 528 16<96 112 400 416>
VStem: 96 96<96 112 224 240 400 416 528 544> 96 80<240 256 384 400> 96 64<256 384> 320 96<96 112 224 240 400 416 528 544> 336 80<240 256 384 400> 352 64<256 384>
LayerCount: 2
Fore
SplineSet
96 112 m 1x1024
 112 112 l 1x1024
 112 128 l 1
 128 128 l 1x2024
 128 144 l 1
 144 144 l 1x4024
 144 160 l 1
 160 160 l 1
 160 176 l 1x8008
 144 176 l 1
 144 192 l 1
 128 192 l 1
 128 208 l 1
 112 208 l 1
 112 224 l 1
 96 224 l 1
 96 416 l 1
 112 416 l 1x0c20
 112 432 l 1
 128 432 l 1
 128 448 l 1
 144 448 l 1
 144 464 l 1
 160 464 l 1
 160 480 l 1
 144 480 l 1x0208
 144 496 l 1
 128 496 l 1x0108
 128 512 l 1
 112 512 l 1x0088
 112 528 l 1
 96 528 l 1
 96 544 l 1
 192 544 l 1
 192 528 l 1
 208 528 l 1x0060
 208 512 l 1
 224 512 l 1
 224 496 l 1
 240 496 l 1x04a0
 240 480 l 1
 272 480 l 1x0220
 272 496 l 1
 288 496 l 1
 288 512 l 1
 304 512 l 1x04a0
 304 528 l 1
 320 528 l 1
 320 544 l 1
 416 544 l 1
 416 528 l 1
 400 528 l 1x0064
 400 512 l 1
 384 512 l 1x00a4
 384 496 l 1
 368 496 l 1x0124
 368 480 l 1
 352 480 l 1
 352 464 l 1x0201
 368 464 l 1
 368 448 l 1
 384 448 l 1
 384 432 l 1
 400 432 l 1
 400 416 l 1
 416 416 l 1
 416 224 l 1
 400 224 l 1x0c04
 400 208 l 1
 384 208 l 1
 384 192 l 1
 368 192 l 1
 368 176 l 1
 352 176 l 1
 352 160 l 1
 368 160 l 1x8001
 368 144 l 1
 384 144 l 1x4001
 384 128 l 1
 400 128 l 1x2001
 400 112 l 1
 416 112 l 1
 416 96 l 1
 320 96 l 1
 320 112 l 1
 304 112 l 1x1004
 304 128 l 1
 288 128 l 1
 288 144 l 1
 272 144 l 1x2804
 272 160 l 1
 240 160 l 1x8004
 240 144 l 1
 224 144 l 1
 224 128 l 1
 208 128 l 1x2804
 208 112 l 1
 192 112 l 1
 192 96 l 1
 96 96 l 1
 96 112 l 1x1024
192 224 m 1x0c20
 320 224 l 1
 320 240 l 1x0c24
 336 240 l 1
 336 256 l 1x0c02
 352 256 l 1
 352 384 l 1x0c01
 336 384 l 1
 336 400 l 1x0c02
 320 400 l 1
 320 416 l 1
 192 416 l 1
 192 400 l 1x0c24
 176 400 l 1
 176 384 l 1x0c10
 160 384 l 1
 160 256 l 1x0c08
 176 256 l 1
 176 240 l 1x0c10
 192 240 l 1
 192 224 l 1x0c20
EndSplineSet
Validated: 1
EndChar

StartChar: YEN
Encoding: 165 165 102
Width: 512
GlyphClass: 1
Flags: W
HStem: 0 21G<224 288> 64 64<96 224 288 416> 192 64<96 224 288 416> 620 20G<64 136.75 375.25 448>
VStem: 224 64<0 64 128 192 256 320>
LayerCount: 2
Fore
SplineSet
288 320 m 5
 288 256 l 1
 416 256 l 1
 416 192 l 1
 288 192 l 1
 288 128 l 1
 416 128 l 1
 416 64 l 1
 288 64 l 1
 288 0 l 1
 224 0 l 1
 224 64 l 1
 96 64 l 1
 96 128 l 1
 224 128 l 1
 224 192 l 1
 96 192 l 1
 96 256 l 1
 224 256 l 1
 224 320 l 1
 64 608 l 1
 64 640 l 1
 128 640 l 1
 240 384 l 1
 272 384 l 1
 384 640 l 1
 448 640 l 1
 448 608 l 5
 288 320 l 5
EndSplineSet
Validated: 1
EndChar

StartChar: BROKEN
Encoding: 166 166 103
Width: 512
GlyphClass: 1
Flags: W
VStem: 224 64<-64 256 384 704>
LayerCount: 2
Fore
SplineSet
272 -64 m 1
 256 -64 l 1
 240 -64 l 1
 224 -64 l 1
 224 -48 l 1
 224 -32 l 1
 224 -16 l 1
 224 0 l 1
 224 16 l 1
 224 32 l 1
 224 48 l 1
 224 64 l 1
 224 80 l 1
 224 96 l 1
 224 112 l 1
 224 128 l 1
 224 144 l 1
 224 160 l 1
 224 176 l 1
 224 192 l 1
 224 208 l 1
 224 224 l 1
 224 240 l 1
 224 256 l 1
 240 256 l 1
 256 256 l 1
 272 256 l 1
 288 256 l 1
 288 240 l 1
 288 224 l 1
 288 208 l 1
 288 192 l 1
 288 176 l 1
 288 160 l 1
 288 144 l 1
 288 128 l 1
 288 112 l 1
 288 96 l 1
 288 80 l 1
 288 64 l 1
 288 48 l 1
 288 32 l 1
 288 16 l 1
 288 0 l 1
 288 -16 l 1
 288 -32 l 1
 288 -48 l 1
 288 -64 l 1
 272 -64 l 1
272 384 m 1
 256 384 l 1
 240 384 l 1
 224 384 l 1
 224 400 l 1
 224 416 l 1
 224 432 l 1
 224 448 l 1
 224 464 l 1
 224 480 l 1
 224 496 l 1
 224 512 l 1
 224 528 l 1
 224 544 l 1
 224 560 l 1
 224 576 l 1
 224 592 l 1
 224 608 l 1
 224 624 l 1
 224 640 l 1
 224 656 l 1
 224 672 l 1
 224 688 l 1
 224 704 l 1
 240 704 l 1
 256 704 l 1
 272 704 l 1
 288 704 l 1
 288 688 l 1
 288 672 l 1
 288 656 l 1
 288 640 l 1
 288 624 l 1
 288 608 l 1
 288 592 l 1
 288 576 l 1
 288 560 l 1
 288 544 l 1
 288 528 l 1
 288 512 l 1
 288 496 l 1
 288 480 l 1
 288 464 l 1
 288 448 l 1
 288 432 l 1
 288 416 l 1
 288 400 l 1
 288 384 l 1
 272 384 l 1
EndSplineSet
Validated: 1
EndChar

StartChar: SECTION
Encoding: 167 167 104
Width: 512
GlyphClass: 1
Flags: W
HStem: -64 80<208 224 320 336> -64 64<224 320> -48 80<160 192 336 352> 0 32<128 144> 160 64<192 288> 416 64<224 320> 608 80<160 176 320 352> 608 32<368 384> 624 80<176 192 288 304> 640 64<192 288>
VStem: 96 80<240 256 384 400 528 544 608 624> 96 64<256 384 544 608> 112 80<224 240 400 416 512 528 624 640> 320 80<0 16 112 128 224 240 400 416> 336 80<16 32 96 112 240 256 384 400> 352 64<32 96 256 384>
LayerCount: 2
Fore
SplineSet
320 -64 m 1x8c04
 304 -64 l 1
 288 -64 l 1
 272 -64 l 1
 256 -64 l 1
 240 -64 l 1x4c04
 224 -64 l 1
 208 -64 l 1x8c04
 192 -64 l 1x4c0c
 192 -48 l 1x2c0c
 176 -48 l 1x2c20
 160 -48 l 1x2c10
 160 -32 l 1
 144 -32 l 1
 144 -16 l 1
 144 0 l 1
 128 0 l 1x1c10
 128 16 l 1x8c10
 128 32 l 1
 144 32 l 1x1c10
 160 32 l 1x2c10
 176 32 l 1x2c20
 192 32 l 1x2c08
 208 32 l 1x1c08
 208 16 l 1
 224 16 l 1x8c08
 224 0 l 1
 240 0 l 1
 256 0 l 1
 272 0 l 1
 288 0 l 1
 304 0 l 1
 320 0 l 1x4c0c
 320 16 l 1x8c0c
 336 16 l 1x8c02
 336 32 l 1x2c02
 352 32 l 1
 352 48 l 1
 352 64 l 1
 352 80 l 1
 352 96 l 1x2c01
 336 96 l 1
 336 112 l 1x2c02
 320 112 l 1
 320 128 l 1
 304 128 l 1
 304 144 l 1
 288 144 l 1
 288 160 l 1
 272 160 l 1
 256 160 l 1
 240 160 l 1
 224 160 l 1
 208 160 l 1
 192 160 l 1x2c0c
 176 160 l 1
 176 176 l 1x2c20
 160 176 l 1x2c10
 144 176 l 1
 144 192 l 1
 128 192 l 1
 128 208 l 1
 112 208 l 1
 112 224 l 1
 112 240 l 1x2c08
 96 240 l 1
 96 256 l 1x2c20
 96 272 l 1
 96 288 l 1
 96 304 l 1
 96 320 l 1
 96 336 l 1
 96 352 l 1
 96 368 l 1x2c10
 96 384 l 1
 96 400 l 1x2c20
 112 400 l 1
 112 416 l 1
 112 432 l 1
 128 432 l 1
 128 448 l 1
 144 448 l 1
 144 464 l 1
 144 480 l 1
 128 480 l 1
 128 496 l 1
 112 496 l 1
 112 512 l 1
 112 528 l 1x2c08
 96 528 l 1
 96 544 l 1x2c20
 96 560 l 1
 96 576 l 1
 96 592 l 1x2c10
 96 608 l 1x2d20
 96 624 l 1x0ca0
 112 624 l 1x0c88
 112 640 l 1
 112 656 l 1x0c48
 128 656 l 1
 128 672 l 1
 144 672 l 1
 144 688 l 1
 160 688 l 1x0e10
 176 688 l 1x0e20
 176 704 l 1x0ca0
 192 704 l 1x0c88
 208 704 l 1
 224 704 l 1
 240 704 l 1
 256 704 l 1
 272 704 l 1x0c48
 288 704 l 1
 304 704 l 1x0c88
 320 704 l 1x0c4c
 320 688 l 1x0e0c
 336 688 l 1x0e02
 352 688 l 1x0e01
 352 672 l 1
 368 672 l 1
 368 656 l 1
 368 640 l 1
 384 640 l 1x0d01
 384 624 l 1x0c81
 384 608 l 1
 368 608 l 1x0d01
 352 608 l 1x0e01
 336 608 l 1x0e02
 320 608 l 1x0e04
 304 608 l 1x0d04
 304 624 l 1
 288 624 l 1x0c84
 288 640 l 1
 272 640 l 1
 256 640 l 1
 240 640 l 1
 224 640 l 1
 208 640 l 1
 192 640 l 1x0c4c
 192 624 l 1x0c8c
 176 624 l 1x0ca0
 176 608 l 1x0e20
 160 608 l 1
 160 592 l 1
 160 576 l 1
 160 560 l 1
 160 544 l 1x0e10
 176 544 l 1
 176 528 l 1x0e20
 192 528 l 1
 192 512 l 1
 208 512 l 1
 208 496 l 1
 224 496 l 1
 224 480 l 1
 240 480 l 1
 256 480 l 1
 272 480 l 1
 288 480 l 1
 304 480 l 1
 320 480 l 1x0e0c
 336 480 l 1
 336 464 l 1x0e02
 352 464 l 1x0e01
 368 464 l 1
 368 448 l 1
 384 448 l 1
 384 432 l 1
 400 432 l 1
 400 416 l 1
 400 400 l 1x0e04
 416 400 l 1
 416 384 l 1x0e02
 416 368 l 1
 416 352 l 1
 416 336 l 1
 416 320 l 1
 416 304 l 1
 416 288 l 1
 416 272 l 1x0e01
 416 256 l 1
 416 240 l 1x0e02
 400 240 l 1
 400 224 l 1
 400 208 l 1
 384 208 l 1
 384 192 l 1
 368 192 l 1
 368 176 l 1
 368 160 l 1
 384 160 l 1
 384 144 l 1
 400 144 l 1
 400 128 l 1
 400 112 l 1x0e04
 416 112 l 1
 416 96 l 1x0e02
 416 80 l 1
 416 64 l 1
 416 48 l 1x0e01
 416 32 l 1x1e02
 416 16 l 1x8c02
 400 16 l 1x8c04
 400 0 l 1
 400 -16 l 1x1c04
 384 -16 l 1
 384 -32 l 1
 368 -32 l 1
 368 -48 l 1
 352 -48 l 1x2c01
 336 -48 l 1x2c02
 336 -64 l 1x8c02
 320 -64 l 1x8c04
304 224 m 1
 320 224 l 1
 320 240 l 1x0c0c
 336 240 l 1
 336 256 l 1x0c02
 352 256 l 1
 352 272 l 1
 352 288 l 1
 352 304 l 1
 352 320 l 1
 352 336 l 1
 352 352 l 1
 352 368 l 1
 352 384 l 1x0c01
 336 384 l 1
 336 400 l 1x0c02
 320 400 l 1
 320 416 l 1
 304 416 l 1
 288 416 l 1
 272 416 l 1
 256 416 l 1
 240 416 l 1
 224 416 l 1
 208 416 l 1
 192 416 l 1
 192 400 l 1x0c0c
 176 400 l 1
 176 384 l 1x0c20
 160 384 l 1
 160 368 l 1
 160 352 l 1
 160 336 l 1
 160 320 l 1
 160 304 l 1
 160 288 l 1
 160 272 l 1
 160 256 l 1x0c10
 176 256 l 1
 176 240 l 1x0c20
 192 240 l 1
 192 224 l 1x0c08
 208 224 l 1
 224 224 l 1
 240 224 l 1
 256 224 l 1
 272 224 l 1
 288 224 l 1
 304 224 l 1
EndSplineSet
Validated: 1
EndChar

StartChar: DIAERESIS
Encoding: 168 168 105
Width: 512
GlyphClass: 1
Flags: W
HStem: 512 96<128 192 320 384>
VStem: 128 64<512 608> 320 64<512 608>
LayerCount: 2
Fore
SplineSet
368 512 m 1
 352 512 l 1
 336 512 l 1
 320 512 l 1
 320 528 l 1
 320 544 l 1
 320 560 l 1
 320 576 l 1
 320 592 l 1
 320 608 l 1
 336 608 l 1
 352 608 l 1
 368 608 l 1
 384 608 l 1
 384 592 l 1
 384 576 l 1
 384 560 l 1
 384 544 l 1
 384 528 l 1
 384 512 l 1
 368 512 l 1
176 512 m 1
 160 512 l 1
 144 512 l 1
 128 512 l 1
 128 528 l 1
 128 544 l 1
 128 560 l 1
 128 576 l 1
 128 592 l 1
 128 608 l 1
 144 608 l 1
 160 608 l 1
 176 608 l 1
 192 608 l 1
 192 592 l 1
 192 576 l 1
 192 560 l 1
 192 544 l 1
 192 528 l 1
 192 512 l 1
 176 512 l 1
EndSplineSet
Validated: 1
EndChar

StartChar: COPYRIGHT
Encoding: 169 169 106
Width: 512
GlyphClass: 1
Flags: W
HStem: 0 80<144 160 352 368> 0 64<160 352> 16 80<128 144 368 384> 128 64<240 352> 320 64<240 352> 416 80<128 144 368 384> 432 80<144 160 352 368> 448 64<160 352>
VStem: 64 80<80 96 416 432> 64 64<96 416> 80 80<64 80 432 448> 160 80<192 208 304 320> 160 64<208 304> 352 80<64 80 432 448> 368 80<80 96 416 432> 384 64<96 416>
LayerCount: 2
Fore
SplineSet
352 0 m 1x9804
 336 0 l 1
 320 0 l 1
 304 0 l 1
 288 0 l 1
 272 0 l 1
 256 0 l 1
 240 0 l 1x5814
 224 0 l 1
 208 0 l 1
 192 0 l 1
 176 0 l 1x5808
 160 0 l 1
 144 0 l 1x9888
 144 16 l 1x3888
 128 16 l 1
 112 16 l 1x3840
 112 32 l 1
 96 32 l 1
 96 48 l 1
 80 48 l 1
 80 64 l 1x5820
 80 80 l 1x9820
 64 80 l 1x9880
 64 96 l 1x3880
 64 112 l 1
 64 128 l 1
 64 144 l 1
 64 160 l 1
 64 176 l 1
 64 192 l 1
 64 208 l 1
 64 224 l 1
 64 240 l 1
 64 256 l 1
 64 272 l 1
 64 288 l 1
 64 304 l 1
 64 320 l 1
 64 336 l 1
 64 352 l 1
 64 368 l 1
 64 384 l 1
 64 400 l 1x3840
 64 416 l 1x3c80
 64 432 l 1x1a80
 80 432 l 1x1a20
 80 448 l 1
 80 464 l 1x1920
 96 464 l 1
 96 480 l 1
 112 480 l 1
 112 496 l 1
 128 496 l 1x1c40
 144 496 l 1x1c80
 144 512 l 1
 160 512 l 1x1a88
 176 512 l 1
 192 512 l 1
 208 512 l 1
 224 512 l 1x1988
 240 512 l 1
 256 512 l 1
 272 512 l 1
 288 512 l 1
 304 512 l 1
 320 512 l 1
 336 512 l 1x1910
 352 512 l 1x1a14
 368 512 l 1x1a02
 368 496 l 1x1c02
 384 496 l 1
 400 496 l 1x1c01
 400 480 l 1
 416 480 l 1
 416 464 l 1
 432 464 l 1
 432 448 l 1x1904
 432 432 l 1x1a04
 448 432 l 1x1a02
 448 416 l 1x1c02
 448 400 l 1
 448 384 l 1
 448 368 l 1
 448 352 l 1
 448 336 l 1
 448 320 l 1
 448 304 l 1
 448 288 l 1
 448 272 l 1
 448 256 l 1
 448 240 l 1
 448 224 l 1
 448 208 l 1
 448 192 l 1
 448 176 l 1
 448 160 l 1
 448 144 l 1
 448 128 l 1
 448 112 l 1x1c01
 448 96 l 1x3c02
 448 80 l 1x9802
 432 80 l 1x9804
 432 64 l 1
 432 48 l 1x5804
 416 48 l 1
 416 32 l 1
 400 32 l 1
 400 16 l 1
 384 16 l 1x3801
 368 16 l 1x3802
 368 0 l 1x9802
 352 0 l 1x9804
336 64 m 1
 352 64 l 1x5814
 352 80 l 1x9814
 368 80 l 1x9802
 368 96 l 1x3802
 384 96 l 1
 384 112 l 1
 384 128 l 1
 384 144 l 1
 384 160 l 1
 384 176 l 1
 384 192 l 1
 384 208 l 1
 384 224 l 1
 384 240 l 1
 384 256 l 1
 384 272 l 1
 384 288 l 1
 384 304 l 1
 384 320 l 1
 384 336 l 1
 384 352 l 1
 384 368 l 1
 384 384 l 1
 384 400 l 1
 384 416 l 1x3c01
 368 416 l 1x3c02
 368 432 l 1x1a02
 352 432 l 1x1a04
 352 448 l 1
 336 448 l 1
 320 448 l 1
 304 448 l 1
 288 448 l 1
 272 448 l 1
 256 448 l 1
 240 448 l 1x1914
 224 448 l 1x1908
 208 448 l 1
 192 448 l 1
 176 448 l 1
 160 448 l 1x1920
 160 432 l 1x1a20
 144 432 l 1x1a80
 144 416 l 1x1c80
 128 416 l 1
 128 400 l 1
 128 384 l 1
 128 368 l 1
 128 352 l 1
 128 336 l 1
 128 320 l 1
 128 304 l 1
 128 288 l 1
 128 272 l 1
 128 256 l 1
 128 240 l 1
 128 224 l 1
 128 208 l 1
 128 192 l 1
 128 176 l 1
 128 160 l 1
 128 144 l 1
 128 128 l 1
 128 112 l 1
 128 96 l 1x3c40
 144 96 l 1x3c80
 144 80 l 1x9880
 160 80 l 1x9820
 160 64 l 1x5820
 176 64 l 1
 192 64 l 1
 208 64 l 1
 224 64 l 1x5808
 240 64 l 1
 256 64 l 1
 272 64 l 1
 288 64 l 1
 304 64 l 1
 320 64 l 1
 336 64 l 1
336 128 m 1
 320 128 l 1
 304 128 l 1
 288 128 l 1
 272 128 l 1
 256 128 l 1
 240 128 l 1x1814
 224 128 l 1
 224 144 l 1x1808
 208 144 l 1
 192 144 l 1
 192 160 l 1
 176 160 l 1
 176 176 l 1
 176 192 l 1
 160 192 l 1
 160 208 l 1x1810
 160 224 l 1
 160 240 l 1
 160 256 l 1
 160 272 l 1
 160 288 l 1x1808
 160 304 l 1
 160 320 l 1x1810
 176 320 l 1
 176 336 l 1
 176 352 l 1
 192 352 l 1
 192 368 l 1
 208 368 l 1
 224 368 l 1
 224 384 l 1x1808
 240 384 l 1
 256 384 l 1
 272 384 l 1
 288 384 l 1
 304 384 l 1
 320 384 l 1
 336 384 l 1
 352 384 l 1
 352 368 l 1
 352 352 l 1
 352 336 l 1
 352 320 l 1
 336 320 l 1
 320 320 l 1
 304 320 l 1
 288 320 l 1
 272 320 l 1
 256 320 l 1
 240 320 l 1
 240 304 l 1x1814
 224 304 l 1
 224 288 l 1
 224 272 l 1
 224 256 l 1
 224 240 l 1
 224 224 l 1
 224 208 l 1x1808
 240 208 l 1
 240 192 l 1
 256 192 l 1
 272 192 l 1
 288 192 l 1
 304 192 l 1
 320 192 l 1
 336 192 l 1
 352 192 l 1
 352 176 l 1
 352 160 l 1
 352 144 l 1
 352 128 l 1
 336 128 l 1
EndSplineSet
Validated: 1
EndChar

StartChar: FEMININE
Encoding: 170 170 107
Width: 512
GlyphClass: 1
Flags: W
HStem: 256 64<128 384> 384 64<208 320> 512 64<208 320> 640 64<160 288>
VStem: 128 80<448 464 496 512> 128 64<464 496> 320 64<448 512 576 608>
LayerCount: 2
Fore
SplineSet
368 256 m 1xfa
 352 256 l 1
 336 256 l 1
 320 256 l 1
 304 256 l 1
 288 256 l 1
 272 256 l 1
 256 256 l 1
 240 256 l 1
 224 256 l 1
 208 256 l 1xfa
 192 256 l 1
 176 256 l 1
 160 256 l 1
 144 256 l 1
 128 256 l 1
 128 272 l 1
 128 288 l 1
 128 304 l 1
 128 320 l 1
 144 320 l 1
 160 320 l 1
 176 320 l 1
 192 320 l 1xf6
 208 320 l 1
 224 320 l 1
 240 320 l 1
 256 320 l 1
 272 320 l 1
 288 320 l 1
 304 320 l 1
 320 320 l 1
 336 320 l 1
 352 320 l 1
 368 320 l 1
 384 320 l 1
 384 304 l 1
 384 288 l 1
 384 272 l 1
 384 256 l 1
 368 256 l 1xfa
368 384 m 1
 352 384 l 1
 336 384 l 1
 320 384 l 1
 304 384 l 1
 288 384 l 1
 272 384 l 1
 256 384 l 1
 240 384 l 1
 224 384 l 1
 208 384 l 1xfa
 192 384 l 1
 192 400 l 1xf6
 176 400 l 1
 160 400 l 1
 160 416 l 1
 144 416 l 1
 144 432 l 1
 144 448 l 1
 128 448 l 1
 128 464 l 1xfa
 128 480 l 1xf6
 128 496 l 1
 128 512 l 1xfa
 144 512 l 1
 144 528 l 1
 144 544 l 1
 160 544 l 1
 160 560 l 1
 176 560 l 1
 192 560 l 1
 192 576 l 1xf6
 208 576 l 1
 224 576 l 1
 240 576 l 1
 256 576 l 1
 272 576 l 1
 288 576 l 1
 304 576 l 1
 320 576 l 1
 320 592 l 1
 320 608 l 1
 304 608 l 1
 304 624 l 1
 288 624 l 1
 288 640 l 1
 272 640 l 1
 256 640 l 1
 240 640 l 1
 224 640 l 1
 208 640 l 1xfa
 192 640 l 1
 176 640 l 1
 160 640 l 1
 160 656 l 1
 160 672 l 1
 160 688 l 1
 160 704 l 1
 176 704 l 1
 192 704 l 1xf6
 208 704 l 1
 224 704 l 1
 240 704 l 1
 256 704 l 1
 272 704 l 1
 288 704 l 1
 304 704 l 1
 304 688 l 1
 320 688 l 1
 336 688 l 1
 336 672 l 1
 352 672 l 1
 352 656 l 1
 368 656 l 1
 368 640 l 1
 368 624 l 1
 384 624 l 1
 384 608 l 1
 384 592 l 1
 384 576 l 1
 384 560 l 1
 384 544 l 1
 384 528 l 1
 384 512 l 1
 384 496 l 1
 384 480 l 1
 384 464 l 1
 384 448 l 1
 384 432 l 1
 384 416 l 1
 384 400 l 1
 384 384 l 1
 368 384 l 1
304 448 m 1
 320 448 l 1
 320 464 l 1
 320 480 l 1
 320 496 l 1
 320 512 l 1
 304 512 l 1
 288 512 l 1
 272 512 l 1
 256 512 l 1
 240 512 l 1
 224 512 l 1
 208 512 l 1
 208 496 l 1xfa
 192 496 l 1
 192 480 l 1
 192 464 l 1xf6
 208 464 l 1
 208 448 l 1
 224 448 l 1
 240 448 l 1
 256 448 l 1
 272 448 l 1
 288 448 l 1
 304 448 l 1
EndSplineSet
Validated: 1
EndChar

StartChar: LEFT-POINTING
Encoding: 171 171 108
Width: 512
GlyphClass: 1
Flags: W
HStem: 64 80<208 224 368 384> 64 64<224 240 384 400> 64 48<240 256 400 416> 64 32<256 272 416 432> 64 16<272 288 432 448> 192 64<64 80 224 240> 208 32<48 64 208 224> 304 80<208 224 368 384> 320 64<224 240 384 400> 336 48<240 256 400 416> 352 32<256 272 416 432> 368 16<272 288 432 448>
LayerCount: 2
Fore
SplineSet
432 64 m 1x10
 416 64 l 1x20
 400 64 l 1x40
 384 64 l 1
 368 64 l 1x80
 352 64 l 1
 352 80 l 1
 336 80 l 1x08
 336 96 l 1
 320 96 l 1x10
 320 112 l 1
 304 112 l 1x20
 304 128 l 1
 288 128 l 1x40
 288 144 l 1
 272 144 l 1
 272 160 l 1
 256 160 l 1
 256 176 l 1
 240 176 l 1
 240 192 l 1
 224 192 l 1x84
 224 208 l 1
 208 208 l 1
 208 224 l 1
 208 240 l 1
 224 240 l 1x02
 224 256 l 1
 240 256 l 1
 240 272 l 1
 256 272 l 1
 256 288 l 1
 272 288 l 1
 272 304 l 1
 288 304 l 1x05
 288 320 l 1
 304 320 l 1x0080
 304 336 l 1
 320 336 l 1x0040
 320 352 l 1
 336 352 l 1x0020
 336 368 l 1
 352 368 l 1
 352 384 l 1x0010
 368 384 l 1
 384 384 l 1x01
 400 384 l 1x0080
 416 384 l 1x0040
 432 384 l 1x0020
 448 384 l 1
 448 368 l 1
 432 368 l 1x0010
 432 352 l 1
 416 352 l 1x0020
 416 336 l 1
 400 336 l 1x0040
 400 320 l 1
 384 320 l 1x0080
 384 304 l 1
 368 304 l 1
 368 288 l 1
 352 288 l 1
 352 272 l 1
 336 272 l 1
 336 256 l 1
 320 256 l 1x05
 320 240 l 1
 304 240 l 1
 304 224 l 1
 304 208 l 1
 320 208 l 1x02
 320 192 l 1
 336 192 l 1
 336 176 l 1
 352 176 l 1
 352 160 l 1
 368 160 l 1
 368 144 l 1
 384 144 l 1x84
 384 128 l 1
 400 128 l 1x40
 400 112 l 1
 416 112 l 1x20
 416 96 l 1
 432 96 l 1x10
 432 80 l 1
 448 80 l 1
 448 64 l 1x08
 432 64 l 1x10
272 64 m 1x10
 256 64 l 1x20
 240 64 l 1x40
 224 64 l 1
 208 64 l 1x80
 192 64 l 1
 192 80 l 1
 176 80 l 1x08
 176 96 l 1
 160 96 l 1x10
 160 112 l 1
 144 112 l 1x20
 144 128 l 1
 128 128 l 1x40
 128 144 l 1
 112 144 l 1
 112 160 l 1
 96 160 l 1
 96 176 l 1
 80 176 l 1
 80 192 l 1
 64 192 l 1x84
 64 208 l 1
 48 208 l 1
 48 224 l 1
 48 240 l 1
 64 240 l 1x02
 64 256 l 1
 80 256 l 1
 80 272 l 1
 96 272 l 1
 96 288 l 1
 112 288 l 1
 112 304 l 1
 128 304 l 1x05
 128 320 l 1
 144 320 l 1x0080
 144 336 l 1
 160 336 l 1x0040
 160 352 l 1
 176 352 l 1x0020
 176 368 l 1
 192 368 l 1
 192 384 l 1x0010
 208 384 l 1
 224 384 l 1x01
 240 384 l 1x0080
 256 384 l 1x0040
 272 384 l 1x0020
 288 384 l 1
 288 368 l 1
 272 368 l 1x0010
 272 352 l 1
 256 352 l 1x0020
 256 336 l 1
 240 336 l 1x0040
 240 320 l 1
 224 320 l 1x0080
 224 304 l 1
 208 304 l 1
 208 288 l 1
 192 288 l 1
 192 272 l 1
 176 272 l 1
 176 256 l 1
 160 256 l 1x05
 160 240 l 1
 144 240 l 1
 144 224 l 1
 144 208 l 1
 160 208 l 1x02
 160 192 l 1
 176 192 l 1
 176 176 l 1
 192 176 l 1
 192 160 l 1
 208 160 l 1
 208 144 l 1
 224 144 l 1x84
 224 128 l 1
 240 128 l 1x40
 240 112 l 1
 256 112 l 1x20
 256 96 l 1
 272 96 l 1x10
 272 80 l 1
 288 80 l 1
 288 64 l 1x08
 272 64 l 1x10
EndSplineSet
Validated: 513
EndChar

StartChar: NOT
Encoding: 172 172 109
Width: 512
GlyphClass: 1
Flags: W
HStem: 384 64<64 384>
VStem: 384 64<192 384>
LayerCount: 2
Fore
SplineSet
432 192 m 1
 416 192 l 1
 400 192 l 1
 384 192 l 1
 384 208 l 1
 384 224 l 1
 384 240 l 1
 384 256 l 1
 384 272 l 1
 384 288 l 1
 384 304 l 1
 384 320 l 1
 384 336 l 1
 384 352 l 1
 384 368 l 1
 384 384 l 1
 368 384 l 1
 352 384 l 1
 336 384 l 1
 320 384 l 1
 304 384 l 1
 288 384 l 1
 272 384 l 1
 256 384 l 1
 240 384 l 1
 224 384 l 1
 208 384 l 1
 192 384 l 1
 176 384 l 1
 160 384 l 1
 144 384 l 1
 128 384 l 1
 112 384 l 1
 96 384 l 1
 80 384 l 1
 64 384 l 1
 64 400 l 1
 64 416 l 1
 64 432 l 1
 64 448 l 1
 80 448 l 1
 96 448 l 1
 112 448 l 1
 128 448 l 1
 144 448 l 1
 160 448 l 1
 176 448 l 1
 192 448 l 1
 208 448 l 1
 224 448 l 1
 240 448 l 1
 256 448 l 1
 272 448 l 1
 288 448 l 1
 304 448 l 1
 320 448 l 1
 336 448 l 1
 352 448 l 1
 368 448 l 1
 384 448 l 1
 400 448 l 1
 416 448 l 1
 432 448 l 1
 448 448 l 1
 448 432 l 1
 448 416 l 1
 448 400 l 1
 448 384 l 1
 448 368 l 1
 448 352 l 1
 448 336 l 1
 448 320 l 1
 448 304 l 1
 448 288 l 1
 448 272 l 1
 448 256 l 1
 448 240 l 1
 448 224 l 1
 448 208 l 1
 448 192 l 1
 432 192 l 1
EndSplineSet
Validated: 1
EndChar

StartChar: SOFT
Encoding: 173 173 110
Width: 512
GlyphClass: 1
Flags: W
HStem: 256 64<96 416>
VStem: 96 320<256 320>
LayerCount: 2
Fore
SplineSet
400 256 m 1
 384 256 l 1
 368 256 l 1
 352 256 l 1
 336 256 l 1
 320 256 l 1
 304 256 l 1
 288 256 l 1
 272 256 l 1
 256 256 l 1
 240 256 l 1
 224 256 l 1
 208 256 l 1
 192 256 l 1
 176 256 l 1
 160 256 l 1
 144 256 l 1
 128 256 l 1
 112 256 l 1
 96 256 l 1
 96 272 l 1
 96 288 l 1
 96 304 l 1
 96 320 l 1
 112 320 l 1
 128 320 l 1
 144 320 l 1
 160 320 l 1
 176 320 l 1
 192 320 l 1
 208 320 l 1
 224 320 l 1
 240 320 l 1
 256 320 l 1
 272 320 l 1
 288 320 l 1
 304 320 l 1
 320 320 l 1
 336 320 l 1
 352 320 l 1
 368 320 l 1
 384 320 l 1
 400 320 l 1
 416 320 l 1
 416 304 l 1
 416 288 l 1
 416 272 l 1
 416 256 l 1
 400 256 l 1
EndSplineSet
Validated: 1
EndChar

StartChar: REGISTERED
Encoding: 174 174 111
Width: 512
GlyphClass: 1
Flags: W
HStem: 64 80<144 160 352 368> 64 64<160 352> 80 80<128 144 368 384> 288 64<224 272> 384 64<224 288> 480 80<128 144 368 384> 496 80<144 160 352 368> 512 64<160 352>
VStem: 64 80<144 160 480 496> 64 64<160 480> 80 80<128 144 496 512> 160 64<192 288 352 384> 288 64<192 272 352 384> 352 80<128 144 496 512> 368 80<144 160 480 496> 384 64<160 480>
LayerCount: 2
Fore
SplineSet
352 64 m 1x9804
 336 64 l 1
 320 64 l 1
 304 64 l 1
 288 64 l 1
 272 64 l 1
 256 64 l 1
 240 64 l 1
 224 64 l 1
 208 64 l 1
 192 64 l 1
 176 64 l 1x5818
 160 64 l 1
 144 64 l 1x9898
 144 80 l 1x3898
 128 80 l 1
 112 80 l 1x3840
 112 96 l 1
 96 96 l 1
 96 112 l 1
 80 112 l 1
 80 128 l 1x5820
 80 144 l 1x9820
 64 144 l 1x9880
 64 160 l 1x3880
 64 176 l 1
 64 192 l 1
 64 208 l 1
 64 224 l 1
 64 240 l 1
 64 256 l 1
 64 272 l 1
 64 288 l 1
 64 304 l 1
 64 320 l 1
 64 336 l 1
 64 352 l 1
 64 368 l 1
 64 384 l 1
 64 400 l 1
 64 416 l 1
 64 432 l 1
 64 448 l 1
 64 464 l 1x3840
 64 480 l 1x3c80
 64 496 l 1x1a80
 80 496 l 1x1a20
 80 512 l 1
 80 528 l 1x1920
 96 528 l 1
 96 544 l 1
 112 544 l 1
 112 560 l 1
 128 560 l 1x1c40
 144 560 l 1x1c80
 144 576 l 1
 160 576 l 1x1a90
 176 576 l 1
 192 576 l 1
 208 576 l 1
 224 576 l 1
 240 576 l 1
 256 576 l 1
 272 576 l 1
 288 576 l 1
 304 576 l 1
 320 576 l 1
 336 576 l 1x1998
 352 576 l 1x1a04
 368 576 l 1x1a02
 368 560 l 1x1c02
 384 560 l 1
 400 560 l 1x1c01
 400 544 l 1
 416 544 l 1
 416 528 l 1
 432 528 l 1
 432 512 l 1x1904
 432 496 l 1x1a04
 448 496 l 1x1a02
 448 480 l 1x1c02
 448 464 l 1
 448 448 l 1
 448 432 l 1
 448 416 l 1
 448 400 l 1
 448 384 l 1
 448 368 l 1
 448 352 l 1
 448 336 l 1
 448 320 l 1
 448 304 l 1
 448 288 l 1
 448 272 l 1
 448 256 l 1
 448 240 l 1
 448 224 l 1
 448 208 l 1
 448 192 l 1
 448 176 l 1x1c01
 448 160 l 1x3c02
 448 144 l 1x9802
 432 144 l 1x9804
 432 128 l 1
 432 112 l 1x5804
 416 112 l 1
 416 96 l 1
 400 96 l 1
 400 80 l 1
 384 80 l 1x3801
 368 80 l 1x3802
 368 64 l 1x9802
 352 64 l 1x9804
336 128 m 1
 352 128 l 1x5804
 352 144 l 1x9804
 368 144 l 1x9802
 368 160 l 1x3802
 384 160 l 1
 384 176 l 1
 384 192 l 1
 384 208 l 1
 384 224 l 1
 384 240 l 1
 384 256 l 1
 384 272 l 1
 384 288 l 1
 384 304 l 1
 384 320 l 1
 384 336 l 1
 384 352 l 1
 384 368 l 1
 384 384 l 1
 384 400 l 1
 384 416 l 1
 384 432 l 1
 384 448 l 1
 384 464 l 1
 384 480 l 1x3c01
 368 480 l 1x3c02
 368 496 l 1x1a02
 352 496 l 1x1a04
 352 512 l 1x1904
 336 512 l 1
 320 512 l 1
 304 512 l 1
 288 512 l 1
 272 512 l 1
 256 512 l 1
 240 512 l 1
 224 512 l 1x1918
 208 512 l 1
 192 512 l 1
 176 512 l 1
 160 512 l 1x1920
 160 496 l 1x1a20
 144 496 l 1x1a80
 144 480 l 1x1c80
 128 480 l 1
 128 464 l 1
 128 448 l 1
 128 432 l 1
 128 416 l 1
 128 400 l 1
 128 384 l 1
 128 368 l 1
 128 352 l 1
 128 336 l 1
 128 320 l 1
 128 304 l 1
 128 288 l 1
 128 272 l 1
 128 256 l 1
 128 240 l 1
 128 224 l 1
 128 208 l 1
 128 192 l 1
 128 176 l 1
 128 160 l 1x3c40
 144 160 l 1x3c80
 144 144 l 1x9880
 160 144 l 1x9820
 160 128 l 1x5820
 176 128 l 1
 192 128 l 1
 208 128 l 1
 224 128 l 1
 240 128 l 1
 256 128 l 1
 272 128 l 1
 288 128 l 1
 304 128 l 1
 320 128 l 1
 336 128 l 1
336 192 m 1
 320 192 l 1
 304 192 l 1
 288 192 l 1
 288 208 l 1
 288 224 l 1
 288 240 l 1
 288 256 l 1
 288 272 l 1
 272 272 l 1
 272 288 l 1
 256 288 l 1
 240 288 l 1
 224 288 l 1
 224 272 l 1
 224 256 l 1
 224 240 l 1
 224 224 l 1
 224 208 l 1
 224 192 l 1
 208 192 l 1
 192 192 l 1
 176 192 l 1
 160 192 l 1
 160 208 l 1
 160 224 l 1
 160 240 l 1
 160 256 l 1
 160 272 l 1
 160 288 l 1
 160 304 l 1
 160 320 l 1
 160 336 l 1
 160 352 l 1
 160 368 l 1
 160 384 l 1
 160 400 l 1
 160 416 l 1
 160 432 l 1
 160 448 l 1
 176 448 l 1
 192 448 l 1
 208 448 l 1
 224 448 l 1
 240 448 l 1
 256 448 l 1
 272 448 l 1
 288 448 l 1x1818
 304 448 l 1
 320 448 l 1
 320 432 l 1
 336 432 l 1
 336 416 l 1
 352 416 l 1
 352 400 l 1x1804
 352 384 l 1
 352 368 l 1
 352 352 l 1x1808
 352 336 l 1
 352 320 l 1x1804
 336 320 l 1
 336 304 l 1
 320 304 l 1
 320 288 l 1
 336 288 l 1
 336 272 l 1
 352 272 l 1
 352 256 l 1
 352 240 l 1
 352 224 l 1
 352 208 l 1
 352 192 l 1x1808
 336 192 l 1
272 352 m 1
 288 352 l 1
 288 368 l 1
 288 384 l 1
 272 384 l 1
 256 384 l 1
 240 384 l 1
 224 384 l 1
 224 368 l 1
 224 352 l 1
 240 352 l 1
 256 352 l 1
 272 352 l 1
EndSplineSet
Validated: 1
EndChar

StartChar: MACRON
Encoding: 175 175 112
Width: 512
GlyphClass: 1
Flags: W
HStem: 704 64<128 384>
VStem: 128 256<704 768>
LayerCount: 2
Fore
SplineSet
368 704 m 1
 352 704 l 1
 336 704 l 1
 320 704 l 1
 304 704 l 1
 288 704 l 1
 272 704 l 1
 256 704 l 1
 240 704 l 1
 224 704 l 1
 208 704 l 1
 192 704 l 1
 176 704 l 1
 160 704 l 1
 144 704 l 1
 128 704 l 1
 128 720 l 1
 128 736 l 1
 128 752 l 1
 128 768 l 1
 144 768 l 1
 160 768 l 1
 176 768 l 1
 192 768 l 1
 208 768 l 1
 224 768 l 1
 240 768 l 1
 256 768 l 1
 272 768 l 1
 288 768 l 1
 304 768 l 1
 320 768 l 1
 336 768 l 1
 352 768 l 1
 368 768 l 1
 384 768 l 1
 384 752 l 1
 384 736 l 1
 384 720 l 1
 384 704 l 1
 368 704 l 1
EndSplineSet
Validated: 1
EndChar

StartChar: DEGREE
Encoding: 176 176 113
Width: 512
GlyphClass: 1
Flags: W
HStem: 384 80<208 224 288 304> 384 64<224 288> 400 80<192 208 304 320> 576 80<192 208 304 320> 592 80<208 224 288 304> 608 64<224 288>
VStem: 128 80<464 480 576 592> 128 64<480 576> 144 80<448 464 592 608> 288 80<448 464 592 608> 304 80<464 480 576 592> 320 64<480 576>
LayerCount: 2
Fore
SplineSet
288 384 m 1x8040
 272 384 l 1
 256 384 l 1
 240 384 l 1x4040
 224 384 l 1x80c0
 208 384 l 1x82
 208 400 l 1x22
 192 400 l 1
 176 400 l 1x21
 176 416 l 1
 160 416 l 1
 160 432 l 1
 144 432 l 1
 144 448 l 1x4080
 144 464 l 1x8080
 128 464 l 1x82
 128 480 l 1x22
 128 496 l 1
 128 512 l 1
 128 528 l 1
 128 544 l 1
 128 560 l 1x21
 128 576 l 1x32
 128 592 l 1x0a
 144 592 l 1x0880
 144 608 l 1
 144 624 l 1x0480
 160 624 l 1
 160 640 l 1
 176 640 l 1
 176 656 l 1
 192 656 l 1x11
 208 656 l 1x12
 208 672 l 1x0a
 224 672 l 1x0880
 240 672 l 1
 256 672 l 1
 272 672 l 1x0480
 288 672 l 1x08c0
 304 672 l 1x0820
 304 656 l 1x1020
 320 656 l 1
 336 656 l 1x1010
 336 640 l 1
 352 640 l 1
 352 624 l 1
 368 624 l 1
 368 608 l 1x0440
 368 592 l 1x0840
 384 592 l 1x0820
 384 576 l 1x1020
 384 560 l 1
 384 544 l 1
 384 528 l 1
 384 512 l 1
 384 496 l 1x1010
 384 480 l 1x3020
 384 464 l 1x8020
 368 464 l 1x8040
 368 448 l 1
 368 432 l 1x4040
 352 432 l 1
 352 416 l 1
 336 416 l 1
 336 400 l 1
 320 400 l 1x2010
 304 400 l 1x2020
 304 384 l 1x8020
 288 384 l 1x8040
272 448 m 1
 288 448 l 1x40c0
 288 464 l 1x80c0
 304 464 l 1x8020
 304 480 l 1x2020
 320 480 l 1
 320 496 l 1
 320 512 l 1
 320 528 l 1
 320 544 l 1
 320 560 l 1
 320 576 l 1x3010
 304 576 l 1x3020
 304 592 l 1x0820
 288 592 l 1x0840
 288 608 l 1
 272 608 l 1
 256 608 l 1
 240 608 l 1
 224 608 l 1x04c0
 224 592 l 1x08c0
 208 592 l 1x0a
 208 576 l 1x12
 192 576 l 1
 192 560 l 1
 192 544 l 1
 192 528 l 1
 192 512 l 1
 192 496 l 1
 192 480 l 1x31
 208 480 l 1x32
 208 464 l 1x82
 224 464 l 1x8080
 224 448 l 1x4080
 240 448 l 1
 256 448 l 1
 272 448 l 1
EndSplineSet
Validated: 1
EndChar

StartChar: PLUS-MINUS
Encoding: 177 177 114
Width: 512
GlyphClass: 1
Flags: W
HStem: 64 64<96 416> 320 64<96 224 288 416>
VStem: 224 64<192 320 384 512>
LayerCount: 2
Fore
SplineSet
400 64 m 1
 384 64 l 1
 368 64 l 1
 352 64 l 1
 336 64 l 1
 320 64 l 1
 304 64 l 1
 288 64 l 1
 272 64 l 1
 256 64 l 1
 240 64 l 1
 224 64 l 1
 208 64 l 1
 192 64 l 1
 176 64 l 1
 160 64 l 1
 144 64 l 1
 128 64 l 1
 112 64 l 1
 96 64 l 1
 96 80 l 1
 96 96 l 1
 96 112 l 1
 96 128 l 1
 112 128 l 1
 128 128 l 1
 144 128 l 1
 160 128 l 1
 176 128 l 1
 192 128 l 1
 208 128 l 1
 224 128 l 1
 240 128 l 1
 256 128 l 1
 272 128 l 1
 288 128 l 1
 304 128 l 1
 320 128 l 1
 336 128 l 1
 352 128 l 1
 368 128 l 1
 384 128 l 1
 400 128 l 1
 416 128 l 1
 416 112 l 1
 416 96 l 1
 416 80 l 1
 416 64 l 1
 400 64 l 1
272 192 m 1
 256 192 l 1
 240 192 l 1
 224 192 l 1
 224 208 l 1
 224 224 l 1
 224 240 l 1
 224 256 l 1
 224 272 l 1
 224 288 l 1
 224 304 l 1
 224 320 l 1
 208 320 l 1
 192 320 l 1
 176 320 l 1
 160 320 l 1
 144 320 l 1
 128 320 l 1
 112 320 l 1
 96 320 l 1
 96 336 l 1
 96 352 l 1
 96 368 l 1
 96 384 l 1
 112 384 l 1
 128 384 l 1
 144 384 l 1
 160 384 l 1
 176 384 l 1
 192 384 l 1
 208 384 l 1
 224 384 l 1
 224 400 l 1
 224 416 l 1
 224 432 l 1
 224 448 l 1
 224 464 l 1
 224 480 l 1
 224 496 l 1
 224 512 l 1
 240 512 l 1
 256 512 l 1
 272 512 l 1
 288 512 l 1
 288 496 l 1
 288 480 l 1
 288 464 l 1
 288 448 l 1
 288 432 l 1
 288 416 l 1
 288 400 l 1
 288 384 l 1
 304 384 l 1
 320 384 l 1
 336 384 l 1
 352 384 l 1
 368 384 l 1
 384 384 l 1
 400 384 l 1
 416 384 l 1
 416 368 l 1
 416 352 l 1
 416 336 l 1
 416 320 l 1
 400 320 l 1
 384 320 l 1
 368 320 l 1
 352 320 l 1
 336 320 l 1
 320 320 l 1
 304 320 l 1
 288 320 l 1
 288 304 l 1
 288 288 l 1
 288 272 l 1
 288 256 l 1
 288 240 l 1
 288 224 l 1
 288 208 l 1
 288 192 l 1
 272 192 l 1
EndSplineSet
Validated: 513
EndChar

StartChar: SUPERSCRIPT
Encoding: 178 178 115
Width: 512
GlyphClass: 1
Flags: W
HStem: 288 96<160 176 320 384> 288 64<128 144 224 320> 576 48<144 160> 576 32<128 144> 592 64<192 208 304 320> 608 64<208 304>
VStem: 304 64<512 528 592 608> 320 64<352 384 528 592>
LayerCount: 2
Fore
SplineSet
368 288 m 1x82
 352 288 l 1
 336 288 l 1
 320 288 l 1x81
 304 288 l 1
 288 288 l 1
 272 288 l 1
 256 288 l 1
 240 288 l 1
 224 288 l 1
 208 288 l 1
 192 288 l 1x42
 176 288 l 1
 160 288 l 1x82
 144 288 l 1
 128 288 l 1
 128 304 l 1
 128 320 l 1
 128 336 l 1
 128 352 l 1
 144 352 l 1x42
 144 368 l 1
 160 368 l 1
 160 384 l 1
 176 384 l 1
 176 400 l 1
 192 400 l 1
 192 416 l 1
 208 416 l 1
 208 432 l 1
 224 432 l 1
 224 448 l 1
 240 448 l 1
 240 464 l 1
 256 464 l 1
 256 480 l 1
 272 480 l 1
 272 496 l 1
 288 496 l 1
 288 512 l 1
 304 512 l 1
 304 528 l 1x82
 320 528 l 1
 320 544 l 1
 320 560 l 1
 320 576 l 1x91
 320 592 l 1x09
 304 592 l 1x0a
 304 608 l 1
 288 608 l 1
 272 608 l 1
 256 608 l 1
 240 608 l 1
 224 608 l 1
 208 608 l 1x06
 208 592 l 1
 192 592 l 1x0a
 192 576 l 1
 176 576 l 1x12
 160 576 l 1
 144 576 l 1x22
 128 576 l 1x12
 128 592 l 1x0a
 128 608 l 1
 144 608 l 1x12
 144 624 l 1
 160 624 l 1x22
 160 640 l 1
 176 640 l 1
 176 656 l 1
 192 656 l 1
 208 656 l 1x0a
 208 672 l 1
 224 672 l 1
 240 672 l 1
 256 672 l 1
 272 672 l 1
 288 672 l 1
 304 672 l 1x06
 304 656 l 1x0a
 320 656 l 1
 336 656 l 1x09
 336 640 l 1
 352 640 l 1
 352 624 l 1
 368 624 l 1x22
 368 608 l 1x06
 368 592 l 1x0a
 384 592 l 1x09
 384 576 l 1
 384 560 l 1
 384 544 l 1
 384 528 l 1x11
 368 528 l 1
 368 512 l 1
 368 496 l 1x12
 352 496 l 1
 352 480 l 1
 336 480 l 1
 336 464 l 1
 320 464 l 1
 320 448 l 1x11
 304 448 l 1
 304 432 l 1
 288 432 l 1
 288 416 l 1
 272 416 l 1
 272 400 l 1
 256 400 l 1
 256 384 l 1
 240 384 l 1x92
 240 368 l 1
 224 368 l 1
 224 352 l 1
 240 352 l 1
 256 352 l 1
 272 352 l 1
 288 352 l 1
 304 352 l 1x42
 320 352 l 1x41
 320 368 l 1
 320 384 l 1x81
 336 384 l 1
 352 384 l 1
 368 384 l 1x82
 384 384 l 1x81
 384 368 l 1
 384 352 l 1x41
 384 336 l 1
 384 320 l 1
 384 304 l 1
 384 288 l 1x81
 368 288 l 1x82
EndSplineSet
Validated: 1
EndChar

StartChar: SUPERSCRIPT
Encoding: 179 179 116
Width: 512
GlyphClass: 1
Flags: W
HStem: 288 64<208 304> 304 64<192 208 304 320> 336 48<144 160> 352 32<128 144> 448 64<224 304> 576 48<144 160> 576 32<128 144> 592 64<192 208 304 320> 608 64<208 304>
VStem: 128 80<352 368 592 608> 128 64<368 384 576 592> 304 64<352 368 592 608> 320 64<368 432 528 592>
LayerCount: 2
Fore
SplineSet
288 288 m 1x8810
 272 288 l 1
 256 288 l 1
 240 288 l 1
 224 288 l 1
 208 288 l 1x8850
 208 304 l 1x4850
 192 304 l 1
 176 304 l 1x4820
 176 320 l 1
 160 320 l 1
 160 336 l 1
 144 336 l 1x2820
 144 352 l 1
 128 352 l 1x1840
 128 368 l 1x4840
 128 384 l 1x1820
 144 384 l 1
 160 384 l 1x2820
 176 384 l 1
 192 384 l 1x1820
 192 368 l 1x4820
 208 368 l 1x4840
 208 352 l 1
 224 352 l 1
 240 352 l 1
 256 352 l 1
 272 352 l 1
 288 352 l 1
 304 352 l 1x8850
 304 368 l 1x4850
 320 368 l 1x4808
 320 384 l 1
 320 400 l 1
 320 416 l 1
 320 432 l 1x1808
 304 432 l 1
 304 448 l 1
 288 448 l 1
 272 448 l 1
 256 448 l 1
 240 448 l 1
 224 448 l 1
 224 464 l 1
 224 480 l 1
 224 496 l 1
 224 512 l 1
 240 512 l 1
 256 512 l 1
 272 512 l 1
 288 512 l 1
 304 512 l 1
 304 528 l 1x1810
 320 528 l 1
 320 544 l 1
 320 560 l 1
 320 576 l 1x1a08
 320 592 l 1x0908
 304 592 l 1x0910
 304 608 l 1
 288 608 l 1
 272 608 l 1
 256 608 l 1
 240 608 l 1
 224 608 l 1
 208 608 l 1x08d0
 208 592 l 1x0950
 192 592 l 1x0920
 192 576 l 1
 176 576 l 1x0a20
 160 576 l 1
 144 576 l 1x0c20
 128 576 l 1x0a20
 128 592 l 1x0940
 128 608 l 1
 144 608 l 1x0a40
 144 624 l 1
 160 624 l 1x0c40
 160 640 l 1
 176 640 l 1
 176 656 l 1
 192 656 l 1x0920
 208 656 l 1x0940
 208 672 l 1
 224 672 l 1
 240 672 l 1
 256 672 l 1
 272 672 l 1
 288 672 l 1
 304 672 l 1x08d0
 304 656 l 1x0950
 320 656 l 1
 336 656 l 1x0908
 336 640 l 1
 352 640 l 1
 352 624 l 1
 368 624 l 1x0c10
 368 608 l 1x0890
 368 592 l 1x0910
 384 592 l 1x0908
 384 576 l 1
 384 560 l 1
 384 544 l 1
 384 528 l 1
 384 512 l 1x0a08
 368 512 l 1
 368 496 l 1
 352 496 l 1
 352 480 l 1
 352 464 l 1
 368 464 l 1
 368 448 l 1x0a10
 384 448 l 1
 384 432 l 1
 384 416 l 1
 384 400 l 1
 384 384 l 1x1a08
 384 368 l 1x4808
 368 368 l 1x4810
 368 352 l 1x1810
 368 336 l 1
 352 336 l 1x2810
 352 320 l 1
 336 320 l 1
 336 304 l 1
 320 304 l 1x4808
 304 304 l 1x4810
 304 288 l 1
 288 288 l 1x8810
EndSplineSet
Validated: 1
EndChar

StartChar: ACUTE
Encoding: 180 180 117
Width: 512
GlyphClass: 1
Flags: W
HStem: 512 48<192 208>
VStem: 336 48<688 704>
LayerCount: 2
Fore
SplineSet
240 512 m 1
 224 512 l 1
 208 512 l 1
 192 512 l 1
 192 528 l 1
 192 544 l 1
 192 560 l 1
 208 560 l 1
 208 576 l 1
 224 576 l 1
 224 592 l 1
 240 592 l 1
 240 608 l 1
 256 608 l 1
 256 624 l 1
 272 624 l 1
 272 640 l 1
 288 640 l 1
 288 656 l 1
 304 656 l 1
 304 672 l 1
 320 672 l 1
 320 688 l 1
 336 688 l 1
 336 704 l 1
 352 704 l 1
 368 704 l 1
 384 704 l 1
 384 688 l 1
 384 672 l 1
 384 656 l 1
 384 640 l 1
 368 640 l 1
 368 624 l 1
 352 624 l 1
 352 608 l 1
 336 608 l 1
 336 592 l 1
 320 592 l 1
 320 576 l 1
 304 576 l 1
 304 560 l 1
 288 560 l 1
 288 544 l 1
 272 544 l 1
 272 528 l 1
 256 528 l 1
 256 512 l 1
 240 512 l 1
EndSplineSet
Validated: 1
EndChar

StartChar: MICRO
Encoding: 181 181 118
Width: 512
GlyphClass: 1
Flags: W
HStem: -192 21G<64 128> 0 64<400 480> 24 40<130.516 317.484 386.516 400.186> 428 20G<64 128 320 384>
VStem: 64 64<-192 24 65.4394 448> 320 64<65.4394 448>
LayerCount: 2
Fore
SplineSet
128 24 m 1xbc
 128 -192 l 1
 64 -192 l 1
 64 448 l 1
 128 448 l 1
 128 96 l 1
 128 78.3359375 142.3359375 64 160 64 c 1
 288 64 l 1xbc
 305.6640625 64 320 78.3359375 320 96 c 1
 320 448 l 1
 384 448 l 1
 384 96 l 1
 384 78.3359375 398.3359375 64 416 64 c 1
 480 64 l 1
 480 0 l 1
 400 0 l 1xdc
 400 7 l 1
 404.275939205 19.246359221 389.379707289 26.9669341218 368 24 c 1
 128 24 l 1xbc
EndSplineSet
Validated: 33
EndChar

StartChar: PILCROW
Encoding: 182 182 119
Width: 512
GlyphClass: 1
Flags: W
HStem: 0 21G<224 288 384 448> 320 64<160 224> 576 64<160 224 288 384>
VStem: 64 80<400 416 544 560> 64 64<416 544> 80 80<384 400 560 576> 224 64<0 320 384 576> 384 64<0 576>
LayerCount: 2
Fore
SplineSet
432 0 m 1xe7
 416 0 l 1
 400 0 l 1
 384 0 l 1
 384 16 l 1
 384 32 l 1
 384 48 l 1
 384 64 l 1
 384 80 l 1
 384 96 l 1
 384 112 l 1
 384 128 l 1
 384 144 l 1
 384 160 l 1
 384 176 l 1
 384 192 l 1
 384 208 l 1
 384 224 l 1
 384 240 l 1
 384 256 l 1
 384 272 l 1
 384 288 l 1
 384 304 l 1
 384 320 l 1
 384 336 l 1
 384 352 l 1
 384 368 l 1
 384 384 l 1
 384 400 l 1
 384 416 l 1
 384 432 l 1
 384 448 l 1
 384 464 l 1
 384 480 l 1
 384 496 l 1
 384 512 l 1
 384 528 l 1
 384 544 l 1
 384 560 l 1
 384 576 l 1
 368 576 l 1
 352 576 l 1
 336 576 l 1
 320 576 l 1
 304 576 l 1
 288 576 l 1
 288 560 l 1
 288 544 l 1
 288 528 l 1
 288 512 l 1
 288 496 l 1
 288 480 l 1
 288 464 l 1
 288 448 l 1
 288 432 l 1
 288 416 l 1
 288 400 l 1
 288 384 l 1
 288 368 l 1
 288 352 l 1
 288 336 l 1
 288 320 l 1
 288 304 l 1
 288 288 l 1
 288 272 l 1
 288 256 l 1
 288 240 l 1
 288 224 l 1
 288 208 l 1
 288 192 l 1
 288 176 l 1
 288 160 l 1
 288 144 l 1
 288 128 l 1
 288 112 l 1
 288 96 l 1
 288 80 l 1
 288 64 l 1
 288 48 l 1
 288 32 l 1
 288 16 l 1
 288 0 l 1
 272 0 l 1
 256 0 l 1
 240 0 l 1
 224 0 l 1
 224 16 l 1
 224 32 l 1
 224 48 l 1
 224 64 l 1
 224 80 l 1
 224 96 l 1
 224 112 l 1
 224 128 l 1
 224 144 l 1
 224 160 l 1
 224 176 l 1
 224 192 l 1
 224 208 l 1
 224 224 l 1
 224 240 l 1
 224 256 l 1
 224 272 l 1
 224 288 l 1
 224 304 l 1
 224 320 l 1
 208 320 l 1
 192 320 l 1
 176 320 l 1
 160 320 l 1xe7
 144 320 l 1
 144 336 l 1xf3
 128 336 l 1xeb
 112 336 l 1
 112 352 l 1
 96 352 l 1
 96 368 l 1
 80 368 l 1
 80 384 l 1
 80 400 l 1xe7
 64 400 l 1
 64 416 l 1xf3
 64 432 l 1
 64 448 l 1
 64 464 l 1
 64 480 l 1
 64 496 l 1
 64 512 l 1
 64 528 l 1xeb
 64 544 l 1
 64 560 l 1xf3
 80 560 l 1
 80 576 l 1
 80 592 l 1xe7
 96 592 l 1
 96 608 l 1
 112 608 l 1
 112 624 l 1
 128 624 l 1xeb
 144 624 l 1
 144 640 l 1xf3
 160 640 l 1
 176 640 l 1
 192 640 l 1
 208 640 l 1
 224 640 l 1
 240 640 l 1
 256 640 l 1
 272 640 l 1
 288 640 l 1
 304 640 l 1
 320 640 l 1
 336 640 l 1
 352 640 l 1
 368 640 l 1
 384 640 l 1
 400 640 l 1
 416 640 l 1
 432 640 l 1
 448 640 l 1
 448 624 l 1
 448 608 l 1
 448 592 l 1
 448 576 l 1
 448 560 l 1
 448 544 l 1
 448 528 l 1
 448 512 l 1
 448 496 l 1
 448 480 l 1
 448 464 l 1
 448 448 l 1
 448 432 l 1
 448 416 l 1
 448 400 l 1
 448 384 l 1
 448 368 l 1
 448 352 l 1
 448 336 l 1
 448 320 l 1
 448 304 l 1
 448 288 l 1
 448 272 l 1
 448 256 l 1
 448 240 l 1
 448 224 l 1
 448 208 l 1
 448 192 l 1
 448 176 l 1
 448 160 l 1
 448 144 l 1
 448 128 l 1
 448 112 l 1
 448 96 l 1
 448 80 l 1
 448 64 l 1
 448 48 l 1
 448 32 l 1
 448 16 l 1
 448 0 l 1
 432 0 l 1xe7
208 384 m 1
 224 384 l 1
 224 400 l 1
 224 416 l 1
 224 432 l 1
 224 448 l 1
 224 464 l 1
 224 480 l 1
 224 496 l 1
 224 512 l 1
 224 528 l 1
 224 544 l 1
 224 560 l 1
 224 576 l 1
 208 576 l 1
 192 576 l 1
 176 576 l 1
 160 576 l 1
 160 560 l 1xe7
 144 560 l 1
 144 544 l 1xf3
 128 544 l 1
 128 528 l 1
 128 512 l 1
 128 496 l 1
 128 480 l 1
 128 464 l 1
 128 448 l 1
 128 432 l 1
 128 416 l 1xeb
 144 416 l 1
 144 400 l 1xf3
 160 400 l 1
 160 384 l 1
 176 384 l 1
 192 384 l 1
 208 384 l 1
EndSplineSet
Validated: 1
EndChar

StartChar: MIDDLE
Encoding: 183 183 120
Width: 512
GlyphClass: 1
Flags: W
HStem: 288 96<224 288>
VStem: 224 64<288 384>
LayerCount: 2
Fore
SplineSet
272 288 m 1
 256 288 l 1
 240 288 l 1
 224 288 l 1
 224 304 l 1
 224 320 l 1
 224 336 l 1
 224 352 l 1
 224 368 l 1
 224 384 l 1
 240 384 l 1
 256 384 l 1
 272 384 l 1
 288 384 l 1
 288 368 l 1
 288 352 l 1
 288 336 l 1
 288 320 l 1
 288 304 l 1
 288 288 l 1
 272 288 l 1
EndSplineSet
Validated: 1
EndChar

StartChar: CEDILLA
Encoding: 184 184 121
Width: 512
GlyphClass: 1
Flags: W
HStem: -192 64<160 192> -20 20G<224 288>
VStem: 160 48<-192 -176> 224 64<-96 0>
LayerCount: 2
Fore
SplineSet
192 -192 m 1
 176 -192 l 1
 160 -192 l 1
 160 -176 l 1
 160 -160 l 1
 160 -144 l 1
 160 -128 l 1
 176 -128 l 1
 192 -128 l 1
 192 -112 l 1
 208 -112 l 1
 208 -96 l 1
 224 -96 l 1
 224 -80 l 1
 224 -64 l 1
 224 -48 l 1
 224 -32 l 1
 224 -16 l 1
 224 0 l 1
 240 0 l 1
 256 0 l 1
 272 0 l 1
 288 0 l 1
 288 -16 l 1
 288 -32 l 1
 288 -48 l 1
 288 -64 l 1
 288 -80 l 1
 288 -96 l 1
 288 -112 l 1
 272 -112 l 1
 272 -128 l 1
 272 -144 l 1
 256 -144 l 1
 256 -160 l 1
 240 -160 l 1
 240 -176 l 1
 224 -176 l 1
 208 -176 l 1
 208 -192 l 1
 192 -192 l 1
EndSplineSet
Validated: 1
EndChar

StartChar: SUPERSCRIPT
Encoding: 185 185 122
Width: 512
GlyphClass: 1
Flags: W
HStem: 288 64<160 224 288 352>
VStem: 160 48<560 576> 160 32<544 560> 224 64<352 576 656 672>
LayerCount: 2
Fore
SplineSet
336 288 m 1xd0
 320 288 l 1
 304 288 l 1
 288 288 l 1
 272 288 l 1
 256 288 l 1
 240 288 l 1
 224 288 l 1
 208 288 l 1xd0
 192 288 l 1
 176 288 l 1
 160 288 l 1
 160 304 l 1
 160 320 l 1
 160 336 l 1
 160 352 l 1
 176 352 l 1
 192 352 l 1xb0
 208 352 l 1
 224 352 l 1
 224 368 l 1
 224 384 l 1
 224 400 l 1
 224 416 l 1
 224 432 l 1
 224 448 l 1
 224 464 l 1
 224 480 l 1
 224 496 l 1
 224 512 l 1
 224 528 l 1
 224 544 l 1
 224 560 l 1
 224 576 l 1
 208 576 l 1
 208 560 l 1xd0
 192 560 l 1
 192 544 l 1
 176 544 l 1
 160 544 l 1xb0
 160 560 l 1
 160 576 l 1xd0
 160 592 l 1
 160 608 l 1
 176 608 l 1
 176 624 l 1
 192 624 l 1
 192 640 l 1xb0
 208 640 l 1
 208 656 l 1
 224 656 l 1
 224 672 l 1
 240 672 l 1
 256 672 l 1
 272 672 l 1
 288 672 l 1
 288 656 l 1
 288 640 l 1
 288 624 l 1
 288 608 l 1
 288 592 l 1
 288 576 l 1
 288 560 l 1
 288 544 l 1
 288 528 l 1
 288 512 l 1
 288 496 l 1
 288 480 l 1
 288 464 l 1
 288 448 l 1
 288 432 l 1
 288 416 l 1
 288 400 l 1
 288 384 l 1
 288 368 l 1
 288 352 l 1
 304 352 l 1
 320 352 l 1
 336 352 l 1
 352 352 l 1
 352 336 l 1
 352 320 l 1
 352 304 l 1
 352 288 l 1
 336 288 l 1xd0
EndSplineSet
Validated: 1
EndChar

StartChar: MASCULINE
Encoding: 186 186 123
Width: 512
GlyphClass: 1
Flags: W
HStem: 256 64<128 384> 384 80<208 224 288 304> 384 64<224 288> 400 80<192 208 304 320> 576 80<192 208 304 320> 592 80<208 224 288 304> 608 64<224 288>
VStem: 128 80<464 480 576 592> 128 64<480 576> 144 80<448 464 592 608> 288 80<448 464 592 608> 304 80<464 480 576 592> 320 64<480 576>
LayerCount: 2
Fore
SplineSet
368 256 m 1x8020
 352 256 l 1
 336 256 l 1
 320 256 l 1x8008
 304 256 l 1x8010
 288 256 l 1
 272 256 l 1
 256 256 l 1
 240 256 l 1
 224 256 l 1x8060
 208 256 l 1x81
 192 256 l 1x8080
 176 256 l 1
 160 256 l 1
 144 256 l 1x8040
 128 256 l 1
 128 272 l 1
 128 288 l 1
 128 304 l 1
 128 320 l 1x8080
 144 320 l 1x8040
 160 320 l 1
 176 320 l 1
 192 320 l 1x8080
 208 320 l 1x81
 224 320 l 1
 240 320 l 1
 256 320 l 1
 272 320 l 1
 288 320 l 1x8060
 304 320 l 1x8010
 320 320 l 1x8008
 336 320 l 1
 352 320 l 1
 368 320 l 1x8020
 384 320 l 1
 384 304 l 1
 384 288 l 1
 384 272 l 1
 384 256 l 1x8008
 368 256 l 1x8020
288 384 m 1xc020
 272 384 l 1
 256 384 l 1
 240 384 l 1xa020
 224 384 l 1xc060
 208 384 l 1xc1
 208 400 l 1x91
 192 400 l 1
 176 400 l 1x9080
 176 416 l 1
 160 416 l 1
 160 432 l 1
 144 432 l 1
 144 448 l 1xa040
 144 464 l 1xc040
 128 464 l 1xc1
 128 480 l 1x91
 128 496 l 1
 128 512 l 1
 128 528 l 1
 128 544 l 1
 128 560 l 1x9080
 128 576 l 1x99
 128 592 l 1x85
 144 592 l 1x8440
 144 608 l 1
 144 624 l 1x8240
 160 624 l 1
 160 640 l 1
 176 640 l 1
 176 656 l 1
 192 656 l 1x8880
 208 656 l 1x89
 208 672 l 1x85
 224 672 l 1x8440
 240 672 l 1
 256 672 l 1
 272 672 l 1x8240
 288 672 l 1x8460
 304 672 l 1x8410
 304 656 l 1x8810
 320 656 l 1
 336 656 l 1x8808
 336 640 l 1
 352 640 l 1
 352 624 l 1
 368 624 l 1
 368 608 l 1x8220
 368 592 l 1x8420
 384 592 l 1x8410
 384 576 l 1x8810
 384 560 l 1
 384 544 l 1
 384 528 l 1
 384 512 l 1
 384 496 l 1x8808
 384 480 l 1x9810
 384 464 l 1xc010
 368 464 l 1xc020
 368 448 l 1
 368 432 l 1xa020
 352 432 l 1
 352 416 l 1
 336 416 l 1
 336 400 l 1
 320 400 l 1x9008
 304 400 l 1x9010
 304 384 l 1xc010
 288 384 l 1xc020
272 448 m 1
 288 448 l 1xa060
 288 464 l 1xc060
 304 464 l 1xc010
 304 480 l 1x9010
 320 480 l 1
 320 496 l 1
 320 512 l 1
 320 528 l 1
 320 544 l 1
 320 560 l 1
 320 576 l 1x9808
 304 576 l 1x9810
 304 592 l 1x8410
 288 592 l 1x8420
 288 608 l 1
 272 608 l 1
 256 608 l 1
 240 608 l 1
 224 608 l 1x8260
 224 592 l 1x8460
 208 592 l 1x85
 208 576 l 1x89
 192 576 l 1
 192 560 l 1
 192 544 l 1
 192 528 l 1
 192 512 l 1
 192 496 l 1
 192 480 l 1x9880
 208 480 l 1x99
 208 464 l 1xc1
 224 464 l 1xc040
 224 448 l 1xa040
 240 448 l 1
 256 448 l 1
 272 448 l 1
EndSplineSet
Validated: 1
EndChar

StartChar: RIGHT-POINTING
Encoding: 187 187 124
Width: 512
GlyphClass: 1
Flags: W
HStem: 64 80<128 144 288 304> 64 64<112 128 272 288> 64 48<96 112 256 272> 64 32<80 96 240 256> 64 16<64 80 224 240> 192 64<272 288 432 448> 208 32<288 304 448 464> 304 80<128 144 288 304> 320 64<112 128 272 288> 336 48<96 112 256 272> 352 32<80 96 240 256> 368 16<64 80 224 240>
LayerCount: 2
Fore
SplineSet
224 80 m 1x08
 240 80 l 1x08
 240 96 l 1
 256 96 l 1x10
 256 112 l 1
 272 112 l 1x20
 272 128 l 1
 288 128 l 1x40
 288 144 l 1
 304 144 l 1
 304 160 l 1
 320 160 l 1
 320 176 l 1
 336 176 l 1
 336 192 l 1
 352 192 l 1x84
 352 208 l 1
 368 208 l 1
 368 224 l 1
 368 240 l 1
 352 240 l 1x02
 352 256 l 1
 336 256 l 1
 336 272 l 1
 320 272 l 1
 320 288 l 1
 304 288 l 1
 304 304 l 1
 288 304 l 1x05
 288 320 l 1
 272 320 l 1x0080
 272 336 l 1
 256 336 l 1x0040
 256 352 l 1
 240 352 l 1x0020
 240 368 l 1
 224 368 l 1
 224 384 l 1x0010
 240 384 l 1x0020
 256 384 l 1x0040
 272 384 l 1x0080
 288 384 l 1
 304 384 l 1x01
 320 384 l 1
 320 368 l 1
 336 368 l 1x0010
 336 352 l 1
 352 352 l 1x0020
 352 336 l 1
 368 336 l 1x0040
 368 320 l 1
 384 320 l 1x0080
 384 304 l 1
 400 304 l 1
 400 288 l 1
 416 288 l 1
 416 272 l 1
 432 272 l 1
 432 256 l 1
 448 256 l 1x05
 448 240 l 1
 464 240 l 1
 464 224 l 1
 464 208 l 1
 448 208 l 1x02
 448 192 l 1
 432 192 l 1
 432 176 l 1
 416 176 l 1
 416 160 l 1
 400 160 l 1
 400 144 l 1
 384 144 l 1x84
 384 128 l 1
 368 128 l 1x40
 368 112 l 1
 352 112 l 1x20
 352 96 l 1
 336 96 l 1x10
 336 80 l 1
 320 80 l 1
 320 64 l 1x08
 304 64 l 1
 288 64 l 1x80
 272 64 l 1x40
 256 64 l 1x20
 240 64 l 1x10
 224 64 l 1
 224 80 l 1x08
64 80 m 1
 80 80 l 1x08
 80 96 l 1
 96 96 l 1x10
 96 112 l 1
 112 112 l 1x20
 112 128 l 1
 128 128 l 1x40
 128 144 l 1
 144 144 l 1
 144 160 l 1
 160 160 l 1
 160 176 l 1
 176 176 l 1
 176 192 l 1
 192 192 l 1x84
 192 208 l 1
 208 208 l 1
 208 224 l 1
 208 240 l 1
 192 240 l 1x02
 192 256 l 1
 176 256 l 1
 176 272 l 1
 160 272 l 1
 160 288 l 1
 144 288 l 1
 144 304 l 1
 128 304 l 1x05
 128 320 l 1
 112 320 l 1x0080
 112 336 l 1
 96 336 l 1x0040
 96 352 l 1
 80 352 l 1x0020
 80 368 l 1
 64 368 l 1
 64 384 l 1x0010
 80 384 l 1x0020
 96 384 l 1x0040
 112 384 l 1x0080
 128 384 l 1
 144 384 l 1x01
 160 384 l 1
 160 368 l 1
 176 368 l 1x0010
 176 352 l 1
 192 352 l 1x0020
 192 336 l 1
 208 336 l 1x0040
 208 320 l 1
 224 320 l 1x0080
 224 304 l 1
 240 304 l 1
 240 288 l 1
 256 288 l 1
 256 272 l 1
 272 272 l 1
 272 256 l 1
 288 256 l 1x05
 288 240 l 1
 304 240 l 1
 304 224 l 1
 304 208 l 1
 288 208 l 1x02
 288 192 l 1
 272 192 l 1
 272 176 l 1
 256 176 l 1
 256 160 l 1
 240 160 l 1
 240 144 l 1
 224 144 l 1x84
 224 128 l 1
 208 128 l 1x40
 208 112 l 1
 192 112 l 1x20
 192 96 l 1
 176 96 l 1x10
 176 80 l 1
 160 80 l 1
 160 64 l 1x08
 144 64 l 1
 128 64 l 1x80
 112 64 l 1x40
 96 64 l 1x20
 80 64 l 1x10
 64 64 l 1
 64 80 l 1
EndSplineSet
Validated: 513
EndChar

StartChar: VULGAR
Encoding: 188 188 125
Width: 512
GlyphClass: 1
Flags: W
HStem: -32 64<288 352 416 480> 384 64<32 96 160 224> 640 21G<32 64>
VStem: 32 48<656 672> 32 32<640 656> 96 64<448 672 752 768> 224 64<32 224> 352 64<-128 -32 32 160>
LayerCount: 2
Fore
SplineSet
400 -128 m 1xe7
 384 -128 l 1
 368 -128 l 1
 352 -128 l 1
 352 -112 l 1
 352 -96 l 1
 352 -80 l 1
 352 -64 l 1
 352 -48 l 1
 352 -32 l 1
 336 -32 l 1
 320 -32 l 1
 304 -32 l 1
 288 -32 l 1
 272 -32 l 1
 256 -32 l 1
 240 -32 l 1
 224 -32 l 1
 224 -16 l 1
 224 0 l 1
 224 16 l 1
 224 32 l 1
 224 48 l 1
 224 64 l 1
 224 80 l 1
 224 96 l 1
 224 112 l 1
 224 128 l 1
 224 144 l 1
 224 160 l 1
 224 176 l 1
 224 192 l 1
 224 208 l 1
 224 224 l 1
 240 224 l 1
 256 224 l 1
 272 224 l 1
 288 224 l 1
 288 208 l 1
 288 192 l 1
 288 176 l 1
 288 160 l 1
 288 144 l 1
 288 128 l 1
 288 112 l 1
 288 96 l 1
 288 80 l 1
 288 64 l 1
 288 48 l 1
 288 32 l 1
 304 32 l 1
 320 32 l 1
 336 32 l 1
 352 32 l 1
 352 48 l 1
 352 64 l 1
 352 80 l 1
 352 96 l 1
 352 112 l 1
 352 128 l 1
 352 144 l 1
 352 160 l 1
 368 160 l 1
 384 160 l 1
 400 160 l 1
 416 160 l 1
 416 144 l 1
 416 128 l 1
 416 112 l 1
 416 96 l 1
 416 80 l 1
 416 64 l 1
 416 48 l 1
 416 32 l 1
 432 32 l 1
 448 32 l 1
 464 32 l 1
 480 32 l 1
 480 16 l 1
 480 0 l 1
 480 -16 l 1
 480 -32 l 1
 464 -32 l 1
 448 -32 l 1
 432 -32 l 1
 416 -32 l 1
 416 -48 l 1
 416 -64 l 1
 416 -80 l 1
 416 -96 l 1
 416 -112 l 1
 416 -128 l 1
 400 -128 l 1xe7
80 96 m 1xf7
 64 96 l 1
 48 96 l 1
 32 96 l 1
 32 112 l 1
 32 128 l 1
 32 144 l 1
 32 160 l 1
 48 160 l 1
 48 176 l 1
 64 176 l 1
 64 192 l 1xef
 80 192 l 1
 80 208 l 1
 96 208 l 1
 96 224 l 1
 112 224 l 1
 112 240 l 1
 128 240 l 1
 128 256 l 1
 144 256 l 1
 144 272 l 1
 160 272 l 1
 160 288 l 1
 176 288 l 1
 176 304 l 1
 192 304 l 1
 192 320 l 1
 208 320 l 1
 208 336 l 1
 224 336 l 1
 224 352 l 1
 240 352 l 1
 240 368 l 1
 256 368 l 1
 256 384 l 1
 272 384 l 1
 272 400 l 1
 288 400 l 1
 288 416 l 1
 304 416 l 1
 304 432 l 1
 320 432 l 1
 320 448 l 1
 336 448 l 1
 336 464 l 1
 352 464 l 1
 352 480 l 1
 368 480 l 1
 368 496 l 1
 384 496 l 1
 384 512 l 1
 400 512 l 1
 400 528 l 1
 416 528 l 1
 416 544 l 1
 432 544 l 1
 448 544 l 1
 464 544 l 1
 480 544 l 1
 480 528 l 1
 480 512 l 1
 480 496 l 1
 480 480 l 1
 464 480 l 1
 464 464 l 1
 448 464 l 1
 448 448 l 1
 432 448 l 1
 432 432 l 1
 416 432 l 1
 416 416 l 1
 400 416 l 1
 400 400 l 1
 384 400 l 1
 384 384 l 1
 368 384 l 1
 368 368 l 1
 352 368 l 1
 352 352 l 1
 336 352 l 1
 336 336 l 1
 320 336 l 1
 320 320 l 1
 304 320 l 1
 304 304 l 1
 288 304 l 1
 288 288 l 1
 272 288 l 1
 272 272 l 1
 256 272 l 1
 256 256 l 1
 240 256 l 1
 240 240 l 1
 224 240 l 1
 224 224 l 1
 208 224 l 1
 208 208 l 1
 192 208 l 1
 192 192 l 1
 176 192 l 1
 176 176 l 1
 160 176 l 1
 160 160 l 1
 144 160 l 1
 144 144 l 1
 128 144 l 1
 128 128 l 1
 112 128 l 1
 112 112 l 1
 96 112 l 1
 96 96 l 1
 80 96 l 1xf7
208 384 m 1
 192 384 l 1
 176 384 l 1
 160 384 l 1
 144 384 l 1
 128 384 l 1
 112 384 l 1
 96 384 l 1
 80 384 l 1xf7
 64 384 l 1
 48 384 l 1
 32 384 l 1
 32 400 l 1
 32 416 l 1
 32 432 l 1
 32 448 l 1
 48 448 l 1
 64 448 l 1xef
 80 448 l 1
 96 448 l 1
 96 464 l 1
 96 480 l 1
 96 496 l 1
 96 512 l 1
 96 528 l 1
 96 544 l 1
 96 560 l 1
 96 576 l 1
 96 592 l 1
 96 608 l 1
 96 624 l 1
 96 640 l 1
 96 656 l 1
 96 672 l 1
 80 672 l 1
 80 656 l 1xf7
 64 656 l 1
 64 640 l 1
 48 640 l 1
 32 640 l 1xef
 32 656 l 1
 32 672 l 1xf7
 32 688 l 1
 32 704 l 1
 48 704 l 1
 48 720 l 1
 64 720 l 1
 64 736 l 1xef
 80 736 l 1
 80 752 l 1xf7
 96 752 l 1
 96 768 l 1
 112 768 l 1
 128 768 l 1
 144 768 l 1
 160 768 l 1
 160 752 l 1
 160 736 l 1
 160 720 l 1
 160 704 l 1
 160 688 l 1
 160 672 l 1
 160 656 l 1
 160 640 l 1
 160 624 l 1
 160 608 l 1
 160 592 l 1
 160 576 l 1
 160 560 l 1
 160 544 l 1
 160 528 l 1
 160 512 l 1
 160 496 l 1
 160 480 l 1
 160 464 l 1
 160 448 l 1
 176 448 l 1
 192 448 l 1
 208 448 l 1
 224 448 l 1
 224 432 l 1
 224 416 l 1
 224 400 l 1
 224 384 l 1
 208 384 l 1
EndSplineSet
Validated: 5
EndChar

StartChar: VULGAR
Encoding: 189 189 126
Width: 512
GlyphClass: 1
Flags: W
HStem: -128 96<256 272 416 480> -128 64<224 240 320 416> 160 48<240 256> 160 32<224 240> 176 64<288 304 400 416> 192 64<304 400> 384 64<32 96 160 224> 640 21G<32 64>
VStem: 32 48<656 672> 32 32<640 656> 96 64<448 672 752 768> 400 64<96 112 176 192> 416 64<-64 -32 112 176 528 544>
LayerCount: 2
Fore
SplineSet
464 -128 m 1x8330
 448 -128 l 1
 432 -128 l 1
 416 -128 l 1x8328
 400 -128 l 1
 384 -128 l 1
 368 -128 l 1
 352 -128 l 1
 336 -128 l 1
 320 -128 l 1
 304 -128 l 1
 288 -128 l 1x4330
 272 -128 l 1
 256 -128 l 1x8330
 240 -128 l 1
 224 -128 l 1
 224 -112 l 1
 224 -96 l 1
 224 -80 l 1
 224 -64 l 1
 240 -64 l 1x4330
 240 -48 l 1
 256 -48 l 1
 256 -32 l 1
 272 -32 l 1
 272 -16 l 1
 288 -16 l 1
 288 0 l 1
 304 0 l 1
 304 16 l 1
 320 16 l 1
 320 32 l 1
 336 32 l 1
 336 48 l 1
 352 48 l 1
 352 64 l 1
 368 64 l 1
 368 80 l 1
 384 80 l 1
 384 96 l 1
 400 96 l 1
 400 112 l 1x8330
 416 112 l 1
 416 128 l 1
 416 144 l 1
 416 160 l 1x9328
 416 176 l 1x0b28
 400 176 l 1x0b30
 400 192 l 1
 384 192 l 1
 368 192 l 1
 352 192 l 1
 336 192 l 1
 320 192 l 1
 304 192 l 1x0730
 304 176 l 1
 288 176 l 1x0b30
 288 160 l 1
 272 160 l 1x1330
 256 160 l 1
 240 160 l 1x2330
 224 160 l 1x1330
 224 176 l 1x0b30
 224 192 l 1
 240 192 l 1x1330
 240 208 l 1
 256 208 l 1x2330
 256 224 l 1
 272 224 l 1
 272 240 l 1
 288 240 l 1
 304 240 l 1x0b30
 304 256 l 1
 320 256 l 1
 336 256 l 1
 352 256 l 1
 368 256 l 1
 384 256 l 1
 400 256 l 1x0730
 400 240 l 1x0b30
 416 240 l 1
 432 240 l 1x0b28
 432 224 l 1
 448 224 l 1
 448 208 l 1
 464 208 l 1x2330
 464 192 l 1x0730
 464 176 l 1x0b30
 480 176 l 1x0b28
 480 160 l 1
 480 144 l 1
 480 128 l 1
 480 112 l 1x1328
 464 112 l 1
 464 96 l 1
 464 80 l 1x1330
 448 80 l 1
 448 64 l 1
 432 64 l 1
 432 48 l 1
 416 48 l 1
 416 32 l 1x1328
 400 32 l 1
 400 16 l 1
 384 16 l 1
 384 0 l 1
 368 0 l 1
 368 -16 l 1
 352 -16 l 1
 352 -32 l 1
 336 -32 l 1x9330
 336 -48 l 1
 320 -48 l 1
 320 -64 l 1
 336 -64 l 1
 352 -64 l 1
 368 -64 l 1
 384 -64 l 1
 400 -64 l 1x4330
 416 -64 l 1x4328
 416 -48 l 1
 416 -32 l 1x8328
 432 -32 l 1
 448 -32 l 1
 464 -32 l 1x8330
 480 -32 l 1x8328
 480 -48 l 1
 480 -64 l 1x4328
 480 -80 l 1
 480 -96 l 1
 480 -112 l 1
 480 -128 l 1x8328
 464 -128 l 1x8330
80 96 m 1x13b0
 64 96 l 1
 48 96 l 1
 32 96 l 1
 32 112 l 1
 32 128 l 1
 32 144 l 1
 32 160 l 1
 48 160 l 1x1360
 48 176 l 1
 64 176 l 1x0b60
 64 192 l 1x0760
 80 192 l 1x07a0
 80 208 l 1
 96 208 l 1x23a0
 96 224 l 1
 112 224 l 1
 112 240 l 1
 128 240 l 1x0ba0
 128 256 l 1
 144 256 l 1
 144 272 l 1
 160 272 l 1
 160 288 l 1
 176 288 l 1
 176 304 l 1
 192 304 l 1
 192 320 l 1
 208 320 l 1
 208 336 l 1
 224 336 l 1
 224 352 l 1
 240 352 l 1
 240 368 l 1
 256 368 l 1
 256 384 l 1
 272 384 l 1
 272 400 l 1
 288 400 l 1
 288 416 l 1
 304 416 l 1
 304 432 l 1
 320 432 l 1
 320 448 l 1
 336 448 l 1
 336 464 l 1
 352 464 l 1
 352 480 l 1
 368 480 l 1
 368 496 l 1
 384 496 l 1
 384 512 l 1
 400 512 l 1
 400 528 l 1x07b0
 416 528 l 1
 416 544 l 1x0728
 432 544 l 1
 448 544 l 1
 464 544 l 1x0730
 480 544 l 1
 480 528 l 1
 480 512 l 1
 480 496 l 1
 480 480 l 1x0728
 464 480 l 1
 464 464 l 1x0730
 448 464 l 1
 448 448 l 1
 432 448 l 1
 432 432 l 1
 416 432 l 1
 416 416 l 1x0728
 400 416 l 1
 400 400 l 1
 384 400 l 1
 384 384 l 1
 368 384 l 1
 368 368 l 1
 352 368 l 1
 352 352 l 1
 336 352 l 1
 336 336 l 1
 320 336 l 1
 320 320 l 1
 304 320 l 1
 304 304 l 1
 288 304 l 1
 288 288 l 1
 272 288 l 1
 272 272 l 1
 256 272 l 1
 256 256 l 1
 240 256 l 1x0730
 240 240 l 1
 224 240 l 1x0b30
 224 224 l 1
 208 224 l 1
 208 208 l 1
 192 208 l 1x2330
 192 192 l 1
 176 192 l 1x0730
 176 176 l 1
 160 176 l 1x0b30
 160 160 l 1
 144 160 l 1
 144 144 l 1
 128 144 l 1
 128 128 l 1
 112 128 l 1
 112 112 l 1
 96 112 l 1
 96 96 l 1
 80 96 l 1x13b0
208 384 m 1
 192 384 l 1
 176 384 l 1
 160 384 l 1
 144 384 l 1
 128 384 l 1
 112 384 l 1
 96 384 l 1
 80 384 l 1x03a0
 64 384 l 1
 48 384 l 1
 32 384 l 1
 32 400 l 1
 32 416 l 1
 32 432 l 1
 32 448 l 1
 48 448 l 1
 64 448 l 1x0360
 80 448 l 1
 96 448 l 1
 96 464 l 1
 96 480 l 1
 96 496 l 1
 96 512 l 1
 96 528 l 1
 96 544 l 1
 96 560 l 1
 96 576 l 1
 96 592 l 1
 96 608 l 1
 96 624 l 1
 96 640 l 1
 96 656 l 1
 96 672 l 1
 80 672 l 1
 80 656 l 1x03a0
 64 656 l 1
 64 640 l 1
 48 640 l 1
 32 640 l 1x0360
 32 656 l 1
 32 672 l 1x03a0
 32 688 l 1
 32 704 l 1
 48 704 l 1
 48 720 l 1
 64 720 l 1
 64 736 l 1x0360
 80 736 l 1
 80 752 l 1x03a0
 96 752 l 1
 96 768 l 1
 112 768 l 1
 128 768 l 1
 144 768 l 1
 160 768 l 1
 160 752 l 1
 160 736 l 1
 160 720 l 1
 160 704 l 1
 160 688 l 1
 160 672 l 1
 160 656 l 1
 160 640 l 1
 160 624 l 1
 160 608 l 1
 160 592 l 1
 160 576 l 1
 160 560 l 1
 160 544 l 1
 160 528 l 1
 160 512 l 1
 160 496 l 1
 160 480 l 1
 160 464 l 1
 160 448 l 1
 176 448 l 1
 192 448 l 1
 208 448 l 1
 224 448 l 1
 224 432 l 1
 224 416 l 1
 224 400 l 1
 224 384 l 1
 208 384 l 1
EndSplineSet
Validated: 1
EndChar

StartChar: VULGAR
Encoding: 190 190 127
Width: 512
GlyphClass: 1
Flags: W
HStem: -32 64<288 352 416 480> 384 64<112 208> 400 64<96 112 208 224> 432 48<48 64> 448 32<32 48> 464 80<272 288 448 464> 544 64<128 208> 672 48<48 64> 672 32<32 48> 688 64<96 112 208 224> 704 64<112 208>
VStem: 32 80<112 128 448 464 688 704> 32 64<96 112 464 480 672 688> 208 64<448 464 688 704> 224 64<32 224 464 528 624 688> 352 64<-128 -32 32 160>
LayerCount: 2
Fore
SplineSet
400 -128 m 1x8003
 384 -128 l 1
 368 -128 l 1
 352 -128 l 1
 352 -112 l 1
 352 -96 l 1
 352 -80 l 1
 352 -64 l 1
 352 -48 l 1
 352 -32 l 1
 336 -32 l 1
 320 -32 l 1
 304 -32 l 1
 288 -32 l 1x8003
 272 -32 l 1x8005
 256 -32 l 1
 240 -32 l 1
 224 -32 l 1
 224 -16 l 1
 224 0 l 1
 224 16 l 1
 224 32 l 1
 224 48 l 1
 224 64 l 1
 224 80 l 1
 224 96 l 1
 224 112 l 1
 224 128 l 1
 224 144 l 1
 224 160 l 1
 224 176 l 1
 224 192 l 1
 224 208 l 1
 224 224 l 1x8003
 240 224 l 1
 256 224 l 1
 272 224 l 1x8005
 288 224 l 1
 288 208 l 1
 288 192 l 1
 288 176 l 1
 288 160 l 1
 288 144 l 1
 288 128 l 1
 288 112 l 1
 288 96 l 1
 288 80 l 1
 288 64 l 1
 288 48 l 1
 288 32 l 1
 304 32 l 1
 320 32 l 1
 336 32 l 1
 352 32 l 1
 352 48 l 1
 352 64 l 1
 352 80 l 1
 352 96 l 1
 352 112 l 1
 352 128 l 1
 352 144 l 1
 352 160 l 1
 368 160 l 1
 384 160 l 1
 400 160 l 1
 416 160 l 1
 416 144 l 1
 416 128 l 1
 416 112 l 1
 416 96 l 1
 416 80 l 1
 416 64 l 1
 416 48 l 1
 416 32 l 1
 432 32 l 1
 448 32 l 1
 464 32 l 1
 480 32 l 1
 480 16 l 1
 480 0 l 1
 480 -16 l 1
 480 -32 l 1
 464 -32 l 1
 448 -32 l 1
 432 -32 l 1
 416 -32 l 1
 416 -48 l 1
 416 -64 l 1
 416 -80 l 1
 416 -96 l 1
 416 -112 l 1
 416 -128 l 1
 400 -128 l 1x8003
80 96 m 1
 64 96 l 1
 48 96 l 1
 32 96 l 1xc009
 32 112 l 1
 32 128 l 1xc011
 32 144 l 1
 32 160 l 1
 48 160 l 1
 48 176 l 1
 64 176 l 1
 64 192 l 1
 80 192 l 1
 80 208 l 1
 96 208 l 1
 96 224 l 1xc009
 112 224 l 1
 112 240 l 1
 128 240 l 1
 128 256 l 1
 144 256 l 1
 144 272 l 1
 160 272 l 1
 160 288 l 1
 176 288 l 1
 176 304 l 1
 192 304 l 1
 192 320 l 1
 208 320 l 1
 208 336 l 1xc015
 224 336 l 1
 224 352 l 1xc003
 240 352 l 1
 240 368 l 1
 256 368 l 1
 256 384 l 1
 272 384 l 1xc005
 272 400 l 1xa005
 288 400 l 1xa003
 288 416 l 1
 304 416 l 1
 304 432 l 1
 320 432 l 1x9003
 320 448 l 1
 336 448 l 1x8803
 336 464 l 1
 352 464 l 1x8403
 352 480 l 1
 368 480 l 1
 368 496 l 1
 384 496 l 1
 384 512 l 1
 400 512 l 1
 400 528 l 1
 416 528 l 1
 416 544 l 1
 432 544 l 1x8a03
 448 544 l 1
 464 544 l 1x8403
 480 544 l 1
 480 528 l 1
 480 512 l 1
 480 496 l 1
 480 480 l 1
 464 480 l 1x8a03
 464 464 l 1
 448 464 l 1x8403
 448 448 l 1
 432 448 l 1x8803
 432 432 l 1
 416 432 l 1x9003
 416 416 l 1
 400 416 l 1
 400 400 l 1
 384 400 l 1xa003
 384 384 l 1
 368 384 l 1
 368 368 l 1
 352 368 l 1
 352 352 l 1
 336 352 l 1
 336 336 l 1
 320 336 l 1
 320 320 l 1
 304 320 l 1
 304 304 l 1
 288 304 l 1
 288 288 l 1xc003
 272 288 l 1
 272 272 l 1xc005
 256 272 l 1
 256 256 l 1
 240 256 l 1
 240 240 l 1
 224 240 l 1
 224 224 l 1xc003
 208 224 l 1
 208 208 l 1
 192 208 l 1
 192 192 l 1
 176 192 l 1
 176 176 l 1
 160 176 l 1
 160 160 l 1
 144 160 l 1
 144 144 l 1
 128 144 l 1
 128 128 l 1
 112 128 l 1
 112 112 l 1xc015
 96 112 l 1
 96 96 l 1xc009
 80 96 l 1
192 384 m 1
 176 384 l 1
 160 384 l 1
 144 384 l 1
 128 384 l 1
 112 384 l 1xc015
 112 400 l 1xa015
 96 400 l 1
 80 400 l 1xa009
 80 416 l 1
 64 416 l 1
 64 432 l 1
 48 432 l 1x9009
 48 448 l 1
 32 448 l 1x8811
 32 464 l 1x8411
 32 480 l 1x8809
 48 480 l 1
 64 480 l 1x9009
 80 480 l 1
 96 480 l 1x8809
 96 464 l 1xa009
 112 464 l 1xa011
 112 448 l 1
 128 448 l 1
 144 448 l 1
 160 448 l 1
 176 448 l 1
 192 448 l 1
 208 448 l 1xc015
 208 464 l 1xa015
 224 464 l 1xa003
 224 480 l 1
 224 496 l 1
 224 512 l 1
 224 528 l 1x8803
 208 528 l 1
 208 544 l 1
 192 544 l 1
 176 544 l 1
 160 544 l 1
 144 544 l 1
 128 544 l 1
 128 560 l 1
 128 576 l 1
 128 592 l 1
 128 608 l 1
 144 608 l 1
 160 608 l 1
 176 608 l 1
 192 608 l 1
 208 608 l 1
 208 624 l 1x8a05
 224 624 l 1
 224 640 l 1
 224 656 l 1
 224 672 l 1x8a83
 224 688 l 1x8043
 208 688 l 1x8045
 208 704 l 1
 192 704 l 1
 176 704 l 1
 160 704 l 1
 144 704 l 1
 128 704 l 1
 112 704 l 1x8035
 112 688 l 1x8055
 96 688 l 1x8049
 96 672 l 1
 80 672 l 1x8089
 64 672 l 1
 48 672 l 1x8109
 32 672 l 1x8089
 32 688 l 1x8051
 32 704 l 1
 48 704 l 1x8091
 48 720 l 1
 64 720 l 1x8111
 64 736 l 1
 80 736 l 1
 80 752 l 1
 96 752 l 1x8049
 112 752 l 1x8051
 112 768 l 1
 128 768 l 1
 144 768 l 1
 160 768 l 1
 176 768 l 1
 192 768 l 1
 208 768 l 1x8035
 208 752 l 1x8055
 224 752 l 1
 240 752 l 1x8043
 240 736 l 1
 256 736 l 1
 256 720 l 1
 272 720 l 1x8105
 272 704 l 1x8025
 272 688 l 1x8045
 288 688 l 1x8043
 288 672 l 1
 288 656 l 1
 288 640 l 1
 288 624 l 1
 288 608 l 1x8283
 272 608 l 1x8285
 272 592 l 1
 256 592 l 1
 256 576 l 1
 256 560 l 1
 272 560 l 1
 272 544 l 1x8405
 288 544 l 1x8403
 288 528 l 1
 288 512 l 1
 288 496 l 1
 288 480 l 1x8803
 288 464 l 1x8403
 272 464 l 1x8405
 272 448 l 1x8805
 272 432 l 1
 256 432 l 1x9005
 256 416 l 1
 240 416 l 1
 240 400 l 1
 224 400 l 1xa003
 208 400 l 1xa005
 208 384 l 1xc005
 192 384 l 1
EndSplineSet
Validated: 5
EndChar

StartChar: INVERTED
Encoding: 191 191 128
Width: 512
GlyphClass: 1
Flags: W
HStem: -64 64<129.886 382.114> 448 21G<224 288> 620 20G<224 288>
VStem: 64 64<1.88625 128> 224 64<282 382 448 640> 384 64<1.88625 64>
CounterMasks: 1 1c
LayerCount: 2
Fore
SplineSet
224 640 m 1
 288 640 l 1
 288 448 l 1
 224 448 l 1
 224 640 l 1
288 246 m 1
 128 128 l 1
 128 32 l 1
 128 14 142 0 160 0 c 1
 352 0 l 1
 370 0 384 14 384 32 c 1
 384 64 l 1
 448 64 l 1
 448 16 l 1
 448 -28 412 -64 368 -64 c 1
 144 -64 l 1
 100 -64 64 -28 64 16 c 1
 64 161 l 5
 224 282 l 1
 224 382 l 1
 288 382 l 1
 288 246 l 1
EndSplineSet
EndChar

StartChar: LATIN
Encoding: 192 192 129
Width: 512
GlyphClass: 1
Flags: W
HStem: 0 21G<64 128 384 448> 288 64<128 384> 544 80<128 144 368 384> 560 80<144 160 352 368> 576 64<160 352> 672 48<304 320> 672 32<320 336> 752 48<176 192> 768 32<160 176>
VStem: 64 64<0 288 352 544> 384 64<0 288 352 544>
LayerCount: 2
Fore
SplineSet
432 0 m 1xe060
 416 0 l 1
 400 0 l 1
 384 0 l 1
 384 16 l 1
 384 32 l 1
 384 48 l 1
 384 64 l 1
 384 80 l 1
 384 96 l 1
 384 112 l 1
 384 128 l 1
 384 144 l 1
 384 160 l 1
 384 176 l 1
 384 192 l 1
 384 208 l 1
 384 224 l 1
 384 240 l 1
 384 256 l 1
 384 272 l 1
 384 288 l 1
 368 288 l 1
 352 288 l 1
 336 288 l 1
 320 288 l 1
 304 288 l 1
 288 288 l 1
 272 288 l 1
 256 288 l 1
 240 288 l 1
 224 288 l 1
 208 288 l 1
 192 288 l 1
 176 288 l 1
 160 288 l 1
 144 288 l 1
 128 288 l 1
 128 272 l 1
 128 256 l 1
 128 240 l 1
 128 224 l 1
 128 208 l 1
 128 192 l 1
 128 176 l 1
 128 160 l 1
 128 144 l 1
 128 128 l 1
 128 112 l 1
 128 96 l 1
 128 80 l 1
 128 64 l 1
 128 48 l 1
 128 32 l 1
 128 16 l 1
 128 0 l 1
 112 0 l 1
 96 0 l 1
 80 0 l 1
 64 0 l 1
 64 16 l 1
 64 32 l 1
 64 48 l 1
 64 64 l 1
 64 80 l 1
 64 96 l 1
 64 112 l 1
 64 128 l 1
 64 144 l 1
 64 160 l 1
 64 176 l 1
 64 192 l 1
 64 208 l 1
 64 224 l 1
 64 240 l 1
 64 256 l 1
 64 272 l 1
 64 288 l 1
 64 304 l 1
 64 320 l 1
 64 336 l 1
 64 352 l 1
 64 368 l 1
 64 384 l 1
 64 400 l 1
 64 416 l 1
 64 432 l 1
 64 448 l 1
 64 464 l 1
 64 480 l 1
 64 496 l 1
 64 512 l 1
 64 528 l 1
 64 544 l 1xe060
 64 560 l 1
 80 560 l 1xd060
 80 576 l 1xc860
 80 592 l 1
 96 592 l 1
 96 608 l 1
 112 608 l 1
 112 624 l 1
 128 624 l 1
 144 624 l 1xe060
 144 640 l 1
 160 640 l 1xd060
 176 640 l 1
 192 640 l 1
 208 640 l 1
 224 640 l 1
 240 640 l 1
 256 640 l 1
 272 640 l 1
 288 640 l 1
 304 640 l 1
 320 640 l 1
 336 640 l 1xc860
 352 640 l 1
 368 640 l 1xd060
 368 624 l 1
 384 624 l 1
 400 624 l 1xe060
 400 608 l 1
 416 608 l 1
 416 592 l 1
 432 592 l 1
 432 576 l 1xc860
 432 560 l 1
 448 560 l 1xd060
 448 544 l 1
 448 528 l 1
 448 512 l 1
 448 496 l 1
 448 480 l 1
 448 464 l 1
 448 448 l 1
 448 432 l 1
 448 416 l 1
 448 400 l 1
 448 384 l 1
 448 368 l 1
 448 352 l 1
 448 336 l 1
 448 320 l 1
 448 304 l 1
 448 288 l 1
 448 272 l 1
 448 256 l 1
 448 240 l 1
 448 224 l 1
 448 208 l 1
 448 192 l 1
 448 176 l 1
 448 160 l 1
 448 144 l 1
 448 128 l 1
 448 112 l 1
 448 96 l 1
 448 80 l 1
 448 64 l 1
 448 48 l 1
 448 32 l 1
 448 16 l 1
 448 0 l 1
 432 0 l 1xe060
368 352 m 1
 384 352 l 1
 384 368 l 1
 384 384 l 1
 384 400 l 1
 384 416 l 1
 384 432 l 1
 384 448 l 1
 384 464 l 1
 384 480 l 1
 384 496 l 1
 384 512 l 1
 384 528 l 1
 384 544 l 1
 368 544 l 1xe060
 368 560 l 1
 352 560 l 1xd060
 352 576 l 1
 336 576 l 1
 320 576 l 1
 304 576 l 1
 288 576 l 1
 272 576 l 1
 256 576 l 1
 240 576 l 1
 224 576 l 1
 208 576 l 1
 192 576 l 1
 176 576 l 1
 160 576 l 1xc860
 160 560 l 1
 144 560 l 1xd060
 144 544 l 1
 128 544 l 1
 128 528 l 1
 128 512 l 1
 128 496 l 1
 128 480 l 1
 128 464 l 1
 128 448 l 1
 128 432 l 1
 128 416 l 1
 128 400 l 1
 128 384 l 1
 128 368 l 1
 128 352 l 1
 144 352 l 1
 160 352 l 1
 176 352 l 1
 192 352 l 1
 208 352 l 1
 224 352 l 1
 240 352 l 1
 256 352 l 1
 272 352 l 1
 288 352 l 1
 304 352 l 1
 320 352 l 1
 336 352 l 1
 352 352 l 1
 368 352 l 1
320 672 m 1xc460
 304 672 l 1xc460
 288 672 l 1
 272 672 l 1
 256 672 l 1
 256 688 l 1
 240 688 l 1
 240 704 l 1
 224 704 l 1xc260
 224 720 l 1
 208 720 l 1
 208 736 l 1
 192 736 l 1
 192 752 l 1
 176 752 l 1xc560
 176 768 l 1
 160 768 l 1
 160 784 l 1
 160 800 l 1xc0e0
 176 800 l 1
 192 800 l 1xc160
 208 800 l 1
 224 800 l 1
 240 800 l 1
 240 784 l 1
 256 784 l 1
 256 768 l 1
 272 768 l 1xc0e0
 272 752 l 1
 288 752 l 1
 288 736 l 1
 304 736 l 1
 304 720 l 1
 320 720 l 1xc560
 320 704 l 1
 336 704 l 1
 336 688 l 1
 336 672 l 1xc260
 320 672 l 1xc460
EndSplineSet
Validated: 1
EndChar

StartChar: LATIN
Encoding: 193 193 130
Width: 512
GlyphClass: 1
Flags: W
HStem: 0 21G<64 128 384 448> 288 64<128 384> 544 80<128 144 368 384> 560 80<144 160 352 368> 576 64<160 352> 672 48<192 208> 672 32<176 192> 752 48<320 336> 768 32<336 352>
VStem: 64 64<0 288 352 544> 384 64<0 288 352 544>
LayerCount: 2
Fore
SplineSet
432 0 m 1xe060
 416 0 l 1
 400 0 l 1
 384 0 l 1
 384 16 l 1
 384 32 l 1
 384 48 l 1
 384 64 l 1
 384 80 l 1
 384 96 l 1
 384 112 l 1
 384 128 l 1
 384 144 l 1
 384 160 l 1
 384 176 l 1
 384 192 l 1
 384 208 l 1
 384 224 l 1
 384 240 l 1
 384 256 l 1
 384 272 l 1
 384 288 l 1
 368 288 l 1
 352 288 l 1
 336 288 l 1
 320 288 l 1
 304 288 l 1
 288 288 l 1
 272 288 l 1
 256 288 l 1
 240 288 l 1
 224 288 l 1
 208 288 l 1
 192 288 l 1
 176 288 l 1
 160 288 l 1
 144 288 l 1
 128 288 l 1
 128 272 l 1
 128 256 l 1
 128 240 l 1
 128 224 l 1
 128 208 l 1
 128 192 l 1
 128 176 l 1
 128 160 l 1
 128 144 l 1
 128 128 l 1
 128 112 l 1
 128 96 l 1
 128 80 l 1
 128 64 l 1
 128 48 l 1
 128 32 l 1
 128 16 l 1
 128 0 l 1
 112 0 l 1
 96 0 l 1
 80 0 l 1
 64 0 l 1
 64 16 l 1
 64 32 l 1
 64 48 l 1
 64 64 l 1
 64 80 l 1
 64 96 l 1
 64 112 l 1
 64 128 l 1
 64 144 l 1
 64 160 l 1
 64 176 l 1
 64 192 l 1
 64 208 l 1
 64 224 l 1
 64 240 l 1
 64 256 l 1
 64 272 l 1
 64 288 l 1
 64 304 l 1
 64 320 l 1
 64 336 l 1
 64 352 l 1
 64 368 l 1
 64 384 l 1
 64 400 l 1
 64 416 l 1
 64 432 l 1
 64 448 l 1
 64 464 l 1
 64 480 l 1
 64 496 l 1
 64 512 l 1
 64 528 l 1
 64 544 l 1xe060
 64 560 l 1
 80 560 l 1xd060
 80 576 l 1xc860
 80 592 l 1
 96 592 l 1
 96 608 l 1
 112 608 l 1
 112 624 l 1
 128 624 l 1
 144 624 l 1xe060
 144 640 l 1
 160 640 l 1xd060
 176 640 l 1
 192 640 l 1
 208 640 l 1
 224 640 l 1
 240 640 l 1
 256 640 l 1
 272 640 l 1
 288 640 l 1
 304 640 l 1
 320 640 l 1
 336 640 l 1xc860
 352 640 l 1
 368 640 l 1xd060
 368 624 l 1
 384 624 l 1
 400 624 l 1xe060
 400 608 l 1
 416 608 l 1
 416 592 l 1
 432 592 l 1
 432 576 l 1xc860
 432 560 l 1
 448 560 l 1xd060
 448 544 l 1
 448 528 l 1
 448 512 l 1
 448 496 l 1
 448 480 l 1
 448 464 l 1
 448 448 l 1
 448 432 l 1
 448 416 l 1
 448 400 l 1
 448 384 l 1
 448 368 l 1
 448 352 l 1
 448 336 l 1
 448 320 l 1
 448 304 l 1
 448 288 l 1
 448 272 l 1
 448 256 l 1
 448 240 l 1
 448 224 l 1
 448 208 l 1
 448 192 l 1
 448 176 l 1
 448 160 l 1
 448 144 l 1
 448 128 l 1
 448 112 l 1
 448 96 l 1
 448 80 l 1
 448 64 l 1
 448 48 l 1
 448 32 l 1
 448 16 l 1
 448 0 l 1
 432 0 l 1xe060
368 352 m 1
 384 352 l 1
 384 368 l 1
 384 384 l 1
 384 400 l 1
 384 416 l 1
 384 432 l 1
 384 448 l 1
 384 464 l 1
 384 480 l 1
 384 496 l 1
 384 512 l 1
 384 528 l 1
 384 544 l 1
 368 544 l 1xe060
 368 560 l 1
 352 560 l 1xd060
 352 576 l 1
 336 576 l 1
 320 576 l 1
 304 576 l 1
 288 576 l 1
 272 576 l 1
 256 576 l 1
 240 576 l 1
 224 576 l 1
 208 576 l 1
 192 576 l 1
 176 576 l 1
 160 576 l 1xc860
 160 560 l 1
 144 560 l 1xd060
 144 544 l 1
 128 544 l 1
 128 528 l 1
 128 512 l 1
 128 496 l 1
 128 480 l 1
 128 464 l 1
 128 448 l 1
 128 432 l 1
 128 416 l 1
 128 400 l 1
 128 384 l 1
 128 368 l 1
 128 352 l 1
 144 352 l 1
 160 352 l 1
 176 352 l 1
 192 352 l 1
 208 352 l 1
 224 352 l 1
 240 352 l 1
 256 352 l 1
 272 352 l 1
 288 352 l 1
 304 352 l 1
 320 352 l 1
 336 352 l 1
 352 352 l 1
 368 352 l 1
240 672 m 1xc260
 224 672 l 1xc260
 208 672 l 1
 192 672 l 1xc460
 176 672 l 1
 176 688 l 1
 176 704 l 1
 192 704 l 1xc260
 192 720 l 1
 208 720 l 1
 208 736 l 1
 224 736 l 1
 224 752 l 1
 240 752 l 1xc560
 240 768 l 1
 256 768 l 1
 256 784 l 1
 272 784 l 1
 272 800 l 1
 288 800 l 1
 304 800 l 1xc0e0
 320 800 l 1
 336 800 l 1xc160
 352 800 l 1
 352 784 l 1
 352 768 l 1
 336 768 l 1xc0e0
 336 752 l 1
 320 752 l 1
 320 736 l 1
 304 736 l 1
 304 720 l 1
 288 720 l 1xc560
 288 704 l 1
 272 704 l 1
 272 688 l 1
 256 688 l 1
 256 672 l 1
 240 672 l 1xc260
EndSplineSet
Validated: 1
EndChar

StartChar: LATIN
Encoding: 194 194 131
Width: 512
GlyphClass: 1
Flags: W
HStem: 0 21G<64 128 384 448> 288 64<128 384> 544 80<128 144 368 384> 560 80<144 160 352 368> 576 64<160 352> 704 80<176 192 320 336> 704 64<160 176 336 352> 704 48<144 160 352 368> 704 32<128 144 368 384> 752 80<240 272>
VStem: 64 64<0 288 352 544> 384 64<0 288 352 544>
LayerCount: 2
Fore
SplineSet
432 0 m 1xe030
 416 0 l 1
 400 0 l 1
 384 0 l 1
 384 16 l 1
 384 32 l 1
 384 48 l 1
 384 64 l 1
 384 80 l 1
 384 96 l 1
 384 112 l 1
 384 128 l 1
 384 144 l 1
 384 160 l 1
 384 176 l 1
 384 192 l 1
 384 208 l 1
 384 224 l 1
 384 240 l 1
 384 256 l 1
 384 272 l 1
 384 288 l 1
 368 288 l 1
 352 288 l 1
 336 288 l 1
 320 288 l 1
 304 288 l 1
 288 288 l 1
 272 288 l 1
 256 288 l 1
 240 288 l 1
 224 288 l 1
 208 288 l 1
 192 288 l 1
 176 288 l 1
 160 288 l 1
 144 288 l 1
 128 288 l 1
 128 272 l 1
 128 256 l 1
 128 240 l 1
 128 224 l 1
 128 208 l 1
 128 192 l 1
 128 176 l 1
 128 160 l 1
 128 144 l 1
 128 128 l 1
 128 112 l 1
 128 96 l 1
 128 80 l 1
 128 64 l 1
 128 48 l 1
 128 32 l 1
 128 16 l 1
 128 0 l 1
 112 0 l 1
 96 0 l 1
 80 0 l 1
 64 0 l 1
 64 16 l 1
 64 32 l 1
 64 48 l 1
 64 64 l 1
 64 80 l 1
 64 96 l 1
 64 112 l 1
 64 128 l 1
 64 144 l 1
 64 160 l 1
 64 176 l 1
 64 192 l 1
 64 208 l 1
 64 224 l 1
 64 240 l 1
 64 256 l 1
 64 272 l 1
 64 288 l 1
 64 304 l 1
 64 320 l 1
 64 336 l 1
 64 352 l 1
 64 368 l 1
 64 384 l 1
 64 400 l 1
 64 416 l 1
 64 432 l 1
 64 448 l 1
 64 464 l 1
 64 480 l 1
 64 496 l 1
 64 512 l 1
 64 528 l 1
 64 544 l 1xe030
 64 560 l 1
 80 560 l 1xd030
 80 576 l 1xc830
 80 592 l 1
 96 592 l 1
 96 608 l 1
 112 608 l 1
 112 624 l 1
 128 624 l 1
 144 624 l 1xe030
 144 640 l 1
 160 640 l 1xd030
 176 640 l 1
 192 640 l 1
 208 640 l 1
 224 640 l 1
 240 640 l 1
 256 640 l 1
 272 640 l 1
 288 640 l 1
 304 640 l 1
 320 640 l 1
 336 640 l 1xc830
 352 640 l 1
 368 640 l 1xd030
 368 624 l 1
 384 624 l 1
 400 624 l 1xe030
 400 608 l 1
 416 608 l 1
 416 592 l 1
 432 592 l 1
 432 576 l 1xc830
 432 560 l 1
 448 560 l 1xd030
 448 544 l 1
 448 528 l 1
 448 512 l 1
 448 496 l 1
 448 480 l 1
 448 464 l 1
 448 448 l 1
 448 432 l 1
 448 416 l 1
 448 400 l 1
 448 384 l 1
 448 368 l 1
 448 352 l 1
 448 336 l 1
 448 320 l 1
 448 304 l 1
 448 288 l 1
 448 272 l 1
 448 256 l 1
 448 240 l 1
 448 224 l 1
 448 208 l 1
 448 192 l 1
 448 176 l 1
 448 160 l 1
 448 144 l 1
 448 128 l 1
 448 112 l 1
 448 96 l 1
 448 80 l 1
 448 64 l 1
 448 48 l 1
 448 32 l 1
 448 16 l 1
 448 0 l 1
 432 0 l 1xe030
368 352 m 1
 384 352 l 1
 384 368 l 1
 384 384 l 1
 384 400 l 1
 384 416 l 1
 384 432 l 1
 384 448 l 1
 384 464 l 1
 384 480 l 1
 384 496 l 1
 384 512 l 1
 384 528 l 1
 384 544 l 1
 368 544 l 1xe030
 368 560 l 1
 352 560 l 1xd030
 352 576 l 1
 336 576 l 1
 320 576 l 1
 304 576 l 1
 288 576 l 1
 272 576 l 1
 256 576 l 1
 240 576 l 1
 224 576 l 1
 208 576 l 1
 192 576 l 1
 176 576 l 1
 160 576 l 1xc830
 160 560 l 1
 144 560 l 1xd030
 144 544 l 1
 128 544 l 1
 128 528 l 1
 128 512 l 1
 128 496 l 1
 128 480 l 1
 128 464 l 1
 128 448 l 1
 128 432 l 1
 128 416 l 1
 128 400 l 1
 128 384 l 1
 128 368 l 1
 128 352 l 1
 144 352 l 1
 160 352 l 1
 176 352 l 1
 192 352 l 1
 208 352 l 1
 224 352 l 1
 240 352 l 1
 256 352 l 1
 272 352 l 1
 288 352 l 1
 304 352 l 1
 320 352 l 1
 336 352 l 1
 352 352 l 1
 368 352 l 1
368 704 m 1xc130
 352 704 l 1xc230
 336 704 l 1
 320 704 l 1xc430
 304 704 l 1
 304 720 l 1
 288 720 l 1
 288 736 l 1
 272 736 l 1
 272 752 l 1
 256 752 l 1
 240 752 l 1
 240 736 l 1
 224 736 l 1
 224 720 l 1
 208 720 l 1
 208 704 l 1xc0f0
 192 704 l 1
 176 704 l 1xc430
 160 704 l 1xc230
 144 704 l 1xc130
 128 704 l 1
 128 720 l 1
 128 736 l 1
 144 736 l 1xc0b0
 144 752 l 1
 160 752 l 1xc130
 160 768 l 1
 176 768 l 1xc230
 176 784 l 1
 192 784 l 1xc430
 192 800 l 1
 208 800 l 1
 208 816 l 1
 224 816 l 1
 224 832 l 1
 240 832 l 1
 256 832 l 1
 272 832 l 1
 288 832 l 1xc070
 288 816 l 1
 304 816 l 1
 304 800 l 1
 320 800 l 1
 320 784 l 1
 336 784 l 1xc430
 336 768 l 1
 352 768 l 1xc230
 352 752 l 1
 368 752 l 1xc130
 368 736 l 1
 384 736 l 1
 384 720 l 1
 384 704 l 1xc0b0
 368 704 l 1xc130
EndSplineSet
Validated: 1
EndChar

StartChar: LATIN
Encoding: 195 195 132
Width: 512
GlyphClass: 1
Flags: W
HStem: 0 21G<64 128 384 448> 288 64<128 384> 544 80<128 144 368 384> 560 80<144 160 352 368> 576 64<160 352> 672 80<80 96 288 304 352 368> 672 64<64 80 304 352> 720 80<144 160 208 224 416 432> 736 64<160 208 432 448>
VStem: 64 80<544 560 704 720> 64 64<0 288 352 544 672 704> 368 80<544 560 752 768> 384 64<0 288 352 544 768 800>
LayerCount: 2
Fore
SplineSet
432 0 m 1xe008
 416 0 l 1
 400 0 l 1
 384 0 l 1
 384 16 l 1
 384 32 l 1
 384 48 l 1
 384 64 l 1
 384 80 l 1
 384 96 l 1
 384 112 l 1
 384 128 l 1
 384 144 l 1
 384 160 l 1
 384 176 l 1
 384 192 l 1
 384 208 l 1
 384 224 l 1
 384 240 l 1
 384 256 l 1
 384 272 l 1
 384 288 l 1xe008
 368 288 l 1
 352 288 l 1
 336 288 l 1
 320 288 l 1
 304 288 l 1
 288 288 l 1
 272 288 l 1
 256 288 l 1
 240 288 l 1
 224 288 l 1
 208 288 l 1
 192 288 l 1
 176 288 l 1
 160 288 l 1
 144 288 l 1xe050
 128 288 l 1
 128 272 l 1
 128 256 l 1
 128 240 l 1
 128 224 l 1
 128 208 l 1
 128 192 l 1
 128 176 l 1
 128 160 l 1
 128 144 l 1
 128 128 l 1
 128 112 l 1
 128 96 l 1
 128 80 l 1
 128 64 l 1
 128 48 l 1
 128 32 l 1
 128 16 l 1
 128 0 l 1
 112 0 l 1
 96 0 l 1
 80 0 l 1
 64 0 l 1
 64 16 l 1
 64 32 l 1
 64 48 l 1
 64 64 l 1
 64 80 l 1
 64 96 l 1
 64 112 l 1
 64 128 l 1
 64 144 l 1
 64 160 l 1
 64 176 l 1
 64 192 l 1
 64 208 l 1
 64 224 l 1
 64 240 l 1
 64 256 l 1
 64 272 l 1
 64 288 l 1
 64 304 l 1
 64 320 l 1
 64 336 l 1
 64 352 l 1
 64 368 l 1
 64 384 l 1
 64 400 l 1
 64 416 l 1
 64 432 l 1
 64 448 l 1
 64 464 l 1
 64 480 l 1
 64 496 l 1
 64 512 l 1
 64 528 l 1xe020
 64 544 l 1xe040
 64 560 l 1
 80 560 l 1xd040
 80 576 l 1xc840
 80 592 l 1
 96 592 l 1
 96 608 l 1
 112 608 l 1
 112 624 l 1
 128 624 l 1xe020
 144 624 l 1xe040
 144 640 l 1
 160 640 l 1xd040
 176 640 l 1
 192 640 l 1
 208 640 l 1
 224 640 l 1
 240 640 l 1
 256 640 l 1
 272 640 l 1
 288 640 l 1
 304 640 l 1
 320 640 l 1
 336 640 l 1xc840
 352 640 l 1
 368 640 l 1xd050
 368 624 l 1xe050
 384 624 l 1
 400 624 l 1xe008
 400 608 l 1
 416 608 l 1
 416 592 l 1
 432 592 l 1
 432 576 l 1xc808
 432 560 l 1
 448 560 l 1xd010
 448 544 l 1xe010
 448 528 l 1
 448 512 l 1
 448 496 l 1
 448 480 l 1
 448 464 l 1
 448 448 l 1
 448 432 l 1
 448 416 l 1
 448 400 l 1
 448 384 l 1
 448 368 l 1
 448 352 l 1
 448 336 l 1
 448 320 l 1
 448 304 l 1
 448 288 l 1
 448 272 l 1
 448 256 l 1
 448 240 l 1
 448 224 l 1
 448 208 l 1
 448 192 l 1
 448 176 l 1
 448 160 l 1
 448 144 l 1
 448 128 l 1
 448 112 l 1
 448 96 l 1
 448 80 l 1
 448 64 l 1
 448 48 l 1
 448 32 l 1
 448 16 l 1
 448 0 l 1
 432 0 l 1xe008
368 352 m 1xe050
 384 352 l 1
 384 368 l 1
 384 384 l 1
 384 400 l 1
 384 416 l 1
 384 432 l 1
 384 448 l 1
 384 464 l 1
 384 480 l 1
 384 496 l 1
 384 512 l 1
 384 528 l 1
 384 544 l 1xe008
 368 544 l 1xe010
 368 560 l 1
 352 560 l 1xd010
 352 576 l 1
 336 576 l 1
 320 576 l 1
 304 576 l 1
 288 576 l 1
 272 576 l 1
 256 576 l 1
 240 576 l 1
 224 576 l 1
 208 576 l 1
 192 576 l 1
 176 576 l 1
 160 576 l 1xc810
 160 560 l 1
 144 560 l 1xd050
 144 544 l 1xe050
 128 544 l 1
 128 528 l 1
 128 512 l 1
 128 496 l 1
 128 480 l 1
 128 464 l 1
 128 448 l 1
 128 432 l 1
 128 416 l 1
 128 400 l 1
 128 384 l 1
 128 368 l 1
 128 352 l 1xe020
 144 352 l 1
 160 352 l 1
 176 352 l 1
 192 352 l 1
 208 352 l 1
 224 352 l 1
 240 352 l 1
 256 352 l 1
 272 352 l 1
 288 352 l 1
 304 352 l 1
 320 352 l 1
 336 352 l 1
 352 352 l 1
 368 352 l 1xe050
352 672 m 1xc410
 336 672 l 1
 320 672 l 1xc210
 304 672 l 1
 288 672 l 1xc410
 272 672 l 1xc210
 272 688 l 1
 256 688 l 1
 240 688 l 1
 240 704 l 1
 224 704 l 1
 224 720 l 1
 208 720 l 1xc110
 208 736 l 1
 192 736 l 1
 176 736 l 1
 160 736 l 1xc090
 160 720 l 1
 144 720 l 1
 144 704 l 1xc150
 128 704 l 1
 128 688 l 1
 128 672 l 1
 112 672 l 1xc220
 96 672 l 1
 80 672 l 1xc420
 64 672 l 1
 64 688 l 1xc220
 64 704 l 1
 64 720 l 1xc140
 64 736 l 1
 80 736 l 1xc220
 80 752 l 1
 96 752 l 1
 96 768 l 1
 112 768 l 1
 112 784 l 1
 128 784 l 1xc420
 144 784 l 1
 144 800 l 1
 160 800 l 1xc140
 176 800 l 1
 192 800 l 1xc0c0
 208 800 l 1
 224 800 l 1xc140
 240 800 l 1xc0c0
 240 784 l 1
 256 784 l 1
 272 784 l 1
 272 768 l 1
 288 768 l 1
 288 752 l 1
 304 752 l 1xc440
 304 736 l 1
 320 736 l 1
 336 736 l 1
 352 736 l 1xc240
 352 752 l 1
 368 752 l 1
 368 768 l 1xc450
 384 768 l 1
 384 784 l 1
 384 800 l 1
 400 800 l 1xc088
 416 800 l 1
 432 800 l 1xc108
 448 800 l 1
 448 784 l 1xc088
 448 768 l 1
 448 752 l 1xc410
 448 736 l 1
 432 736 l 1xc088
 432 720 l 1
 416 720 l 1
 416 704 l 1
 400 704 l 1
 400 688 l 1
 384 688 l 1xc108
 368 688 l 1
 368 672 l 1
 352 672 l 1xc410
EndSplineSet
Validated: 1
EndChar

StartChar: LATIN
Encoding: 196 196 133
Width: 512
GlyphClass: 1
Flags: W
HStem: 0 21G<64 128 384 448> 288 64<128 384> 544 80<128 144 368 384> 560 80<144 160 352 368> 576 64<160 352> 704 96<128 192 320 384>
VStem: 64 64<0 288 352 544> 128 64<704 800> 320 64<704 800> 384 64<0 288 352 544>
LayerCount: 2
Fore
SplineSet
432 0 m 1xe440
 416 0 l 1
 400 0 l 1
 384 0 l 1
 384 16 l 1
 384 32 l 1
 384 48 l 1
 384 64 l 1
 384 80 l 1
 384 96 l 1
 384 112 l 1
 384 128 l 1
 384 144 l 1
 384 160 l 1
 384 176 l 1
 384 192 l 1
 384 208 l 1
 384 224 l 1
 384 240 l 1
 384 256 l 1
 384 272 l 1
 384 288 l 1xe440
 368 288 l 1
 352 288 l 1
 336 288 l 1
 320 288 l 1
 304 288 l 1
 288 288 l 1
 272 288 l 1
 256 288 l 1
 240 288 l 1
 224 288 l 1
 208 288 l 1
 192 288 l 1xe580
 176 288 l 1
 160 288 l 1
 144 288 l 1
 128 288 l 1
 128 272 l 1
 128 256 l 1
 128 240 l 1
 128 224 l 1
 128 208 l 1
 128 192 l 1
 128 176 l 1
 128 160 l 1
 128 144 l 1
 128 128 l 1
 128 112 l 1
 128 96 l 1
 128 80 l 1
 128 64 l 1
 128 48 l 1
 128 32 l 1
 128 16 l 1
 128 0 l 1
 112 0 l 1
 96 0 l 1
 80 0 l 1
 64 0 l 1
 64 16 l 1
 64 32 l 1
 64 48 l 1
 64 64 l 1
 64 80 l 1
 64 96 l 1
 64 112 l 1
 64 128 l 1
 64 144 l 1
 64 160 l 1
 64 176 l 1
 64 192 l 1
 64 208 l 1
 64 224 l 1
 64 240 l 1
 64 256 l 1
 64 272 l 1
 64 288 l 1
 64 304 l 1
 64 320 l 1
 64 336 l 1
 64 352 l 1
 64 368 l 1
 64 384 l 1
 64 400 l 1
 64 416 l 1
 64 432 l 1
 64 448 l 1
 64 464 l 1
 64 480 l 1
 64 496 l 1
 64 512 l 1
 64 528 l 1
 64 544 l 1xe6
 64 560 l 1
 80 560 l 1xd6
 80 576 l 1xce
 80 592 l 1
 96 592 l 1
 96 608 l 1
 112 608 l 1
 112 624 l 1
 128 624 l 1
 144 624 l 1xe5
 144 640 l 1
 160 640 l 1xd5
 176 640 l 1
 192 640 l 1
 208 640 l 1
 224 640 l 1
 240 640 l 1
 256 640 l 1
 272 640 l 1
 288 640 l 1
 304 640 l 1
 320 640 l 1
 336 640 l 1xcd80
 352 640 l 1
 368 640 l 1xd580
 368 624 l 1
 384 624 l 1
 400 624 l 1xe440
 400 608 l 1
 416 608 l 1
 416 592 l 1
 432 592 l 1
 432 576 l 1xcc40
 432 560 l 1
 448 560 l 1xd440
 448 544 l 1
 448 528 l 1
 448 512 l 1
 448 496 l 1
 448 480 l 1
 448 464 l 1
 448 448 l 1
 448 432 l 1
 448 416 l 1
 448 400 l 1
 448 384 l 1
 448 368 l 1
 448 352 l 1
 448 336 l 1
 448 320 l 1
 448 304 l 1
 448 288 l 1
 448 272 l 1
 448 256 l 1
 448 240 l 1
 448 224 l 1
 448 208 l 1
 448 192 l 1
 448 176 l 1
 448 160 l 1
 448 144 l 1
 448 128 l 1
 448 112 l 1
 448 96 l 1
 448 80 l 1
 448 64 l 1
 448 48 l 1
 448 32 l 1
 448 16 l 1
 448 0 l 1
 432 0 l 1xe440
368 352 m 1
 384 352 l 1
 384 368 l 1
 384 384 l 1
 384 400 l 1
 384 416 l 1
 384 432 l 1
 384 448 l 1
 384 464 l 1
 384 480 l 1
 384 496 l 1
 384 512 l 1
 384 528 l 1
 384 544 l 1
 368 544 l 1xe440
 368 560 l 1
 352 560 l 1xd440
 352 576 l 1
 336 576 l 1
 320 576 l 1
 304 576 l 1
 288 576 l 1
 272 576 l 1
 256 576 l 1
 240 576 l 1
 224 576 l 1
 208 576 l 1
 192 576 l 1
 176 576 l 1
 160 576 l 1xcd80
 160 560 l 1
 144 560 l 1xd580
 144 544 l 1
 128 544 l 1
 128 528 l 1
 128 512 l 1
 128 496 l 1
 128 480 l 1
 128 464 l 1
 128 448 l 1
 128 432 l 1
 128 416 l 1
 128 400 l 1
 128 384 l 1
 128 368 l 1
 128 352 l 1xe6
 144 352 l 1
 160 352 l 1
 176 352 l 1
 192 352 l 1
 208 352 l 1
 224 352 l 1
 240 352 l 1
 256 352 l 1
 272 352 l 1
 288 352 l 1
 304 352 l 1
 320 352 l 1xe580
 336 352 l 1
 352 352 l 1
 368 352 l 1
368 704 m 1
 352 704 l 1
 336 704 l 1
 320 704 l 1
 320 720 l 1
 320 736 l 1
 320 752 l 1
 320 768 l 1
 320 784 l 1
 320 800 l 1
 336 800 l 1
 352 800 l 1
 368 800 l 1
 384 800 l 1
 384 784 l 1
 384 768 l 1
 384 752 l 1
 384 736 l 1
 384 720 l 1
 384 704 l 1xc480
 368 704 l 1
176 704 m 1
 160 704 l 1
 144 704 l 1
 128 704 l 1
 128 720 l 1
 128 736 l 1
 128 752 l 1
 128 768 l 1
 128 784 l 1
 128 800 l 1
 144 800 l 1
 160 800 l 1
 176 800 l 1
 192 800 l 1
 192 784 l 1
 192 768 l 1
 192 752 l 1
 192 736 l 1
 192 720 l 1
 192 704 l 1xc5
 176 704 l 1
EndSplineSet
Validated: 1
EndChar

StartChar: LATIN
Encoding: 197 197 134
Width: 512
GlyphClass: 1
Flags: W
HStem: 0 21G<64 128 384 448> 288 64<128 384> 544 80<128 144 368 384> 560 80<144 160 352 368> 576 128<224 288> 576 64<160 224 288 352> 704 64<160 176 336 352> 768 64<224 288>
VStem: 64 64<0 288 352 544> 160 64<704 768> 224 64<640 656 816 832> 288 64<704 768> 384 64<0 288 352 544>
LayerCount: 2
Fore
SplineSet
432 0 m 1xe098
 416 0 l 1
 400 0 l 1
 384 0 l 1
 384 16 l 1
 384 32 l 1
 384 48 l 1
 384 64 l 1
 384 80 l 1
 384 96 l 1
 384 112 l 1
 384 128 l 1
 384 144 l 1
 384 160 l 1
 384 176 l 1
 384 192 l 1
 384 208 l 1
 384 224 l 1
 384 240 l 1
 384 256 l 1
 384 272 l 1
 384 288 l 1
 368 288 l 1
 352 288 l 1
 336 288 l 1
 320 288 l 1
 304 288 l 1
 288 288 l 1xe098
 272 288 l 1
 256 288 l 1
 240 288 l 1
 224 288 l 1xe0a8
 208 288 l 1
 192 288 l 1
 176 288 l 1
 160 288 l 1
 144 288 l 1
 128 288 l 1
 128 272 l 1
 128 256 l 1
 128 240 l 1
 128 224 l 1
 128 208 l 1
 128 192 l 1
 128 176 l 1
 128 160 l 1
 128 144 l 1
 128 128 l 1
 128 112 l 1
 128 96 l 1
 128 80 l 1
 128 64 l 1
 128 48 l 1
 128 32 l 1
 128 16 l 1
 128 0 l 1
 112 0 l 1
 96 0 l 1
 80 0 l 1
 64 0 l 1
 64 16 l 1
 64 32 l 1
 64 48 l 1
 64 64 l 1
 64 80 l 1
 64 96 l 1
 64 112 l 1
 64 128 l 1
 64 144 l 1
 64 160 l 1
 64 176 l 1
 64 192 l 1
 64 208 l 1
 64 224 l 1
 64 240 l 1
 64 256 l 1
 64 272 l 1
 64 288 l 1
 64 304 l 1
 64 320 l 1
 64 336 l 1
 64 352 l 1
 64 368 l 1
 64 384 l 1
 64 400 l 1
 64 416 l 1
 64 432 l 1
 64 448 l 1
 64 464 l 1
 64 480 l 1
 64 496 l 1
 64 512 l 1
 64 528 l 1
 64 544 l 1xe0c8
 64 560 l 1
 80 560 l 1xd0c8
 80 576 l 1xc4c8
 80 592 l 1
 96 592 l 1
 96 608 l 1
 112 608 l 1
 112 624 l 1
 128 624 l 1
 144 624 l 1xe0c8
 144 640 l 1
 160 640 l 1xd0c8
 176 640 l 1
 192 640 l 1
 208 640 l 1
 224 640 l 1
 224 656 l 1xc4a8
 208 656 l 1
 208 672 l 1
 192 672 l 1
 192 688 l 1
 176 688 l 1
 176 704 l 1
 160 704 l 1
 160 720 l 1
 160 736 l 1
 160 752 l 1
 160 768 l 1
 176 768 l 1xc6c8
 176 784 l 1
 192 784 l 1
 192 800 l 1
 208 800 l 1
 208 816 l 1
 224 816 l 1
 224 832 l 1
 240 832 l 1
 256 832 l 1
 272 832 l 1
 288 832 l 1
 288 816 l 1xc1a8
 304 816 l 1
 304 800 l 1
 320 800 l 1
 320 784 l 1
 336 784 l 1
 336 768 l 1
 352 768 l 1
 352 752 l 1
 352 736 l 1
 352 720 l 1
 352 704 l 1xc298
 336 704 l 1
 336 688 l 1
 320 688 l 1
 320 672 l 1
 304 672 l 1
 304 656 l 1
 288 656 l 1
 288 640 l 1
 304 640 l 1
 320 640 l 1
 336 640 l 1xc6a8
 352 640 l 1
 368 640 l 1xd098
 368 624 l 1
 384 624 l 1
 400 624 l 1xe098
 400 608 l 1
 416 608 l 1
 416 592 l 1
 432 592 l 1
 432 576 l 1xc498
 432 560 l 1
 448 560 l 1xd098
 448 544 l 1
 448 528 l 1
 448 512 l 1
 448 496 l 1
 448 480 l 1
 448 464 l 1
 448 448 l 1
 448 432 l 1
 448 416 l 1
 448 400 l 1
 448 384 l 1
 448 368 l 1
 448 352 l 1
 448 336 l 1
 448 320 l 1
 448 304 l 1
 448 288 l 1
 448 272 l 1
 448 256 l 1
 448 240 l 1
 448 224 l 1
 448 208 l 1
 448 192 l 1
 448 176 l 1
 448 160 l 1
 448 144 l 1
 448 128 l 1
 448 112 l 1
 448 96 l 1
 448 80 l 1
 448 64 l 1
 448 48 l 1
 448 32 l 1
 448 16 l 1
 448 0 l 1
 432 0 l 1xe098
368 352 m 1
 384 352 l 1
 384 368 l 1
 384 384 l 1
 384 400 l 1
 384 416 l 1
 384 432 l 1
 384 448 l 1
 384 464 l 1
 384 480 l 1
 384 496 l 1
 384 512 l 1
 384 528 l 1
 384 544 l 1
 368 544 l 1xe098
 368 560 l 1
 352 560 l 1xd098
 352 576 l 1
 336 576 l 1
 320 576 l 1
 304 576 l 1xc498
 288 576 l 1xc898
 272 576 l 1
 256 576 l 1
 240 576 l 1
 224 576 l 1xc8a8
 208 576 l 1
 192 576 l 1
 176 576 l 1
 160 576 l 1xc4c8
 160 560 l 1
 144 560 l 1xd0c8
 144 544 l 1
 128 544 l 1
 128 528 l 1
 128 512 l 1
 128 496 l 1
 128 480 l 1
 128 464 l 1
 128 448 l 1
 128 432 l 1
 128 416 l 1
 128 400 l 1
 128 384 l 1
 128 368 l 1
 128 352 l 1
 144 352 l 1
 160 352 l 1xe0c8
 176 352 l 1
 192 352 l 1
 208 352 l 1
 224 352 l 1xe0a8
 240 352 l 1
 256 352 l 1
 272 352 l 1
 288 352 l 1
 304 352 l 1
 320 352 l 1
 336 352 l 1
 352 352 l 1
 368 352 l 1
272 704 m 1xc9d8
 288 704 l 1
 288 720 l 1
 288 736 l 1
 288 752 l 1
 288 768 l 1
 272 768 l 1
 256 768 l 1
 240 768 l 1
 224 768 l 1
 224 752 l 1
 224 736 l 1
 224 720 l 1
 224 704 l 1
 240 704 l 1
 256 704 l 1
 272 704 l 1xc9d8
EndSplineSet
Validated: 1
EndChar

StartChar: LATIN
Encoding: 198 198 135
Width: 512
GlyphClass: 1
Flags: W
HStem: 0 64<320 448> 288 64<128 256 320 448> 576 64<160 256 320 448>
VStem: 64 64<0 288 352 544> 256 64<64 288 352 576>
CounterMasks: 1 e0
LayerCount: 2
Fore
SplineSet
432 0 m 1
 416 0 l 1
 400 0 l 1
 384 0 l 1
 368 0 l 1
 352 0 l 1
 336 0 l 1
 320 0 l 1
 304 0 l 1
 288 0 l 1
 272 0 l 1
 256 0 l 1
 256 16 l 1
 256 32 l 1
 256 48 l 1
 256 64 l 1
 256 80 l 1
 256 96 l 1
 256 112 l 1
 256 128 l 1
 256 144 l 1
 256 160 l 1
 256 176 l 1
 256 192 l 1
 256 208 l 1
 256 224 l 1
 256 240 l 1
 256 256 l 1
 256 272 l 1
 256 288 l 1
 240 288 l 1
 224 288 l 1
 208 288 l 1
 192 288 l 1
 176 288 l 1
 160 288 l 1
 144 288 l 1
 128 288 l 1
 128 272 l 1
 128 256 l 1
 128 240 l 1
 128 224 l 1
 128 208 l 1
 128 192 l 1
 128 176 l 1
 128 160 l 1
 128 144 l 1
 128 128 l 1
 128 112 l 1
 128 96 l 1
 128 80 l 1
 128 64 l 1
 128 48 l 1
 128 32 l 1
 128 16 l 1
 128 0 l 1
 112 0 l 1
 96 0 l 1
 80 0 l 1
 64 0 l 1
 64 16 l 1
 64 32 l 1
 64 48 l 1
 64 64 l 1
 64 80 l 1
 64 96 l 1
 64 112 l 1
 64 128 l 1
 64 144 l 1
 64 160 l 1
 64 176 l 1
 64 192 l 1
 64 208 l 1
 64 224 l 1
 64 240 l 1
 64 256 l 1
 64 272 l 1
 64 288 l 1
 64 304 l 1
 64 320 l 1
 64 336 l 1
 64 352 l 1
 64 368 l 1
 64 384 l 1
 64 400 l 1
 64 416 l 1
 64 432 l 1
 64 448 l 1
 64 464 l 1
 64 480 l 1
 64 496 l 1
 64 512 l 1
 64 528 l 1
 64 544 l 1
 64 560 l 1
 80 560 l 1
 80 576 l 1
 80 592 l 1
 96 592 l 1
 96 608 l 1
 112 608 l 1
 112 624 l 1
 128 624 l 1
 144 624 l 1
 144 640 l 1
 160 640 l 1
 176 640 l 1
 192 640 l 1
 208 640 l 1
 224 640 l 1
 240 640 l 1
 256 640 l 1
 272 640 l 1
 288 640 l 1
 304 640 l 1
 320 640 l 1
 336 640 l 1
 352 640 l 1
 368 640 l 1
 384 640 l 1
 400 640 l 1
 416 640 l 1
 432 640 l 1
 448 640 l 1
 448 624 l 1
 448 608 l 1
 448 592 l 1
 448 576 l 1
 432 576 l 1
 416 576 l 1
 400 576 l 1
 384 576 l 1
 368 576 l 1
 352 576 l 1
 336 576 l 1
 320 576 l 1
 320 560 l 1
 320 544 l 1
 320 528 l 1
 320 512 l 1
 320 496 l 1
 320 480 l 1
 320 464 l 1
 320 448 l 1
 320 432 l 1
 320 416 l 1
 320 400 l 1
 320 384 l 1
 320 368 l 1
 320 352 l 1
 336 352 l 1
 352 352 l 1
 368 352 l 1
 384 352 l 1
 400 352 l 1
 416 352 l 1
 432 352 l 1
 448 352 l 1
 448 336 l 1
 448 320 l 1
 448 304 l 1
 448 288 l 1
 432 288 l 1
 416 288 l 1
 400 288 l 1
 384 288 l 1
 368 288 l 1
 352 288 l 1
 336 288 l 1
 320 288 l 1
 320 272 l 1
 320 256 l 1
 320 240 l 1
 320 224 l 1
 320 208 l 1
 320 192 l 1
 320 176 l 1
 320 160 l 1
 320 144 l 1
 320 128 l 1
 320 112 l 1
 320 96 l 1
 320 80 l 1
 320 64 l 1
 336 64 l 1
 352 64 l 1
 368 64 l 1
 384 64 l 1
 400 64 l 1
 416 64 l 1
 432 64 l 1
 448 64 l 1
 448 48 l 1
 448 32 l 1
 448 16 l 1
 448 0 l 1
 432 0 l 1
240 352 m 1
 256 352 l 1
 256 368 l 1
 256 384 l 1
 256 400 l 1
 256 416 l 1
 256 432 l 1
 256 448 l 1
 256 464 l 1
 256 480 l 1
 256 496 l 1
 256 512 l 1
 256 528 l 1
 256 544 l 1
 256 560 l 1
 256 576 l 1
 240 576 l 1
 224 576 l 1
 208 576 l 1
 192 576 l 1
 176 576 l 1
 160 576 l 1
 160 560 l 1
 144 560 l 1
 144 544 l 1
 128 544 l 1
 128 528 l 1
 128 512 l 1
 128 496 l 1
 128 480 l 1
 128 464 l 1
 128 448 l 1
 128 432 l 1
 128 416 l 1
 128 400 l 1
 128 384 l 1
 128 368 l 1
 128 352 l 1
 144 352 l 1
 160 352 l 1
 176 352 l 1
 192 352 l 1
 208 352 l 1
 224 352 l 1
 240 352 l 1
EndSplineSet
Validated: 1
EndChar

StartChar: LATIN
Encoding: 199 199 136
Width: 512
GlyphClass: 1
Flags: W
HStem: -192 64<192 224> 0 64<160 256 320 448> 576 64<160 448>
VStem: 64 80<80 96 544 560> 64 64<96 544> 80 80<64 80 560 576> 192 48<-192 -176> 256 64<-96 0>
LayerCount: 2
Fore
SplineSet
224 -192 m 1xe7
 208 -192 l 1
 192 -192 l 1
 192 -176 l 1
 192 -160 l 1
 192 -144 l 1
 192 -128 l 1
 208 -128 l 1
 224 -128 l 1
 224 -112 l 1
 240 -112 l 1
 240 -96 l 1
 256 -96 l 1
 256 -80 l 1
 256 -64 l 1
 256 -48 l 1
 256 -32 l 1
 256 -16 l 1
 256 0 l 1
 240 0 l 1
 224 0 l 1
 208 0 l 1
 192 0 l 1
 176 0 l 1
 160 0 l 1xe7
 144 0 l 1
 144 16 l 1xf3
 128 16 l 1xeb
 112 16 l 1
 112 32 l 1
 96 32 l 1
 96 48 l 1
 80 48 l 1
 80 64 l 1
 80 80 l 1xe7
 64 80 l 1
 64 96 l 1xf3
 64 112 l 1
 64 128 l 1
 64 144 l 1
 64 160 l 1
 64 176 l 1
 64 192 l 1
 64 208 l 1
 64 224 l 1
 64 240 l 1
 64 256 l 1
 64 272 l 1
 64 288 l 1
 64 304 l 1
 64 320 l 1
 64 336 l 1
 64 352 l 1
 64 368 l 1
 64 384 l 1
 64 400 l 1
 64 416 l 1
 64 432 l 1
 64 448 l 1
 64 464 l 1
 64 480 l 1
 64 496 l 1
 64 512 l 1
 64 528 l 1xeb
 64 544 l 1
 64 560 l 1xf3
 80 560 l 1
 80 576 l 1
 80 592 l 1xe7
 96 592 l 1
 96 608 l 1
 112 608 l 1
 112 624 l 1
 128 624 l 1xeb
 144 624 l 1
 144 640 l 1xf3
 160 640 l 1
 176 640 l 1
 192 640 l 1
 208 640 l 1
 224 640 l 1
 240 640 l 1
 256 640 l 1
 272 640 l 1
 288 640 l 1
 304 640 l 1
 320 640 l 1
 336 640 l 1
 352 640 l 1
 368 640 l 1
 384 640 l 1
 400 640 l 1
 416 640 l 1
 432 640 l 1
 448 640 l 1
 448 624 l 1
 448 608 l 1
 448 592 l 1
 448 576 l 1
 432 576 l 1
 416 576 l 1
 400 576 l 1
 384 576 l 1
 368 576 l 1
 352 576 l 1
 336 576 l 1
 320 576 l 1
 304 576 l 1
 288 576 l 1
 272 576 l 1
 256 576 l 1
 240 576 l 1
 224 576 l 1
 208 576 l 1
 192 576 l 1
 176 576 l 1
 160 576 l 1
 160 560 l 1xe7
 144 560 l 1
 144 544 l 1xf3
 128 544 l 1
 128 528 l 1
 128 512 l 1
 128 496 l 1
 128 480 l 1
 128 464 l 1
 128 448 l 1
 128 432 l 1
 128 416 l 1
 128 400 l 1
 128 384 l 1
 128 368 l 1
 128 352 l 1
 128 336 l 1
 128 320 l 1
 128 304 l 1
 128 288 l 1
 128 272 l 1
 128 256 l 1
 128 240 l 1
 128 224 l 1
 128 208 l 1
 128 192 l 1
 128 176 l 1
 128 160 l 1
 128 144 l 1
 128 128 l 1
 128 112 l 1
 128 96 l 1xeb
 144 96 l 1
 144 80 l 1xf3
 160 80 l 1
 160 64 l 1
 176 64 l 1
 192 64 l 1
 208 64 l 1
 224 64 l 1
 240 64 l 1
 256 64 l 1
 272 64 l 1
 288 64 l 1
 304 64 l 1
 320 64 l 1
 336 64 l 1
 352 64 l 1
 368 64 l 1
 384 64 l 1
 400 64 l 1
 416 64 l 1
 432 64 l 1
 448 64 l 1
 448 48 l 1
 448 32 l 1
 448 16 l 1
 448 0 l 1
 432 0 l 1
 416 0 l 1
 400 0 l 1
 384 0 l 1
 368 0 l 1
 352 0 l 1
 336 0 l 1
 320 0 l 1
 320 -16 l 1
 320 -32 l 1
 320 -48 l 1
 320 -64 l 1
 320 -80 l 1
 320 -96 l 1
 320 -112 l 1
 304 -112 l 1
 304 -128 l 1
 304 -144 l 1
 288 -144 l 1
 288 -160 l 1
 272 -160 l 1
 272 -176 l 1
 256 -176 l 1
 240 -176 l 1
 240 -192 l 1
 224 -192 l 1xe7
EndSplineSet
Validated: 1
EndChar

StartChar: LATIN
Encoding: 200 200 137
Width: 512
GlyphClass: 1
Flags: W
HStem: 0 64<160 448> 288 64<128 352> 576 64<160 448> 672 48<304 320> 672 32<320 336> 752 48<176 192> 768 32<160 176>
VStem: 64 80<80 96 544 560> 64 64<96 288 352 544> 80 80<64 80 560 576>
LayerCount: 2
Fore
SplineSet
432 0 m 1xe040
 416 0 l 1
 400 0 l 1
 384 0 l 1
 368 0 l 1
 352 0 l 1
 336 0 l 1
 320 0 l 1
 304 0 l 1
 288 0 l 1
 272 0 l 1
 256 0 l 1
 240 0 l 1
 224 0 l 1
 208 0 l 1
 192 0 l 1
 176 0 l 1
 160 0 l 1xe040
 144 0 l 1
 144 16 l 1xe1
 128 16 l 1xe080
 112 16 l 1
 112 32 l 1
 96 32 l 1
 96 48 l 1
 80 48 l 1
 80 64 l 1
 80 80 l 1xe040
 64 80 l 1
 64 96 l 1xe1
 64 112 l 1
 64 128 l 1
 64 144 l 1
 64 160 l 1
 64 176 l 1
 64 192 l 1
 64 208 l 1
 64 224 l 1
 64 240 l 1
 64 256 l 1
 64 272 l 1
 64 288 l 1
 64 304 l 1
 64 320 l 1
 64 336 l 1
 64 352 l 1
 64 368 l 1
 64 384 l 1
 64 400 l 1
 64 416 l 1
 64 432 l 1
 64 448 l 1
 64 464 l 1
 64 480 l 1
 64 496 l 1
 64 512 l 1
 64 528 l 1xe080
 64 544 l 1
 64 560 l 1xe1
 80 560 l 1
 80 576 l 1
 80 592 l 1xe040
 96 592 l 1
 96 608 l 1
 112 608 l 1
 112 624 l 1
 128 624 l 1xe080
 144 624 l 1
 144 640 l 1xe1
 160 640 l 1
 176 640 l 1
 192 640 l 1
 208 640 l 1
 224 640 l 1
 240 640 l 1
 256 640 l 1
 272 640 l 1
 288 640 l 1
 304 640 l 1
 320 640 l 1
 336 640 l 1
 352 640 l 1
 368 640 l 1
 384 640 l 1
 400 640 l 1
 416 640 l 1
 432 640 l 1
 448 640 l 1
 448 624 l 1
 448 608 l 1
 448 592 l 1
 448 576 l 1
 432 576 l 1
 416 576 l 1
 400 576 l 1
 384 576 l 1
 368 576 l 1
 352 576 l 1
 336 576 l 1
 320 576 l 1
 304 576 l 1
 288 576 l 1
 272 576 l 1
 256 576 l 1
 240 576 l 1
 224 576 l 1
 208 576 l 1
 192 576 l 1
 176 576 l 1
 160 576 l 1
 160 560 l 1xe040
 144 560 l 1
 144 544 l 1xe1
 128 544 l 1
 128 528 l 1
 128 512 l 1
 128 496 l 1
 128 480 l 1
 128 464 l 1
 128 448 l 1
 128 432 l 1
 128 416 l 1
 128 400 l 1
 128 384 l 1
 128 368 l 1
 128 352 l 1xe080
 144 352 l 1xe1
 160 352 l 1
 176 352 l 1
 192 352 l 1
 208 352 l 1
 224 352 l 1
 240 352 l 1
 256 352 l 1
 272 352 l 1
 288 352 l 1
 304 352 l 1
 320 352 l 1
 336 352 l 1
 352 352 l 1
 352 336 l 1
 352 320 l 1
 352 304 l 1
 352 288 l 1
 336 288 l 1
 320 288 l 1
 304 288 l 1
 288 288 l 1
 272 288 l 1
 256 288 l 1
 240 288 l 1
 224 288 l 1
 208 288 l 1
 192 288 l 1
 176 288 l 1
 160 288 l 1xe040
 144 288 l 1xe1
 128 288 l 1
 128 272 l 1
 128 256 l 1
 128 240 l 1
 128 224 l 1
 128 208 l 1
 128 192 l 1
 128 176 l 1
 128 160 l 1
 128 144 l 1
 128 128 l 1
 128 112 l 1
 128 96 l 1xe080
 144 96 l 1
 144 80 l 1xe1
 160 80 l 1
 160 64 l 1
 176 64 l 1
 192 64 l 1
 208 64 l 1
 224 64 l 1
 240 64 l 1
 256 64 l 1
 272 64 l 1
 288 64 l 1
 304 64 l 1
 320 64 l 1
 336 64 l 1
 352 64 l 1
 368 64 l 1
 384 64 l 1
 400 64 l 1
 416 64 l 1
 432 64 l 1
 448 64 l 1
 448 48 l 1
 448 32 l 1
 448 16 l 1
 448 0 l 1
 432 0 l 1xe040
320 672 m 1xf040
 304 672 l 1xf040
 288 672 l 1
 272 672 l 1
 256 672 l 1
 256 688 l 1
 240 688 l 1
 240 704 l 1
 224 704 l 1xe840
 224 720 l 1
 208 720 l 1
 208 736 l 1
 192 736 l 1
 192 752 l 1
 176 752 l 1xf440
 176 768 l 1
 160 768 l 1
 160 784 l 1
 160 800 l 1xe240
 176 800 l 1
 192 800 l 1xe440
 208 800 l 1
 224 800 l 1
 240 800 l 1
 240 784 l 1
 256 784 l 1
 256 768 l 1
 272 768 l 1xe240
 272 752 l 1
 288 752 l 1
 288 736 l 1
 304 736 l 1
 304 720 l 1
 320 720 l 1xf440
 320 704 l 1
 336 704 l 1
 336 688 l 1
 336 672 l 1xe840
 320 672 l 1xf040
EndSplineSet
Validated: 1
EndChar

StartChar: LATIN
Encoding: 201 201 138
Width: 512
GlyphClass: 1
Flags: W
HStem: 0 64<160 448> 288 64<128 352> 576 64<160 448> 672 48<192 208> 672 32<176 192> 752 48<320 336> 768 32<336 352>
VStem: 64 80<80 96 544 560> 64 64<96 288 352 544> 80 80<64 80 560 576>
LayerCount: 2
Fore
SplineSet
432 0 m 1xe040
 416 0 l 1
 400 0 l 1
 384 0 l 1
 368 0 l 1
 352 0 l 1
 336 0 l 1
 320 0 l 1
 304 0 l 1
 288 0 l 1
 272 0 l 1
 256 0 l 1
 240 0 l 1
 224 0 l 1
 208 0 l 1
 192 0 l 1
 176 0 l 1
 160 0 l 1xe040
 144 0 l 1
 144 16 l 1xe1
 128 16 l 1xe080
 112 16 l 1
 112 32 l 1
 96 32 l 1
 96 48 l 1
 80 48 l 1
 80 64 l 1
 80 80 l 1xe040
 64 80 l 1
 64 96 l 1xe1
 64 112 l 1
 64 128 l 1
 64 144 l 1
 64 160 l 1
 64 176 l 1
 64 192 l 1
 64 208 l 1
 64 224 l 1
 64 240 l 1
 64 256 l 1
 64 272 l 1
 64 288 l 1
 64 304 l 1
 64 320 l 1
 64 336 l 1
 64 352 l 1
 64 368 l 1
 64 384 l 1
 64 400 l 1
 64 416 l 1
 64 432 l 1
 64 448 l 1
 64 464 l 1
 64 480 l 1
 64 496 l 1
 64 512 l 1
 64 528 l 1xe080
 64 544 l 1
 64 560 l 1xe1
 80 560 l 1
 80 576 l 1
 80 592 l 1xe040
 96 592 l 1
 96 608 l 1
 112 608 l 1
 112 624 l 1
 128 624 l 1xe080
 144 624 l 1
 144 640 l 1xe1
 160 640 l 1
 176 640 l 1
 192 640 l 1
 208 640 l 1
 224 640 l 1
 240 640 l 1
 256 640 l 1
 272 640 l 1
 288 640 l 1
 304 640 l 1
 320 640 l 1
 336 640 l 1
 352 640 l 1
 368 640 l 1
 384 640 l 1
 400 640 l 1
 416 640 l 1
 432 640 l 1
 448 640 l 1
 448 624 l 1
 448 608 l 1
 448 592 l 1
 448 576 l 1
 432 576 l 1
 416 576 l 1
 400 576 l 1
 384 576 l 1
 368 576 l 1
 352 576 l 1
 336 576 l 1
 320 576 l 1
 304 576 l 1
 288 576 l 1
 272 576 l 1
 256 576 l 1
 240 576 l 1
 224 576 l 1
 208 576 l 1
 192 576 l 1
 176 576 l 1
 160 576 l 1
 160 560 l 1xe040
 144 560 l 1
 144 544 l 1xe1
 128 544 l 1
 128 528 l 1
 128 512 l 1
 128 496 l 1
 128 480 l 1
 128 464 l 1
 128 448 l 1
 128 432 l 1
 128 416 l 1
 128 400 l 1
 128 384 l 1
 128 368 l 1
 128 352 l 1xe080
 144 352 l 1xe1
 160 352 l 1
 176 352 l 1
 192 352 l 1
 208 352 l 1
 224 352 l 1
 240 352 l 1
 256 352 l 1
 272 352 l 1
 288 352 l 1
 304 352 l 1
 320 352 l 1
 336 352 l 1
 352 352 l 1
 352 336 l 1
 352 320 l 1
 352 304 l 1
 352 288 l 1
 336 288 l 1
 320 288 l 1
 304 288 l 1
 288 288 l 1
 272 288 l 1
 256 288 l 1
 240 288 l 1
 224 288 l 1
 208 288 l 1
 192 288 l 1
 176 288 l 1
 160 288 l 1xe040
 144 288 l 1xe1
 128 288 l 1
 128 272 l 1
 128 256 l 1
 128 240 l 1
 128 224 l 1
 128 208 l 1
 128 192 l 1
 128 176 l 1
 128 160 l 1
 128 144 l 1
 128 128 l 1
 128 112 l 1
 128 96 l 1xe080
 144 96 l 1
 144 80 l 1xe1
 160 80 l 1
 160 64 l 1
 176 64 l 1
 192 64 l 1
 208 64 l 1
 224 64 l 1
 240 64 l 1
 256 64 l 1
 272 64 l 1
 288 64 l 1
 304 64 l 1
 320 64 l 1
 336 64 l 1
 352 64 l 1
 368 64 l 1
 384 64 l 1
 400 64 l 1
 416 64 l 1
 432 64 l 1
 448 64 l 1
 448 48 l 1
 448 32 l 1
 448 16 l 1
 448 0 l 1
 432 0 l 1xe040
240 672 m 1xe8
 224 672 l 1xe8
 208 672 l 1
 192 672 l 1xf0
 176 672 l 1
 176 688 l 1
 176 704 l 1
 192 704 l 1xe8
 192 720 l 1
 208 720 l 1
 208 736 l 1
 224 736 l 1
 224 752 l 1
 240 752 l 1xf4
 240 768 l 1
 256 768 l 1
 256 784 l 1
 272 784 l 1
 272 800 l 1
 288 800 l 1
 304 800 l 1xe2
 320 800 l 1
 336 800 l 1xe4
 352 800 l 1
 352 784 l 1
 352 768 l 1
 336 768 l 1xe2
 336 752 l 1
 320 752 l 1
 320 736 l 1
 304 736 l 1
 304 720 l 1
 288 720 l 1xf4
 288 704 l 1
 272 704 l 1
 272 688 l 1
 256 688 l 1
 256 672 l 1
 240 672 l 1xe8
EndSplineSet
Validated: 1
EndChar

StartChar: LATIN
Encoding: 202 202 139
Width: 512
GlyphClass: 1
Flags: W
HStem: 0 64<160 448> 288 64<128 352> 576 64<160 448> 704 80<176 192 320 336> 704 64<160 176 336 352> 704 48<144 160 352 368> 704 32<128 144 368 384> 752 80<240 272>
VStem: 64 80<80 96 544 560> 64 64<96 288 352 544> 80 80<64 80 560 576>
LayerCount: 2
Fore
SplineSet
432 0 m 1xe020
 416 0 l 1
 400 0 l 1
 384 0 l 1
 368 0 l 1
 352 0 l 1
 336 0 l 1
 320 0 l 1
 304 0 l 1
 288 0 l 1
 272 0 l 1
 256 0 l 1
 240 0 l 1
 224 0 l 1
 208 0 l 1
 192 0 l 1
 176 0 l 1
 160 0 l 1xe020
 144 0 l 1
 144 16 l 1xe080
 128 16 l 1xe040
 112 16 l 1
 112 32 l 1
 96 32 l 1
 96 48 l 1
 80 48 l 1
 80 64 l 1
 80 80 l 1xe020
 64 80 l 1
 64 96 l 1xe080
 64 112 l 1
 64 128 l 1
 64 144 l 1
 64 160 l 1
 64 176 l 1
 64 192 l 1
 64 208 l 1
 64 224 l 1
 64 240 l 1
 64 256 l 1
 64 272 l 1
 64 288 l 1
 64 304 l 1
 64 320 l 1
 64 336 l 1
 64 352 l 1
 64 368 l 1
 64 384 l 1
 64 400 l 1
 64 416 l 1
 64 432 l 1
 64 448 l 1
 64 464 l 1
 64 480 l 1
 64 496 l 1
 64 512 l 1
 64 528 l 1xe040
 64 544 l 1
 64 560 l 1xe080
 80 560 l 1
 80 576 l 1
 80 592 l 1xe020
 96 592 l 1
 96 608 l 1
 112 608 l 1
 112 624 l 1
 128 624 l 1xe040
 144 624 l 1
 144 640 l 1xe080
 160 640 l 1
 176 640 l 1
 192 640 l 1
 208 640 l 1
 224 640 l 1
 240 640 l 1
 256 640 l 1
 272 640 l 1
 288 640 l 1
 304 640 l 1
 320 640 l 1
 336 640 l 1
 352 640 l 1
 368 640 l 1
 384 640 l 1
 400 640 l 1
 416 640 l 1
 432 640 l 1
 448 640 l 1
 448 624 l 1
 448 608 l 1
 448 592 l 1
 448 576 l 1
 432 576 l 1
 416 576 l 1
 400 576 l 1
 384 576 l 1
 368 576 l 1
 352 576 l 1
 336 576 l 1
 320 576 l 1
 304 576 l 1
 288 576 l 1
 272 576 l 1
 256 576 l 1
 240 576 l 1
 224 576 l 1
 208 576 l 1
 192 576 l 1
 176 576 l 1
 160 576 l 1
 160 560 l 1xe020
 144 560 l 1
 144 544 l 1xe080
 128 544 l 1
 128 528 l 1
 128 512 l 1
 128 496 l 1
 128 480 l 1
 128 464 l 1
 128 448 l 1
 128 432 l 1
 128 416 l 1
 128 400 l 1
 128 384 l 1
 128 368 l 1
 128 352 l 1xe040
 144 352 l 1xe080
 160 352 l 1
 176 352 l 1
 192 352 l 1
 208 352 l 1
 224 352 l 1
 240 352 l 1
 256 352 l 1
 272 352 l 1
 288 352 l 1
 304 352 l 1
 320 352 l 1
 336 352 l 1
 352 352 l 1
 352 336 l 1
 352 320 l 1
 352 304 l 1
 352 288 l 1
 336 288 l 1
 320 288 l 1
 304 288 l 1
 288 288 l 1
 272 288 l 1
 256 288 l 1
 240 288 l 1
 224 288 l 1
 208 288 l 1
 192 288 l 1
 176 288 l 1
 160 288 l 1xe020
 144 288 l 1xe080
 128 288 l 1
 128 272 l 1
 128 256 l 1
 128 240 l 1
 128 224 l 1
 128 208 l 1
 128 192 l 1
 128 176 l 1
 128 160 l 1
 128 144 l 1
 128 128 l 1
 128 112 l 1
 128 96 l 1xe040
 144 96 l 1
 144 80 l 1xe080
 160 80 l 1
 160 64 l 1
 176 64 l 1
 192 64 l 1
 208 64 l 1
 224 64 l 1
 240 64 l 1
 256 64 l 1
 272 64 l 1
 288 64 l 1
 304 64 l 1
 320 64 l 1
 336 64 l 1
 352 64 l 1
 368 64 l 1
 384 64 l 1
 400 64 l 1
 416 64 l 1
 432 64 l 1
 448 64 l 1
 448 48 l 1
 448 32 l 1
 448 16 l 1
 448 0 l 1
 432 0 l 1xe020
368 704 m 1xe420
 352 704 l 1xe820
 336 704 l 1
 320 704 l 1xf020
 304 704 l 1
 304 720 l 1
 288 720 l 1
 288 736 l 1
 272 736 l 1
 272 752 l 1
 256 752 l 1
 240 752 l 1
 240 736 l 1
 224 736 l 1
 224 720 l 1
 208 720 l 1
 208 704 l 1xe320
 192 704 l 1
 176 704 l 1xf020
 160 704 l 1xe820
 144 704 l 1xe480
 128 704 l 1
 128 720 l 1
 128 736 l 1xe240
 144 736 l 1xe280
 144 752 l 1xe480
 160 752 l 1xe420
 160 768 l 1
 176 768 l 1xe820
 176 784 l 1
 192 784 l 1xf020
 192 800 l 1
 208 800 l 1
 208 816 l 1
 224 816 l 1
 224 832 l 1
 240 832 l 1
 256 832 l 1
 272 832 l 1
 288 832 l 1xe120
 288 816 l 1
 304 816 l 1
 304 800 l 1
 320 800 l 1
 320 784 l 1
 336 784 l 1xf020
 336 768 l 1
 352 768 l 1xe820
 352 752 l 1
 368 752 l 1xe420
 368 736 l 1
 384 736 l 1
 384 720 l 1
 384 704 l 1xe220
 368 704 l 1xe420
EndSplineSet
Validated: 1
EndChar

StartChar: LATIN
Encoding: 203 203 140
Width: 512
GlyphClass: 1
Flags: W
HStem: 0 64<160 448> 288 64<128 352> 576 64<160 448> 704 96<128 192 320 384>
VStem: 64 80<80 96 544 560> 64 64<96 288 352 544> 80 80<64 80 560 576> 128 64<704 800> 320 64<704 800>
LayerCount: 2
Fore
SplineSet
432 0 m 1xf180
 416 0 l 1
 400 0 l 1
 384 0 l 1
 368 0 l 1
 352 0 l 1
 336 0 l 1
 320 0 l 1
 304 0 l 1
 288 0 l 1
 272 0 l 1
 256 0 l 1
 240 0 l 1
 224 0 l 1
 208 0 l 1
 192 0 l 1xf180
 176 0 l 1
 160 0 l 1xf280
 144 0 l 1
 144 16 l 1xf880
 128 16 l 1xf180
 112 16 l 1
 112 32 l 1
 96 32 l 1
 96 48 l 1
 80 48 l 1
 80 64 l 1
 80 80 l 1xf280
 64 80 l 1
 64 96 l 1xf880
 64 112 l 1
 64 128 l 1
 64 144 l 1
 64 160 l 1
 64 176 l 1
 64 192 l 1
 64 208 l 1
 64 224 l 1
 64 240 l 1
 64 256 l 1
 64 272 l 1
 64 288 l 1
 64 304 l 1
 64 320 l 1
 64 336 l 1
 64 352 l 1
 64 368 l 1
 64 384 l 1
 64 400 l 1
 64 416 l 1
 64 432 l 1
 64 448 l 1
 64 464 l 1
 64 480 l 1
 64 496 l 1
 64 512 l 1
 64 528 l 1xf480
 64 544 l 1
 64 560 l 1xf880
 80 560 l 1
 80 576 l 1
 80 592 l 1xf280
 96 592 l 1
 96 608 l 1
 112 608 l 1
 112 624 l 1
 128 624 l 1xf180
 144 624 l 1
 144 640 l 1xf880
 160 640 l 1xf280
 176 640 l 1
 192 640 l 1
 208 640 l 1
 224 640 l 1
 240 640 l 1
 256 640 l 1
 272 640 l 1
 288 640 l 1
 304 640 l 1
 320 640 l 1
 336 640 l 1
 352 640 l 1
 368 640 l 1
 384 640 l 1
 400 640 l 1
 416 640 l 1
 432 640 l 1
 448 640 l 1
 448 624 l 1
 448 608 l 1
 448 592 l 1
 448 576 l 1
 432 576 l 1
 416 576 l 1
 400 576 l 1
 384 576 l 1
 368 576 l 1
 352 576 l 1
 336 576 l 1
 320 576 l 1
 304 576 l 1
 288 576 l 1
 272 576 l 1
 256 576 l 1
 240 576 l 1
 224 576 l 1
 208 576 l 1
 192 576 l 1xf180
 176 576 l 1
 160 576 l 1
 160 560 l 1xf280
 144 560 l 1
 144 544 l 1xf880
 128 544 l 1
 128 528 l 1
 128 512 l 1
 128 496 l 1
 128 480 l 1
 128 464 l 1
 128 448 l 1
 128 432 l 1
 128 416 l 1
 128 400 l 1
 128 384 l 1
 128 368 l 1
 128 352 l 1xf480
 144 352 l 1xf880
 160 352 l 1xf280
 176 352 l 1
 192 352 l 1
 208 352 l 1
 224 352 l 1
 240 352 l 1
 256 352 l 1
 272 352 l 1
 288 352 l 1
 304 352 l 1
 320 352 l 1
 336 352 l 1
 352 352 l 1
 352 336 l 1
 352 320 l 1
 352 304 l 1
 352 288 l 1
 336 288 l 1
 320 288 l 1
 304 288 l 1
 288 288 l 1
 272 288 l 1
 256 288 l 1
 240 288 l 1
 224 288 l 1
 208 288 l 1
 192 288 l 1xf180
 176 288 l 1
 160 288 l 1xf280
 144 288 l 1xf880
 128 288 l 1
 128 272 l 1
 128 256 l 1
 128 240 l 1
 128 224 l 1
 128 208 l 1
 128 192 l 1
 128 176 l 1
 128 160 l 1
 128 144 l 1
 128 128 l 1
 128 112 l 1
 128 96 l 1xf480
 144 96 l 1
 144 80 l 1xf880
 160 80 l 1
 160 64 l 1xf280
 176 64 l 1
 192 64 l 1
 208 64 l 1
 224 64 l 1
 240 64 l 1
 256 64 l 1
 272 64 l 1
 288 64 l 1
 304 64 l 1
 320 64 l 1
 336 64 l 1
 352 64 l 1
 368 64 l 1
 384 64 l 1
 400 64 l 1
 416 64 l 1
 432 64 l 1
 448 64 l 1
 448 48 l 1
 448 32 l 1
 448 16 l 1
 448 0 l 1
 432 0 l 1xf180
368 704 m 1
 352 704 l 1
 336 704 l 1
 320 704 l 1
 320 720 l 1
 320 736 l 1
 320 752 l 1
 320 768 l 1
 320 784 l 1
 320 800 l 1
 336 800 l 1
 352 800 l 1
 368 800 l 1
 384 800 l 1
 384 784 l 1
 384 768 l 1
 384 752 l 1
 384 736 l 1
 384 720 l 1
 384 704 l 1
 368 704 l 1
176 704 m 1
 160 704 l 1xf280
 144 704 l 1xf880
 128 704 l 1
 128 720 l 1
 128 736 l 1
 128 752 l 1
 128 768 l 1
 128 784 l 1
 128 800 l 1xf180
 144 800 l 1xf880
 160 800 l 1xf280
 176 800 l 1
 192 800 l 1
 192 784 l 1
 192 768 l 1
 192 752 l 1
 192 736 l 1
 192 720 l 1
 192 704 l 1
 176 704 l 1
EndSplineSet
Validated: 1
EndChar

StartChar: LATIN
Encoding: 204 204 141
Width: 512
GlyphClass: 1
Flags: W
HStem: 0 64<96 224 288 416> 576 64<96 224 288 416> 672 48<304 320> 672 32<320 336> 752 48<176 192> 768 32<160 176>
VStem: 224 64<64 576>
LayerCount: 2
Fore
SplineSet
400 0 m 1xc2
 384 0 l 1
 368 0 l 1
 352 0 l 1
 336 0 l 1
 320 0 l 1
 304 0 l 1
 288 0 l 1
 272 0 l 1
 256 0 l 1
 240 0 l 1
 224 0 l 1
 208 0 l 1
 192 0 l 1
 176 0 l 1
 160 0 l 1
 144 0 l 1
 128 0 l 1
 112 0 l 1
 96 0 l 1
 96 16 l 1
 96 32 l 1
 96 48 l 1
 96 64 l 1
 112 64 l 1
 128 64 l 1
 144 64 l 1
 160 64 l 1
 176 64 l 1
 192 64 l 1
 208 64 l 1
 224 64 l 1
 224 80 l 1
 224 96 l 1
 224 112 l 1
 224 128 l 1
 224 144 l 1
 224 160 l 1
 224 176 l 1
 224 192 l 1
 224 208 l 1
 224 224 l 1
 224 240 l 1
 224 256 l 1
 224 272 l 1
 224 288 l 1
 224 304 l 1
 224 320 l 1
 224 336 l 1
 224 352 l 1
 224 368 l 1
 224 384 l 1
 224 400 l 1
 224 416 l 1
 224 432 l 1
 224 448 l 1
 224 464 l 1
 224 480 l 1
 224 496 l 1
 224 512 l 1
 224 528 l 1
 224 544 l 1
 224 560 l 1
 224 576 l 1
 208 576 l 1
 192 576 l 1
 176 576 l 1
 160 576 l 1
 144 576 l 1
 128 576 l 1
 112 576 l 1
 96 576 l 1
 96 592 l 1
 96 608 l 1
 96 624 l 1
 96 640 l 1
 112 640 l 1
 128 640 l 1
 144 640 l 1
 160 640 l 1
 176 640 l 1
 192 640 l 1
 208 640 l 1
 224 640 l 1
 240 640 l 1
 256 640 l 1
 272 640 l 1
 288 640 l 1
 304 640 l 1
 320 640 l 1
 336 640 l 1
 352 640 l 1
 368 640 l 1
 384 640 l 1
 400 640 l 1
 416 640 l 1
 416 624 l 1
 416 608 l 1
 416 592 l 1
 416 576 l 1
 400 576 l 1
 384 576 l 1
 368 576 l 1
 352 576 l 1
 336 576 l 1
 320 576 l 1
 304 576 l 1
 288 576 l 1
 288 560 l 1
 288 544 l 1
 288 528 l 1
 288 512 l 1
 288 496 l 1
 288 480 l 1
 288 464 l 1
 288 448 l 1
 288 432 l 1
 288 416 l 1
 288 400 l 1
 288 384 l 1
 288 368 l 1
 288 352 l 1
 288 336 l 1
 288 320 l 1
 288 304 l 1
 288 288 l 1
 288 272 l 1
 288 256 l 1
 288 240 l 1
 288 224 l 1
 288 208 l 1
 288 192 l 1
 288 176 l 1
 288 160 l 1
 288 144 l 1
 288 128 l 1
 288 112 l 1
 288 96 l 1
 288 80 l 1
 288 64 l 1
 304 64 l 1
 320 64 l 1
 336 64 l 1
 352 64 l 1
 368 64 l 1
 384 64 l 1
 400 64 l 1
 416 64 l 1
 416 48 l 1
 416 32 l 1
 416 16 l 1
 416 0 l 1
 400 0 l 1xc2
320 672 m 1xe2
 304 672 l 1xe2
 288 672 l 1
 272 672 l 1
 256 672 l 1
 256 688 l 1
 240 688 l 1
 240 704 l 1
 224 704 l 1xd2
 224 720 l 1
 208 720 l 1
 208 736 l 1
 192 736 l 1
 192 752 l 1
 176 752 l 1xea
 176 768 l 1
 160 768 l 1
 160 784 l 1
 160 800 l 1xc6
 176 800 l 1
 192 800 l 1xca
 208 800 l 1
 224 800 l 1
 240 800 l 1
 240 784 l 1
 256 784 l 1
 256 768 l 1
 272 768 l 1xc6
 272 752 l 1
 288 752 l 1
 288 736 l 1
 304 736 l 1
 304 720 l 1
 320 720 l 1xea
 320 704 l 1
 336 704 l 1
 336 688 l 1
 336 672 l 1xd2
 320 672 l 1xe2
EndSplineSet
Validated: 1
EndChar

StartChar: LATIN
Encoding: 205 205 142
Width: 512
GlyphClass: 1
Flags: W
HStem: 0 64<96 224 288 416> 576 64<96 224 288 416> 672 48<192 208> 672 32<176 192> 752 48<320 336> 768 32<336 352>
VStem: 224 64<64 576>
LayerCount: 2
Fore
SplineSet
400 0 m 1xc2
 384 0 l 1
 368 0 l 1
 352 0 l 1
 336 0 l 1
 320 0 l 1
 304 0 l 1
 288 0 l 1
 272 0 l 1
 256 0 l 1
 240 0 l 1
 224 0 l 1
 208 0 l 1
 192 0 l 1
 176 0 l 1
 160 0 l 1
 144 0 l 1
 128 0 l 1
 112 0 l 1
 96 0 l 1
 96 16 l 1
 96 32 l 1
 96 48 l 1
 96 64 l 1
 112 64 l 1
 128 64 l 1
 144 64 l 1
 160 64 l 1
 176 64 l 1
 192 64 l 1
 208 64 l 1
 224 64 l 1
 224 80 l 1
 224 96 l 1
 224 112 l 1
 224 128 l 1
 224 144 l 1
 224 160 l 1
 224 176 l 1
 224 192 l 1
 224 208 l 1
 224 224 l 1
 224 240 l 1
 224 256 l 1
 224 272 l 1
 224 288 l 1
 224 304 l 1
 224 320 l 1
 224 336 l 1
 224 352 l 1
 224 368 l 1
 224 384 l 1
 224 400 l 1
 224 416 l 1
 224 432 l 1
 224 448 l 1
 224 464 l 1
 224 480 l 1
 224 496 l 1
 224 512 l 1
 224 528 l 1
 224 544 l 1
 224 560 l 1
 224 576 l 1
 208 576 l 1
 192 576 l 1
 176 576 l 1
 160 576 l 1
 144 576 l 1
 128 576 l 1
 112 576 l 1
 96 576 l 1
 96 592 l 1
 96 608 l 1
 96 624 l 1
 96 640 l 1
 112 640 l 1
 128 640 l 1
 144 640 l 1
 160 640 l 1
 176 640 l 1
 192 640 l 1
 208 640 l 1
 224 640 l 1
 240 640 l 1
 256 640 l 1
 272 640 l 1
 288 640 l 1
 304 640 l 1
 320 640 l 1
 336 640 l 1
 352 640 l 1
 368 640 l 1
 384 640 l 1
 400 640 l 1
 416 640 l 1
 416 624 l 1
 416 608 l 1
 416 592 l 1
 416 576 l 1
 400 576 l 1
 384 576 l 1
 368 576 l 1
 352 576 l 1
 336 576 l 1
 320 576 l 1
 304 576 l 1
 288 576 l 1
 288 560 l 1
 288 544 l 1
 288 528 l 1
 288 512 l 1
 288 496 l 1
 288 480 l 1
 288 464 l 1
 288 448 l 1
 288 432 l 1
 288 416 l 1
 288 400 l 1
 288 384 l 1
 288 368 l 1
 288 352 l 1
 288 336 l 1
 288 320 l 1
 288 304 l 1
 288 288 l 1
 288 272 l 1
 288 256 l 1
 288 240 l 1
 288 224 l 1
 288 208 l 1
 288 192 l 1
 288 176 l 1
 288 160 l 1
 288 144 l 1
 288 128 l 1
 288 112 l 1
 288 96 l 1
 288 80 l 1
 288 64 l 1
 304 64 l 1
 320 64 l 1
 336 64 l 1
 352 64 l 1
 368 64 l 1
 384 64 l 1
 400 64 l 1
 416 64 l 1
 416 48 l 1
 416 32 l 1
 416 16 l 1
 416 0 l 1
 400 0 l 1xc2
240 672 m 1xd2
 224 672 l 1xd2
 208 672 l 1
 192 672 l 1xe2
 176 672 l 1
 176 688 l 1
 176 704 l 1
 192 704 l 1xd2
 192 720 l 1
 208 720 l 1
 208 736 l 1
 224 736 l 1
 224 752 l 1
 240 752 l 1xea
 240 768 l 1
 256 768 l 1
 256 784 l 1
 272 784 l 1
 272 800 l 1
 288 800 l 1
 304 800 l 1xc6
 320 800 l 1
 336 800 l 1xca
 352 800 l 1
 352 784 l 1
 352 768 l 1
 336 768 l 1xc6
 336 752 l 1
 320 752 l 1
 320 736 l 1
 304 736 l 1
 304 720 l 1
 288 720 l 1xea
 288 704 l 1
 272 704 l 1
 272 688 l 1
 256 688 l 1
 256 672 l 1
 240 672 l 1xd2
EndSplineSet
Validated: 1
EndChar

StartChar: LATIN
Encoding: 206 206 143
Width: 512
GlyphClass: 1
Flags: W
HStem: 0 64<96 224 288 416> 576 64<96 224 288 416> 704 80<176 192 320 336> 704 64<160 176 336 352> 704 48<144 160 352 368> 704 32<128 144 368 384> 752 80<240 272>
VStem: 224 64<64 576 816 832>
LayerCount: 2
Fore
SplineSet
400 0 m 1xc1
 384 0 l 1
 368 0 l 1
 352 0 l 1
 336 0 l 1
 320 0 l 1
 304 0 l 1
 288 0 l 1
 272 0 l 1
 256 0 l 1
 240 0 l 1
 224 0 l 1
 208 0 l 1
 192 0 l 1
 176 0 l 1
 160 0 l 1
 144 0 l 1
 128 0 l 1
 112 0 l 1
 96 0 l 1
 96 16 l 1
 96 32 l 1
 96 48 l 1
 96 64 l 1
 112 64 l 1
 128 64 l 1
 144 64 l 1
 160 64 l 1
 176 64 l 1
 192 64 l 1
 208 64 l 1
 224 64 l 1
 224 80 l 1
 224 96 l 1
 224 112 l 1
 224 128 l 1
 224 144 l 1
 224 160 l 1
 224 176 l 1
 224 192 l 1
 224 208 l 1
 224 224 l 1
 224 240 l 1
 224 256 l 1
 224 272 l 1
 224 288 l 1
 224 304 l 1
 224 320 l 1
 224 336 l 1
 224 352 l 1
 224 368 l 1
 224 384 l 1
 224 400 l 1
 224 416 l 1
 224 432 l 1
 224 448 l 1
 224 464 l 1
 224 480 l 1
 224 496 l 1
 224 512 l 1
 224 528 l 1
 224 544 l 1
 224 560 l 1
 224 576 l 1
 208 576 l 1
 192 576 l 1
 176 576 l 1
 160 576 l 1
 144 576 l 1
 128 576 l 1
 112 576 l 1
 96 576 l 1
 96 592 l 1
 96 608 l 1
 96 624 l 1
 96 640 l 1
 112 640 l 1
 128 640 l 1
 144 640 l 1
 160 640 l 1
 176 640 l 1
 192 640 l 1
 208 640 l 1
 224 640 l 1
 240 640 l 1
 256 640 l 1
 272 640 l 1
 288 640 l 1
 304 640 l 1
 320 640 l 1
 336 640 l 1
 352 640 l 1
 368 640 l 1
 384 640 l 1
 400 640 l 1
 416 640 l 1
 416 624 l 1
 416 608 l 1
 416 592 l 1
 416 576 l 1
 400 576 l 1
 384 576 l 1
 368 576 l 1
 352 576 l 1
 336 576 l 1
 320 576 l 1
 304 576 l 1
 288 576 l 1
 288 560 l 1
 288 544 l 1
 288 528 l 1
 288 512 l 1
 288 496 l 1
 288 480 l 1
 288 464 l 1
 288 448 l 1
 288 432 l 1
 288 416 l 1
 288 400 l 1
 288 384 l 1
 288 368 l 1
 288 352 l 1
 288 336 l 1
 288 320 l 1
 288 304 l 1
 288 288 l 1
 288 272 l 1
 288 256 l 1
 288 240 l 1
 288 224 l 1
 288 208 l 1
 288 192 l 1
 288 176 l 1
 288 160 l 1
 288 144 l 1
 288 128 l 1
 288 112 l 1
 288 96 l 1
 288 80 l 1
 288 64 l 1
 304 64 l 1
 320 64 l 1
 336 64 l 1
 352 64 l 1
 368 64 l 1
 384 64 l 1
 400 64 l 1
 416 64 l 1
 416 48 l 1
 416 32 l 1
 416 16 l 1
 416 0 l 1
 400 0 l 1xc1
368 704 m 1xc9
 352 704 l 1xd1
 336 704 l 1
 320 704 l 1xe1
 304 704 l 1
 304 720 l 1
 288 720 l 1
 288 736 l 1
 272 736 l 1
 272 752 l 1
 256 752 l 1
 240 752 l 1
 240 736 l 1
 224 736 l 1
 224 720 l 1
 208 720 l 1
 208 704 l 1xc7
 192 704 l 1
 176 704 l 1xe1
 160 704 l 1xd1
 144 704 l 1xc9
 128 704 l 1
 128 720 l 1
 128 736 l 1
 144 736 l 1xc5
 144 752 l 1
 160 752 l 1xc9
 160 768 l 1
 176 768 l 1xd1
 176 784 l 1
 192 784 l 1xe1
 192 800 l 1
 208 800 l 1
 208 816 l 1
 224 816 l 1
 224 832 l 1
 240 832 l 1
 256 832 l 1
 272 832 l 1
 288 832 l 1xc3
 288 816 l 1
 304 816 l 1
 304 800 l 1
 320 800 l 1
 320 784 l 1
 336 784 l 1xe1
 336 768 l 1
 352 768 l 1xd1
 352 752 l 1
 368 752 l 1xc9
 368 736 l 1
 384 736 l 1
 384 720 l 1
 384 704 l 1xc5
 368 704 l 1xc9
EndSplineSet
Validated: 1
EndChar

StartChar: LATIN
Encoding: 207 207 144
Width: 512
GlyphClass: 1
Flags: W
HStem: 0 64<96 224 288 416> 576 64<96 224 288 416> 704 96<128 192 320 384>
VStem: 128 64<704 800> 224 64<64 576> 320 64<704 800>
CounterMasks: 1 1c
LayerCount: 2
Fore
SplineSet
400 0 m 1
 384 0 l 1
 368 0 l 1
 352 0 l 1
 336 0 l 1
 320 0 l 1
 304 0 l 1
 288 0 l 1
 272 0 l 1
 256 0 l 1
 240 0 l 1
 224 0 l 1
 208 0 l 1
 192 0 l 1
 176 0 l 1
 160 0 l 1
 144 0 l 1
 128 0 l 1
 112 0 l 1
 96 0 l 1
 96 16 l 1
 96 32 l 1
 96 48 l 1
 96 64 l 1
 112 64 l 1
 128 64 l 1
 144 64 l 1
 160 64 l 1
 176 64 l 1
 192 64 l 1
 208 64 l 1
 224 64 l 1
 224 80 l 1
 224 96 l 1
 224 112 l 1
 224 128 l 1
 224 144 l 1
 224 160 l 1
 224 176 l 1
 224 192 l 1
 224 208 l 1
 224 224 l 1
 224 240 l 1
 224 256 l 1
 224 272 l 1
 224 288 l 1
 224 304 l 1
 224 320 l 1
 224 336 l 1
 224 352 l 1
 224 368 l 1
 224 384 l 1
 224 400 l 1
 224 416 l 1
 224 432 l 1
 224 448 l 1
 224 464 l 1
 224 480 l 1
 224 496 l 1
 224 512 l 1
 224 528 l 1
 224 544 l 1
 224 560 l 1
 224 576 l 1
 208 576 l 1
 192 576 l 1
 176 576 l 1
 160 576 l 1
 144 576 l 1
 128 576 l 1
 112 576 l 1
 96 576 l 1
 96 592 l 1
 96 608 l 1
 96 624 l 1
 96 640 l 1
 112 640 l 1
 128 640 l 1
 144 640 l 1
 160 640 l 1
 176 640 l 1
 192 640 l 1
 208 640 l 1
 224 640 l 1
 240 640 l 1
 256 640 l 1
 272 640 l 1
 288 640 l 1
 304 640 l 1
 320 640 l 1
 336 640 l 1
 352 640 l 1
 368 640 l 1
 384 640 l 1
 400 640 l 1
 416 640 l 1
 416 624 l 1
 416 608 l 1
 416 592 l 1
 416 576 l 1
 400 576 l 1
 384 576 l 1
 368 576 l 1
 352 576 l 1
 336 576 l 1
 320 576 l 1
 304 576 l 1
 288 576 l 1
 288 560 l 1
 288 544 l 1
 288 528 l 1
 288 512 l 1
 288 496 l 1
 288 480 l 1
 288 464 l 1
 288 448 l 1
 288 432 l 1
 288 416 l 1
 288 400 l 1
 288 384 l 1
 288 368 l 1
 288 352 l 1
 288 336 l 1
 288 320 l 1
 288 304 l 1
 288 288 l 1
 288 272 l 1
 288 256 l 1
 288 240 l 1
 288 224 l 1
 288 208 l 1
 288 192 l 1
 288 176 l 1
 288 160 l 1
 288 144 l 1
 288 128 l 1
 288 112 l 1
 288 96 l 1
 288 80 l 1
 288 64 l 1
 304 64 l 1
 320 64 l 1
 336 64 l 1
 352 64 l 1
 368 64 l 1
 384 64 l 1
 400 64 l 1
 416 64 l 1
 416 48 l 1
 416 32 l 1
 416 16 l 1
 416 0 l 1
 400 0 l 1
368 704 m 1
 352 704 l 1
 336 704 l 1
 320 704 l 1
 320 720 l 1
 320 736 l 1
 320 752 l 1
 320 768 l 1
 320 784 l 1
 320 800 l 1
 336 800 l 1
 352 800 l 1
 368 800 l 1
 384 800 l 1
 384 784 l 1
 384 768 l 1
 384 752 l 1
 384 736 l 1
 384 720 l 1
 384 704 l 1
 368 704 l 1
176 704 m 1
 160 704 l 1
 144 704 l 1
 128 704 l 1
 128 720 l 1
 128 736 l 1
 128 752 l 1
 128 768 l 1
 128 784 l 1
 128 800 l 1
 144 800 l 1
 160 800 l 1
 176 800 l 1
 192 800 l 1
 192 784 l 1
 192 768 l 1
 192 752 l 1
 192 736 l 1
 192 720 l 1
 192 704 l 1
 176 704 l 1
EndSplineSet
Validated: 1
EndChar

StartChar: LATIN
Encoding: 208 208 145
Width: 512
GlyphClass: 1
Flags: W
HStem: 0 64<128 352> 288 64<0 64 128 256> 576 64<128 352>
VStem: 64 64<64 288 352 576> 352 80<64 80 560 576> 368 80<80 96 544 560> 384 64<96 544>
CounterMasks: 1 e0
LayerCount: 2
Fore
SplineSet
352 0 m 1xf8
 336 0 l 1
 320 0 l 1
 304 0 l 1
 288 0 l 1
 272 0 l 1
 256 0 l 1
 240 0 l 1
 224 0 l 1
 208 0 l 1
 192 0 l 1
 176 0 l 1
 160 0 l 1
 144 0 l 1
 128 0 l 1
 112 0 l 1
 96 0 l 1
 80 0 l 1
 64 0 l 1
 64 16 l 1
 64 32 l 1
 64 48 l 1
 64 64 l 1
 64 80 l 1
 64 96 l 1
 64 112 l 1
 64 128 l 1
 64 144 l 1
 64 160 l 1
 64 176 l 1
 64 192 l 1
 64 208 l 1
 64 224 l 1
 64 240 l 1
 64 256 l 1
 64 272 l 1
 64 288 l 1
 48 288 l 1
 32 288 l 1
 16 288 l 1
 0 288 l 1
 0 304 l 1
 0 320 l 1
 0 336 l 1
 0 352 l 1
 16 352 l 1
 32 352 l 1
 48 352 l 1
 64 352 l 1
 64 368 l 1
 64 384 l 1
 64 400 l 1
 64 416 l 1
 64 432 l 1
 64 448 l 1
 64 464 l 1
 64 480 l 1
 64 496 l 1
 64 512 l 1
 64 528 l 1
 64 544 l 1
 64 560 l 1
 64 576 l 1
 64 592 l 1
 64 608 l 1
 64 624 l 1
 64 640 l 1
 80 640 l 1
 96 640 l 1
 112 640 l 1
 128 640 l 1
 144 640 l 1
 160 640 l 1
 176 640 l 1
 192 640 l 1
 208 640 l 1
 224 640 l 1
 240 640 l 1
 256 640 l 1
 272 640 l 1
 288 640 l 1
 304 640 l 1
 320 640 l 1
 336 640 l 1
 352 640 l 1xf8
 368 640 l 1
 368 624 l 1xf4
 384 624 l 1xf2
 400 624 l 1
 400 608 l 1
 416 608 l 1
 416 592 l 1
 432 592 l 1
 432 576 l 1
 432 560 l 1xf8
 448 560 l 1
 448 544 l 1xf4
 448 528 l 1
 448 512 l 1
 448 496 l 1
 448 480 l 1
 448 464 l 1
 448 448 l 1
 448 432 l 1
 448 416 l 1
 448 400 l 1
 448 384 l 1
 448 368 l 1
 448 352 l 1
 448 336 l 1
 448 320 l 1
 448 304 l 1
 448 288 l 1
 448 272 l 1
 448 256 l 1
 448 240 l 1
 448 224 l 1
 448 208 l 1
 448 192 l 1
 448 176 l 1
 448 160 l 1
 448 144 l 1
 448 128 l 1
 448 112 l 1xf2
 448 96 l 1
 448 80 l 1xf4
 432 80 l 1
 432 64 l 1
 432 48 l 1xf8
 416 48 l 1
 416 32 l 1
 400 32 l 1
 400 16 l 1
 384 16 l 1xf2
 368 16 l 1
 368 0 l 1xf4
 352 0 l 1xf8
336 64 m 1
 352 64 l 1
 352 80 l 1xf8
 368 80 l 1
 368 96 l 1xf4
 384 96 l 1
 384 112 l 1
 384 128 l 1
 384 144 l 1
 384 160 l 1
 384 176 l 1
 384 192 l 1
 384 208 l 1
 384 224 l 1
 384 240 l 1
 384 256 l 1
 384 272 l 1
 384 288 l 1
 384 304 l 1
 384 320 l 1
 384 336 l 1
 384 352 l 1
 384 368 l 1
 384 384 l 1
 384 400 l 1
 384 416 l 1
 384 432 l 1
 384 448 l 1
 384 464 l 1
 384 480 l 1
 384 496 l 1
 384 512 l 1
 384 528 l 1
 384 544 l 1xf2
 368 544 l 1
 368 560 l 1xf4
 352 560 l 1
 352 576 l 1
 336 576 l 1
 320 576 l 1
 304 576 l 1
 288 576 l 1
 272 576 l 1
 256 576 l 1
 240 576 l 1
 224 576 l 1
 208 576 l 1
 192 576 l 1
 176 576 l 1
 160 576 l 1
 144 576 l 1
 128 576 l 1
 128 560 l 1
 128 544 l 1
 128 528 l 1
 128 512 l 1
 128 496 l 1
 128 480 l 1
 128 464 l 1
 128 448 l 1
 128 432 l 1
 128 416 l 1
 128 400 l 1
 128 384 l 1
 128 368 l 1
 128 352 l 1
 144 352 l 1
 160 352 l 1
 176 352 l 1
 192 352 l 1
 208 352 l 1
 224 352 l 1
 240 352 l 1
 256 352 l 1
 256 336 l 1
 256 320 l 1
 256 304 l 1
 256 288 l 1
 240 288 l 1
 224 288 l 1
 208 288 l 1
 192 288 l 1
 176 288 l 1
 160 288 l 1
 144 288 l 1
 128 288 l 1
 128 272 l 1
 128 256 l 1
 128 240 l 1
 128 224 l 1
 128 208 l 1
 128 192 l 1
 128 176 l 1
 128 160 l 1
 128 144 l 1
 128 128 l 1
 128 112 l 1
 128 96 l 1
 128 80 l 1
 128 64 l 1
 144 64 l 1
 160 64 l 1
 176 64 l 1
 192 64 l 1
 208 64 l 1
 224 64 l 1
 240 64 l 1
 256 64 l 1
 272 64 l 1
 288 64 l 1
 304 64 l 1
 320 64 l 1
 336 64 l 1
EndSplineSet
Validated: 1
EndChar

StartChar: LATIN
Encoding: 209 209 146
Width: 512
GlyphClass: 1
Flags: W
HStem: 0 21G<64 128 352 448> 620 20G<64 128 384 448> 672 80<80 96 288 304 352 368> 672 64<64 80 304 352> 720 80<144 160 208 224 416 432> 736 64<160 208 432 448>
VStem: 64 96<544 576 720 736> 64 80<576 608 704 720> 64 64<0 448 608 640 672 704> 144 80<416 448> 160 80<384 416> 176 80<352 384> 192 80<320 352> 208 80<288 320> 224 80<256 288> 240 80<224 256> 256 80<192 224> 272 80<160 192> 288 80<128 160> 352 96<0 32 736 752> 384 64<128 640 768 800>
LayerCount: 2
Fore
SplineSet
432 0 m 1xc00010
 416 0 l 1
 400 0 l 1
 384 0 l 1
 368 0 l 1xc00028
 352 0 l 1
 352 16 l 1
 352 32 l 1
 336 32 l 1
 336 48 l 1
 336 64 l 1xc00090
 320 64 l 1
 320 80 l 1
 320 96 l 1xc001
 304 96 l 1
 304 112 l 1
 304 128 l 1xc002
 288 128 l 1
 288 144 l 1
 288 160 l 1xc00020
 272 160 l 1
 272 176 l 1
 272 192 l 1xc00040
 256 192 l 1
 256 208 l 1
 256 224 l 1xc00080
 240 224 l 1
 240 240 l 1
 240 256 l 1xc001
 224 256 l 1
 224 272 l 1
 224 288 l 1xc002
 208 288 l 1
 208 304 l 1
 208 320 l 1xc004
 192 320 l 1
 192 336 l 1
 192 352 l 1xc008
 176 352 l 1
 176 368 l 1
 176 384 l 1xc010
 160 384 l 1
 160 400 l 1
 160 416 l 1xc020
 144 416 l 1
 144 432 l 1
 144 448 l 1
 128 448 l 1
 128 432 l 1
 128 416 l 1
 128 400 l 1
 128 384 l 1
 128 368 l 1
 128 352 l 1
 128 336 l 1
 128 320 l 1
 128 304 l 1
 128 288 l 1
 128 272 l 1
 128 256 l 1
 128 240 l 1
 128 224 l 1
 128 208 l 1
 128 192 l 1
 128 176 l 1
 128 160 l 1
 128 144 l 1
 128 128 l 1
 128 112 l 1
 128 96 l 1
 128 80 l 1
 128 64 l 1
 128 48 l 1
 128 32 l 1
 128 16 l 1
 128 0 l 1
 112 0 l 1
 96 0 l 1
 80 0 l 1
 64 0 l 1
 64 16 l 1
 64 32 l 1
 64 48 l 1
 64 64 l 1
 64 80 l 1
 64 96 l 1
 64 112 l 1
 64 128 l 1
 64 144 l 1
 64 160 l 1
 64 176 l 1
 64 192 l 1
 64 208 l 1
 64 224 l 1
 64 240 l 1
 64 256 l 1
 64 272 l 1
 64 288 l 1
 64 304 l 1
 64 320 l 1
 64 336 l 1
 64 352 l 1
 64 368 l 1
 64 384 l 1
 64 400 l 1
 64 416 l 1
 64 432 l 1
 64 448 l 1
 64 464 l 1
 64 480 l 1
 64 496 l 1
 64 512 l 1
 64 528 l 1xc0c0
 64 544 l 1
 64 560 l 1
 64 576 l 1xc2
 64 592 l 1
 64 608 l 1xc1
 64 624 l 1
 64 640 l 1
 80 640 l 1
 96 640 l 1
 112 640 l 1
 128 640 l 1
 128 624 l 1
 128 608 l 1xc080
 144 608 l 1
 144 592 l 1
 144 576 l 1xc1
 160 576 l 1
 160 560 l 1
 160 544 l 1
 176 544 l 1
 176 528 l 1
 176 512 l 1xc210
 192 512 l 1
 192 496 l 1
 192 480 l 1xc008
 208 480 l 1
 208 464 l 1
 208 448 l 1xc004
 224 448 l 1
 224 432 l 1
 224 416 l 1xc040
 240 416 l 1
 240 400 l 1
 240 384 l 1xc020
 256 384 l 1
 256 368 l 1
 256 352 l 1xc010
 272 352 l 1
 272 336 l 1
 272 320 l 1xc008
 288 320 l 1
 288 304 l 1
 288 288 l 1xc004
 304 288 l 1
 304 272 l 1
 304 256 l 1xc002
 320 256 l 1
 320 240 l 1
 320 224 l 1xc001
 336 224 l 1
 336 208 l 1
 336 192 l 1xc00080
 352 192 l 1
 352 176 l 1
 352 160 l 1xc00040
 368 160 l 1
 368 144 l 1
 368 128 l 1
 384 128 l 1
 384 144 l 1
 384 160 l 1
 384 176 l 1
 384 192 l 1
 384 208 l 1
 384 224 l 1
 384 240 l 1
 384 256 l 1
 384 272 l 1
 384 288 l 1
 384 304 l 1
 384 320 l 1
 384 336 l 1
 384 352 l 1
 384 368 l 1
 384 384 l 1
 384 400 l 1
 384 416 l 1
 384 432 l 1
 384 448 l 1
 384 464 l 1
 384 480 l 1
 384 496 l 1
 384 512 l 1
 384 528 l 1
 384 544 l 1
 384 560 l 1
 384 576 l 1
 384 592 l 1
 384 608 l 1
 384 624 l 1
 384 640 l 1
 400 640 l 1
 416 640 l 1
 432 640 l 1
 448 640 l 1
 448 624 l 1
 448 608 l 1
 448 592 l 1
 448 576 l 1
 448 560 l 1
 448 544 l 1
 448 528 l 1
 448 512 l 1
 448 496 l 1
 448 480 l 1
 448 464 l 1
 448 448 l 1
 448 432 l 1
 448 416 l 1
 448 400 l 1
 448 384 l 1
 448 368 l 1
 448 352 l 1
 448 336 l 1
 448 320 l 1
 448 304 l 1
 448 288 l 1
 448 272 l 1
 448 256 l 1
 448 240 l 1
 448 224 l 1
 448 208 l 1
 448 192 l 1
 448 176 l 1
 448 160 l 1
 448 144 l 1
 448 128 l 1
 448 112 l 1
 448 96 l 1
 448 80 l 1
 448 64 l 1
 448 48 l 1xc00028
 448 32 l 1
 448 16 l 1
 448 0 l 1
 432 0 l 1xc00010
352 672 m 1xe00010
 336 672 l 1xd00090
 320 672 l 1xd001
 304 672 l 1xe002
 288 672 l 1xe00020
 272 672 l 1
 272 688 l 1xd00040
 256 688 l 1xd00080
 240 688 l 1
 240 704 l 1xd001
 224 704 l 1
 224 720 l 1xc802
 208 720 l 1xc804
 208 736 l 1xc404
 192 736 l 1xc408
 176 736 l 1
 160 736 l 1xc610
 160 720 l 1xca10
 144 720 l 1
 144 704 l 1xc9
 128 704 l 1
 128 688 l 1
 128 672 l 1
 112 672 l 1xd080
 96 672 l 1
 80 672 l 1xe080
 64 672 l 1
 64 688 l 1xd080
 64 704 l 1xd1
 64 720 l 1xca
 64 736 l 1
 80 736 l 1xd2
 80 752 l 1
 96 752 l 1xe2
 96 768 l 1
 112 768 l 1
 112 784 l 1
 128 784 l 1
 144 784 l 1
 144 800 l 1xc8c0
 160 800 l 1xc820
 176 800 l 1xc410
 192 800 l 1xc408
 208 800 l 1xc804
 224 800 l 1xc802
 240 800 l 1
 240 784 l 1xc401
 256 784 l 1xc40080
 272 784 l 1
 272 768 l 1xc40040
 288 768 l 1
 288 752 l 1xe00020
 304 752 l 1xe002
 304 736 l 1xd002
 320 736 l 1xd001
 336 736 l 1
 352 736 l 1xd00090
 352 752 l 1xe00090
 368 752 l 1xe00020
 368 768 l 1
 384 768 l 1
 384 784 l 1
 384 800 l 1
 400 800 l 1xc40028
 416 800 l 1
 432 800 l 1xc80028
 448 800 l 1
 448 784 l 1
 448 768 l 1xc40028
 448 752 l 1xe00010
 448 736 l 1
 432 736 l 1xc40010
 432 720 l 1
 416 720 l 1xc80010
 416 704 l 1
 400 704 l 1
 400 688 l 1
 384 688 l 1
 368 688 l 1
 368 672 l 1xe00028
 352 672 l 1xe00010
EndSplineSet
Validated: 1
EndChar

StartChar: LATIN
Encoding: 210 210 147
Width: 512
GlyphClass: 1
Flags: W
HStem: 0 80<144 160 352 368> 0 64<160 352> 16 80<128 144 368 384> 544 80<128 144 368 384> 560 80<144 160 352 368> 576 64<160 352> 672 48<304 320> 672 32<320 336> 752 48<176 192> 768 32<160 176>
VStem: 64 80<80 96 544 560> 64 64<96 544> 80 80<64 80 560 576> 352 80<64 80 560 576> 368 80<80 96 544 560> 384 64<96 544>
LayerCount: 2
Fore
SplineSet
352 0 m 1x8004
 336 0 l 1
 320 0 l 1
 304 0 l 1
 288 0 l 1
 272 0 l 1
 256 0 l 1
 240 0 l 1
 224 0 l 1
 208 0 l 1
 192 0 l 1
 176 0 l 1x4004
 160 0 l 1x800c
 144 0 l 1x8020
 144 16 l 1x2020
 128 16 l 1
 112 16 l 1x2010
 112 32 l 1
 96 32 l 1
 96 48 l 1
 80 48 l 1
 80 64 l 1x4008
 80 80 l 1x8008
 64 80 l 1x8020
 64 96 l 1x2020
 64 112 l 1
 64 128 l 1
 64 144 l 1
 64 160 l 1
 64 176 l 1
 64 192 l 1
 64 208 l 1
 64 224 l 1
 64 240 l 1
 64 256 l 1
 64 272 l 1
 64 288 l 1
 64 304 l 1
 64 320 l 1
 64 336 l 1
 64 352 l 1
 64 368 l 1
 64 384 l 1
 64 400 l 1
 64 416 l 1
 64 432 l 1
 64 448 l 1
 64 464 l 1
 64 480 l 1
 64 496 l 1
 64 512 l 1
 64 528 l 1x2010
 64 544 l 1x3020
 64 560 l 1x0820
 80 560 l 1x0808
 80 576 l 1
 80 592 l 1x0408
 96 592 l 1
 96 608 l 1
 112 608 l 1
 112 624 l 1
 128 624 l 1x1010
 144 624 l 1x1020
 144 640 l 1x0820
 160 640 l 1x0808
 176 640 l 1
 192 640 l 1
 208 640 l 1
 224 640 l 1
 240 640 l 1
 256 640 l 1
 272 640 l 1
 288 640 l 1
 304 640 l 1
 320 640 l 1
 336 640 l 1x0408
 352 640 l 1x080c
 368 640 l 1x0802
 368 624 l 1x1002
 384 624 l 1
 400 624 l 1x1001
 400 608 l 1
 416 608 l 1
 416 592 l 1
 432 592 l 1
 432 576 l 1x0404
 432 560 l 1x0804
 448 560 l 1x0802
 448 544 l 1x1002
 448 528 l 1
 448 512 l 1
 448 496 l 1
 448 480 l 1
 448 464 l 1
 448 448 l 1
 448 432 l 1
 448 416 l 1
 448 400 l 1
 448 384 l 1
 448 368 l 1
 448 352 l 1
 448 336 l 1
 448 320 l 1
 448 304 l 1
 448 288 l 1
 448 272 l 1
 448 256 l 1
 448 240 l 1
 448 224 l 1
 448 208 l 1
 448 192 l 1
 448 176 l 1
 448 160 l 1
 448 144 l 1
 448 128 l 1
 448 112 l 1x1001
 448 96 l 1x3002
 448 80 l 1x8002
 432 80 l 1x8004
 432 64 l 1
 432 48 l 1x4004
 416 48 l 1
 416 32 l 1
 400 32 l 1
 400 16 l 1
 384 16 l 1x2001
 368 16 l 1x2002
 368 0 l 1x8002
 352 0 l 1x8004
336 64 m 1
 352 64 l 1x400c
 352 80 l 1x800c
 368 80 l 1x8002
 368 96 l 1x2002
 384 96 l 1
 384 112 l 1
 384 128 l 1
 384 144 l 1
 384 160 l 1
 384 176 l 1
 384 192 l 1
 384 208 l 1
 384 224 l 1
 384 240 l 1
 384 256 l 1
 384 272 l 1
 384 288 l 1
 384 304 l 1
 384 320 l 1
 384 336 l 1
 384 352 l 1
 384 368 l 1
 384 384 l 1
 384 400 l 1
 384 416 l 1
 384 432 l 1
 384 448 l 1
 384 464 l 1
 384 480 l 1
 384 496 l 1
 384 512 l 1
 384 528 l 1
 384 544 l 1x3001
 368 544 l 1x3002
 368 560 l 1x0802
 352 560 l 1x0804
 352 576 l 1
 336 576 l 1
 320 576 l 1
 304 576 l 1
 288 576 l 1
 272 576 l 1
 256 576 l 1
 240 576 l 1
 224 576 l 1
 208 576 l 1
 192 576 l 1
 176 576 l 1
 160 576 l 1x040c
 160 560 l 1x080c
 144 560 l 1x0820
 144 544 l 1x1020
 128 544 l 1
 128 528 l 1
 128 512 l 1
 128 496 l 1
 128 480 l 1
 128 464 l 1
 128 448 l 1
 128 432 l 1
 128 416 l 1
 128 400 l 1
 128 384 l 1
 128 368 l 1
 128 352 l 1
 128 336 l 1
 128 320 l 1
 128 304 l 1
 128 288 l 1
 128 272 l 1
 128 256 l 1
 128 240 l 1
 128 224 l 1
 128 208 l 1
 128 192 l 1
 128 176 l 1
 128 160 l 1
 128 144 l 1
 128 128 l 1
 128 112 l 1
 128 96 l 1x3010
 144 96 l 1x3020
 144 80 l 1x8020
 160 80 l 1x8008
 160 64 l 1x4008
 176 64 l 1
 192 64 l 1
 208 64 l 1
 224 64 l 1
 240 64 l 1
 256 64 l 1
 272 64 l 1
 288 64 l 1
 304 64 l 1
 320 64 l 1
 336 64 l 1
320 672 m 1x0208
 304 672 l 1x0208
 288 672 l 1
 272 672 l 1
 256 672 l 1
 256 688 l 1
 240 688 l 1
 240 704 l 1
 224 704 l 1x0108
 224 720 l 1
 208 720 l 1
 208 736 l 1
 192 736 l 1
 192 752 l 1
 176 752 l 1x0288
 176 768 l 1
 160 768 l 1
 160 784 l 1
 160 800 l 1x0048
 176 800 l 1
 192 800 l 1x0088
 208 800 l 1
 224 800 l 1
 240 800 l 1
 240 784 l 1
 256 784 l 1
 256 768 l 1
 272 768 l 1x0048
 272 752 l 1
 288 752 l 1
 288 736 l 1
 304 736 l 1
 304 720 l 1
 320 720 l 1x0288
 320 704 l 1
 336 704 l 1
 336 688 l 1
 336 672 l 1x0108
 320 672 l 1x0208
EndSplineSet
Validated: 1
EndChar

StartChar: LATIN
Encoding: 211 211 148
Width: 512
GlyphClass: 1
Flags: W
HStem: 0 80<144 160 352 368> 0 64<160 352> 16 80<128 144 368 384> 544 80<128 144 368 384> 560 80<144 160 352 368> 576 64<160 352> 672 48<192 208> 672 32<176 192> 752 48<320 336> 768 32<336 352>
VStem: 64 80<80 96 544 560> 64 64<96 544> 80 80<64 80 560 576> 352 80<64 80 560 576> 368 80<80 96 544 560> 384 64<96 544>
LayerCount: 2
Fore
SplineSet
352 0 m 1x8004
 336 0 l 1
 320 0 l 1
 304 0 l 1
 288 0 l 1
 272 0 l 1
 256 0 l 1
 240 0 l 1
 224 0 l 1
 208 0 l 1
 192 0 l 1
 176 0 l 1x4004
 160 0 l 1x800c
 144 0 l 1x8020
 144 16 l 1x2020
 128 16 l 1
 112 16 l 1x2010
 112 32 l 1
 96 32 l 1
 96 48 l 1
 80 48 l 1
 80 64 l 1x4008
 80 80 l 1x8008
 64 80 l 1x8020
 64 96 l 1x2020
 64 112 l 1
 64 128 l 1
 64 144 l 1
 64 160 l 1
 64 176 l 1
 64 192 l 1
 64 208 l 1
 64 224 l 1
 64 240 l 1
 64 256 l 1
 64 272 l 1
 64 288 l 1
 64 304 l 1
 64 320 l 1
 64 336 l 1
 64 352 l 1
 64 368 l 1
 64 384 l 1
 64 400 l 1
 64 416 l 1
 64 432 l 1
 64 448 l 1
 64 464 l 1
 64 480 l 1
 64 496 l 1
 64 512 l 1
 64 528 l 1x2010
 64 544 l 1x3020
 64 560 l 1x0820
 80 560 l 1x0808
 80 576 l 1
 80 592 l 1x0408
 96 592 l 1
 96 608 l 1
 112 608 l 1
 112 624 l 1
 128 624 l 1x1010
 144 624 l 1x1020
 144 640 l 1x0820
 160 640 l 1x0808
 176 640 l 1
 192 640 l 1
 208 640 l 1
 224 640 l 1
 240 640 l 1
 256 640 l 1
 272 640 l 1
 288 640 l 1
 304 640 l 1
 320 640 l 1
 336 640 l 1x0408
 352 640 l 1x080c
 368 640 l 1x0802
 368 624 l 1x1002
 384 624 l 1
 400 624 l 1x1001
 400 608 l 1
 416 608 l 1
 416 592 l 1
 432 592 l 1
 432 576 l 1x0404
 432 560 l 1x0804
 448 560 l 1x0802
 448 544 l 1x1002
 448 528 l 1
 448 512 l 1
 448 496 l 1
 448 480 l 1
 448 464 l 1
 448 448 l 1
 448 432 l 1
 448 416 l 1
 448 400 l 1
 448 384 l 1
 448 368 l 1
 448 352 l 1
 448 336 l 1
 448 320 l 1
 448 304 l 1
 448 288 l 1
 448 272 l 1
 448 256 l 1
 448 240 l 1
 448 224 l 1
 448 208 l 1
 448 192 l 1
 448 176 l 1
 448 160 l 1
 448 144 l 1
 448 128 l 1
 448 112 l 1x1001
 448 96 l 1x3002
 448 80 l 1x8002
 432 80 l 1x8004
 432 64 l 1
 432 48 l 1x4004
 416 48 l 1
 416 32 l 1
 400 32 l 1
 400 16 l 1
 384 16 l 1x2001
 368 16 l 1x2002
 368 0 l 1x8002
 352 0 l 1x8004
336 64 m 1
 352 64 l 1x400c
 352 80 l 1x800c
 368 80 l 1x8002
 368 96 l 1x2002
 384 96 l 1
 384 112 l 1
 384 128 l 1
 384 144 l 1
 384 160 l 1
 384 176 l 1
 384 192 l 1
 384 208 l 1
 384 224 l 1
 384 240 l 1
 384 256 l 1
 384 272 l 1
 384 288 l 1
 384 304 l 1
 384 320 l 1
 384 336 l 1
 384 352 l 1
 384 368 l 1
 384 384 l 1
 384 400 l 1
 384 416 l 1
 384 432 l 1
 384 448 l 1
 384 464 l 1
 384 480 l 1
 384 496 l 1
 384 512 l 1
 384 528 l 1
 384 544 l 1x3001
 368 544 l 1x3002
 368 560 l 1x0802
 352 560 l 1x0804
 352 576 l 1
 336 576 l 1
 320 576 l 1
 304 576 l 1
 288 576 l 1
 272 576 l 1
 256 576 l 1
 240 576 l 1
 224 576 l 1
 208 576 l 1
 192 576 l 1
 176 576 l 1
 160 576 l 1x040c
 160 560 l 1x080c
 144 560 l 1x0820
 144 544 l 1x1020
 128 544 l 1
 128 528 l 1
 128 512 l 1
 128 496 l 1
 128 480 l 1
 128 464 l 1
 128 448 l 1
 128 432 l 1
 128 416 l 1
 128 400 l 1
 128 384 l 1
 128 368 l 1
 128 352 l 1
 128 336 l 1
 128 320 l 1
 128 304 l 1
 128 288 l 1
 128 272 l 1
 128 256 l 1
 128 240 l 1
 128 224 l 1
 128 208 l 1
 128 192 l 1
 128 176 l 1
 128 160 l 1
 128 144 l 1
 128 128 l 1
 128 112 l 1
 128 96 l 1x3010
 144 96 l 1x3020
 144 80 l 1x8020
 160 80 l 1x8008
 160 64 l 1x4008
 176 64 l 1
 192 64 l 1
 208 64 l 1
 224 64 l 1
 240 64 l 1
 256 64 l 1
 272 64 l 1
 288 64 l 1
 304 64 l 1
 320 64 l 1
 336 64 l 1
240 672 m 1x0104
 224 672 l 1x0104
 208 672 l 1
 192 672 l 1x0204
 176 672 l 1
 176 688 l 1
 176 704 l 1
 192 704 l 1x0104
 192 720 l 1
 208 720 l 1
 208 736 l 1
 224 736 l 1
 224 752 l 1
 240 752 l 1x0284
 240 768 l 1
 256 768 l 1
 256 784 l 1
 272 784 l 1
 272 800 l 1
 288 800 l 1
 304 800 l 1x0044
 320 800 l 1
 336 800 l 1x0084
 352 800 l 1
 352 784 l 1
 352 768 l 1
 336 768 l 1x0044
 336 752 l 1
 320 752 l 1
 320 736 l 1
 304 736 l 1
 304 720 l 1
 288 720 l 1x0284
 288 704 l 1
 272 704 l 1
 272 688 l 1
 256 688 l 1
 256 672 l 1
 240 672 l 1x0104
EndSplineSet
Validated: 1
EndChar

StartChar: LATIN
Encoding: 212 212 149
Width: 512
GlyphClass: 1
Flags: W
HStem: 0 80<144 160 352 368> 0 64<160 352> 16 80<128 144 368 384> 544 80<128 144 368 384> 560 80<144 160 352 368> 576 64<160 352> 704 80<176 192 320 336> 704 64<160 176 336 352> 704 48<144 160 352 368> 704 32<128 144 368 384> 752 80<240 272>
VStem: 64 80<80 96 544 560> 64 64<96 544> 80 80<64 80 560 576> 352 80<64 80 560 576> 368 80<80 96 544 560> 384 64<96 544>
LayerCount: 2
Fore
SplineSet
352 0 m 1x8002
 336 0 l 1
 320 0 l 1
 304 0 l 1
 288 0 l 1
 272 0 l 1
 256 0 l 1
 240 0 l 1
 224 0 l 1
 208 0 l 1
 192 0 l 1
 176 0 l 1x4002
 160 0 l 1x8006
 144 0 l 1x8010
 144 16 l 1x2010
 128 16 l 1
 112 16 l 1x2008
 112 32 l 1
 96 32 l 1
 96 48 l 1
 80 48 l 1
 80 64 l 1x4004
 80 80 l 1x8004
 64 80 l 1x8010
 64 96 l 1x2010
 64 112 l 1
 64 128 l 1
 64 144 l 1
 64 160 l 1
 64 176 l 1
 64 192 l 1
 64 208 l 1
 64 224 l 1
 64 240 l 1
 64 256 l 1
 64 272 l 1
 64 288 l 1
 64 304 l 1
 64 320 l 1
 64 336 l 1
 64 352 l 1
 64 368 l 1
 64 384 l 1
 64 400 l 1
 64 416 l 1
 64 432 l 1
 64 448 l 1
 64 464 l 1
 64 480 l 1
 64 496 l 1
 64 512 l 1
 64 528 l 1x2008
 64 544 l 1x3010
 64 560 l 1x0810
 80 560 l 1x0804
 80 576 l 1
 80 592 l 1x0404
 96 592 l 1
 96 608 l 1
 112 608 l 1
 112 624 l 1
 128 624 l 1x1008
 144 624 l 1x1010
 144 640 l 1x0810
 160 640 l 1x0804
 176 640 l 1
 192 640 l 1
 208 640 l 1
 224 640 l 1
 240 640 l 1
 256 640 l 1
 272 640 l 1
 288 640 l 1
 304 640 l 1
 320 640 l 1
 336 640 l 1x0404
 352 640 l 1x0806
 368 640 l 1x0801
 368 624 l 1x1001
 384 624 l 1
 400 624 l 1x100080
 400 608 l 1
 416 608 l 1
 416 592 l 1
 432 592 l 1
 432 576 l 1x0402
 432 560 l 1x0802
 448 560 l 1x0801
 448 544 l 1x1001
 448 528 l 1
 448 512 l 1
 448 496 l 1
 448 480 l 1
 448 464 l 1
 448 448 l 1
 448 432 l 1
 448 416 l 1
 448 400 l 1
 448 384 l 1
 448 368 l 1
 448 352 l 1
 448 336 l 1
 448 320 l 1
 448 304 l 1
 448 288 l 1
 448 272 l 1
 448 256 l 1
 448 240 l 1
 448 224 l 1
 448 208 l 1
 448 192 l 1
 448 176 l 1
 448 160 l 1
 448 144 l 1
 448 128 l 1
 448 112 l 1x100080
 448 96 l 1x3001
 448 80 l 1x8001
 432 80 l 1x8002
 432 64 l 1
 432 48 l 1x4002
 416 48 l 1
 416 32 l 1
 400 32 l 1
 400 16 l 1
 384 16 l 1x200080
 368 16 l 1x2001
 368 0 l 1x8001
 352 0 l 1x8002
336 64 m 1
 352 64 l 1x4006
 352 80 l 1x8006
 368 80 l 1x8001
 368 96 l 1x2001
 384 96 l 1
 384 112 l 1
 384 128 l 1
 384 144 l 1
 384 160 l 1
 384 176 l 1
 384 192 l 1
 384 208 l 1
 384 224 l 1
 384 240 l 1
 384 256 l 1
 384 272 l 1
 384 288 l 1
 384 304 l 1
 384 320 l 1
 384 336 l 1
 384 352 l 1
 384 368 l 1
 384 384 l 1
 384 400 l 1
 384 416 l 1
 384 432 l 1
 384 448 l 1
 384 464 l 1
 384 480 l 1
 384 496 l 1
 384 512 l 1
 384 528 l 1
 384 544 l 1x300080
 368 544 l 1x3001
 368 560 l 1x0801
 352 560 l 1x0802
 352 576 l 1
 336 576 l 1
 320 576 l 1
 304 576 l 1
 288 576 l 1
 272 576 l 1
 256 576 l 1
 240 576 l 1
 224 576 l 1
 208 576 l 1
 192 576 l 1
 176 576 l 1
 160 576 l 1x0406
 160 560 l 1x0806
 144 560 l 1x0810
 144 544 l 1x1010
 128 544 l 1
 128 528 l 1
 128 512 l 1
 128 496 l 1
 128 480 l 1
 128 464 l 1
 128 448 l 1
 128 432 l 1
 128 416 l 1
 128 400 l 1
 128 384 l 1
 128 368 l 1
 128 352 l 1
 128 336 l 1
 128 320 l 1
 128 304 l 1
 128 288 l 1
 128 272 l 1
 128 256 l 1
 128 240 l 1
 128 224 l 1
 128 208 l 1
 128 192 l 1
 128 176 l 1
 128 160 l 1
 128 144 l 1
 128 128 l 1
 128 112 l 1
 128 96 l 1x3008
 144 96 l 1x3010
 144 80 l 1x8010
 160 80 l 1x8004
 160 64 l 1x4004
 176 64 l 1
 192 64 l 1
 208 64 l 1
 224 64 l 1
 240 64 l 1
 256 64 l 1
 272 64 l 1
 288 64 l 1
 304 64 l 1
 320 64 l 1
 336 64 l 1
368 704 m 1x0081
 352 704 l 1x0102
 336 704 l 1
 320 704 l 1x0202
 304 704 l 1
 304 720 l 1
 288 720 l 1
 288 736 l 1
 272 736 l 1
 272 752 l 1
 256 752 l 1
 240 752 l 1
 240 736 l 1
 224 736 l 1
 224 720 l 1
 208 720 l 1
 208 704 l 1x0062
 192 704 l 1
 176 704 l 1x0202
 160 704 l 1x0106
 144 704 l 1x0090
 128 704 l 1
 128 720 l 1
 128 736 l 1x0048
 144 736 l 1x0050
 144 752 l 1x0090
 160 752 l 1x0084
 160 768 l 1
 176 768 l 1x0104
 176 784 l 1
 192 784 l 1x0204
 192 800 l 1
 208 800 l 1
 208 816 l 1
 224 816 l 1
 224 832 l 1
 240 832 l 1
 256 832 l 1
 272 832 l 1
 288 832 l 1x0024
 288 816 l 1
 304 816 l 1
 304 800 l 1
 320 800 l 1
 320 784 l 1
 336 784 l 1x0204
 336 768 l 1
 352 768 l 1x0106
 352 752 l 1x0086
 368 752 l 1x0081
 368 736 l 1x0041
 384 736 l 1
 384 720 l 1
 384 704 l 1x004080
 368 704 l 1x0081
EndSplineSet
Validated: 1
EndChar

StartChar: LATIN
Encoding: 213 213 150
Width: 512
GlyphClass: 1
Flags: W
HStem: 0 80<144 160 352 368> 0 64<160 352> 16 80<128 144 368 384> 544 80<128 144 368 384> 560 80<144 160 352 368> 576 64<160 352> 672 80<80 96 288 304 352 368> 672 64<64 80 304 352> 720 80<144 160 208 224 416 432> 736 64<160 208 432 448>
VStem: 64 80<80 96 544 560 704 720> 64 64<96 544 672 704> 80 80<64 80 560 576> 352 80<64 80 560 576> 368 80<80 96 544 560 752 768> 384 64<96 544 768 800>
LayerCount: 2
Fore
SplineSet
352 0 m 1x8004
 336 0 l 1
 320 0 l 1
 304 0 l 1
 288 0 l 1
 272 0 l 1
 256 0 l 1
 240 0 l 1
 224 0 l 1
 208 0 l 1
 192 0 l 1
 176 0 l 1x4004
 160 0 l 1x800c
 144 0 l 1x8020
 144 16 l 1x2020
 128 16 l 1
 112 16 l 1x2010
 112 32 l 1
 96 32 l 1
 96 48 l 1
 80 48 l 1
 80 64 l 1x4008
 80 80 l 1x8008
 64 80 l 1x8020
 64 96 l 1x2020
 64 112 l 1
 64 128 l 1
 64 144 l 1
 64 160 l 1
 64 176 l 1
 64 192 l 1
 64 208 l 1
 64 224 l 1
 64 240 l 1
 64 256 l 1
 64 272 l 1
 64 288 l 1
 64 304 l 1
 64 320 l 1
 64 336 l 1
 64 352 l 1
 64 368 l 1
 64 384 l 1
 64 400 l 1
 64 416 l 1
 64 432 l 1
 64 448 l 1
 64 464 l 1
 64 480 l 1
 64 496 l 1
 64 512 l 1
 64 528 l 1x2010
 64 544 l 1x3020
 64 560 l 1x0820
 80 560 l 1x0808
 80 576 l 1
 80 592 l 1x0408
 96 592 l 1
 96 608 l 1
 112 608 l 1
 112 624 l 1
 128 624 l 1x1010
 144 624 l 1x1020
 144 640 l 1x0820
 160 640 l 1x0808
 176 640 l 1
 192 640 l 1
 208 640 l 1
 224 640 l 1
 240 640 l 1
 256 640 l 1
 272 640 l 1
 288 640 l 1
 304 640 l 1
 320 640 l 1
 336 640 l 1x0408
 352 640 l 1x080c
 368 640 l 1x0802
 368 624 l 1x1002
 384 624 l 1
 400 624 l 1x1001
 400 608 l 1
 416 608 l 1
 416 592 l 1
 432 592 l 1
 432 576 l 1x0404
 432 560 l 1x0804
 448 560 l 1x0802
 448 544 l 1x1002
 448 528 l 1
 448 512 l 1
 448 496 l 1
 448 480 l 1
 448 464 l 1
 448 448 l 1
 448 432 l 1
 448 416 l 1
 448 400 l 1
 448 384 l 1
 448 368 l 1
 448 352 l 1
 448 336 l 1
 448 320 l 1
 448 304 l 1
 448 288 l 1
 448 272 l 1
 448 256 l 1
 448 240 l 1
 448 224 l 1
 448 208 l 1
 448 192 l 1
 448 176 l 1
 448 160 l 1
 448 144 l 1
 448 128 l 1
 448 112 l 1x1001
 448 96 l 1x3002
 448 80 l 1x8002
 432 80 l 1x8004
 432 64 l 1
 432 48 l 1x4004
 416 48 l 1
 416 32 l 1
 400 32 l 1
 400 16 l 1
 384 16 l 1x2001
 368 16 l 1x2002
 368 0 l 1x8002
 352 0 l 1x8004
336 64 m 1
 352 64 l 1x400c
 352 80 l 1x800c
 368 80 l 1x8002
 368 96 l 1x2002
 384 96 l 1
 384 112 l 1
 384 128 l 1
 384 144 l 1
 384 160 l 1
 384 176 l 1
 384 192 l 1
 384 208 l 1
 384 224 l 1
 384 240 l 1
 384 256 l 1
 384 272 l 1
 384 288 l 1
 384 304 l 1
 384 320 l 1
 384 336 l 1
 384 352 l 1
 384 368 l 1
 384 384 l 1
 384 400 l 1
 384 416 l 1
 384 432 l 1
 384 448 l 1
 384 464 l 1
 384 480 l 1
 384 496 l 1
 384 512 l 1
 384 528 l 1
 384 544 l 1x3001
 368 544 l 1x3002
 368 560 l 1x0802
 352 560 l 1x0804
 352 576 l 1
 336 576 l 1
 320 576 l 1
 304 576 l 1
 288 576 l 1
 272 576 l 1
 256 576 l 1
 240 576 l 1
 224 576 l 1
 208 576 l 1
 192 576 l 1
 176 576 l 1
 160 576 l 1x040c
 160 560 l 1x080c
 144 560 l 1x0820
 144 544 l 1x1020
 128 544 l 1
 128 528 l 1
 128 512 l 1
 128 496 l 1
 128 480 l 1
 128 464 l 1
 128 448 l 1
 128 432 l 1
 128 416 l 1
 128 400 l 1
 128 384 l 1
 128 368 l 1
 128 352 l 1
 128 336 l 1
 128 320 l 1
 128 304 l 1
 128 288 l 1
 128 272 l 1
 128 256 l 1
 128 240 l 1
 128 224 l 1
 128 208 l 1
 128 192 l 1
 128 176 l 1
 128 160 l 1
 128 144 l 1
 128 128 l 1
 128 112 l 1
 128 96 l 1x3010
 144 96 l 1x3020
 144 80 l 1x8020
 160 80 l 1x8008
 160 64 l 1x4008
 176 64 l 1
 192 64 l 1
 208 64 l 1
 224 64 l 1
 240 64 l 1
 256 64 l 1
 272 64 l 1
 288 64 l 1
 304 64 l 1
 320 64 l 1
 336 64 l 1
352 672 m 1x0204
 336 672 l 1
 320 672 l 1x0104
 304 672 l 1
 288 672 l 1x0204
 272 672 l 1x0104
 272 688 l 1
 256 688 l 1
 240 688 l 1
 240 704 l 1
 224 704 l 1
 224 720 l 1
 208 720 l 1x0084
 208 736 l 1
 192 736 l 1
 176 736 l 1
 160 736 l 1x004c
 160 720 l 1x008c
 144 720 l 1
 144 704 l 1x00a0
 128 704 l 1
 128 688 l 1
 128 672 l 1
 112 672 l 1x0110
 96 672 l 1
 80 672 l 1x0208
 64 672 l 1
 64 688 l 1x0110
 64 704 l 1
 64 720 l 1x00a0
 64 736 l 1x0110
 80 736 l 1x0108
 80 752 l 1x0208
 96 752 l 1
 96 768 l 1
 112 768 l 1
 112 784 l 1
 128 784 l 1x0210
 144 784 l 1
 144 800 l 1x00a0
 160 800 l 1x0088
 176 800 l 1
 192 800 l 1x0048
 208 800 l 1
 224 800 l 1x0088
 240 800 l 1x0048
 240 784 l 1
 256 784 l 1
 272 784 l 1
 272 768 l 1
 288 768 l 1
 288 752 l 1
 304 752 l 1x0208
 304 736 l 1
 320 736 l 1
 336 736 l 1
 352 736 l 1x010c
 352 752 l 1x020c
 368 752 l 1
 368 768 l 1x0202
 384 768 l 1
 384 784 l 1
 384 800 l 1
 400 800 l 1x0041
 416 800 l 1
 432 800 l 1x0084
 448 800 l 1
 448 784 l 1x0041
 448 768 l 1
 448 752 l 1x0202
 448 736 l 1x0041
 432 736 l 1x0044
 432 720 l 1x0084
 416 720 l 1
 416 704 l 1
 400 704 l 1
 400 688 l 1
 384 688 l 1x0081
 368 688 l 1
 368 672 l 1x0202
 352 672 l 1x0204
EndSplineSet
Validated: 1
EndChar

